<?xml version="1.0" encoding="utf-8"?>
<!-- Generator: Adobe Illustrator 16.0.0, SVG Export Plug-In . SVG Version: 6.00 Build 0)  -->
<!DOCTYPE svg PUBLIC "-//W3C//DTD SVG 1.1//EN" "http://www.w3.org/Graphics/SVG/1.1/DTD/svg11.dtd">
<svg version="1.1" id="Layer_1" xmlns="http://www.w3.org/2000/svg" xmlns:xlink="http://www.w3.org/1999/xlink" x="0px" y="0px"
	 width="180px" height="180px" viewBox="0 0 180 180" enable-background="new 0 0 180 180" xml:space="preserve">
<g>
	<path fill="#F05400" d="M100.616,49.893l-9.524-0.797c0,0-0.001,0-0.002,0c-0.157-4.708-1.279-9.183-3.184-13.255
		c0.175-0.077,0.348-0.165,0.512-0.274l7.833-5.248c1.459-0.977,1.814-2.903,0.791-4.298c-1.021-1.397-3.032-1.736-4.493-0.759
		l-7.762,5.201c-2.601-3.677-5.909-6.859-9.73-9.375l3.862-7.922c0.752-1.545,0.055-3.382-1.562-4.103
		c-1.614-0.721-3.534-0.052-4.287,1.493l-3.647,7.485c-4.623-2.016-9.748-3.152-15.146-3.169l-0.775-8.478
		c-0.155-1.697-1.72-2.954-3.495-2.806c-1.775,0.148-3.088,1.646-2.933,3.344l0.773,8.461c-5.103,0.844-9.851,2.687-14.014,5.318
		c-0.002-0.001-0.003-0.004-0.005-0.006l-6.146-7.008c-1.146-1.306-3.18-1.476-4.546-0.381c-1.364,1.096-1.543,3.043-0.397,4.349
		l6.04,6.887c-3.568,3.228-6.465,7.125-8.471,11.481l-8.705-3.033c-1.675-0.582-3.527,0.244-4.135,1.845
		c-0.61,1.603,0.254,3.374,1.928,3.957l8.841,3.079c-0.682,2.681-1.052,5.478-1.052,8.357c0,1.571,0.119,3.115,0.328,4.634
		l-8.804,2.258c-1.722,0.44-2.743,2.133-2.281,3.781c0.46,1.646,2.23,2.623,3.951,2.183l8.528-2.187
		c1.588,4.792,4.218,9.142,7.631,12.813l-6.408,6.132c-1.261,1.205-1.261,3.16,0,4.366c1.259,1.205,3.302,1.205,4.562,0l6.54-6.258
		c3.749,2.844,8.084,5.006,12.804,6.293l-1.485,8.054c-0.309,1.679,0.863,3.28,2.618,3.576c1.754,0.296,3.428-0.824,3.737-2.504
		l1.465-7.953c1.244,0.122,2.504,0.184,3.781,0.184c3.992,0,7.836-0.616,11.44-1.742l2.831,7.439
		c0.609,1.603,2.46,2.429,4.134,1.845c1.674-0.583,2.539-2.354,1.929-3.956l-2.95-7.753c4.318-2.212,8.127-5.218,11.211-8.816
		l7.414,4.966c1.459,0.979,3.471,0.639,4.492-0.757c1.022-1.397,0.666-3.322-0.792-4.3l-7.477-5.009
		c2.191-3.726,3.698-7.864,4.354-12.264l9.314,0.78c1.775,0.147,3.339-1.108,3.495-2.807
		C103.705,51.539,102.392,50.042,100.616,49.893z M75.522,71.897c-0.336-2.098-2.224-3.706-4.51-3.706
		c-2.523,0-4.569,1.957-4.569,4.372c0,1.705,1.023,3.178,2.511,3.899c-4.405,2.286-9.447,3.586-14.801,3.586
		c-3.967,0-7.758-0.721-11.251-2.02c0.806-0.789,1.304-1.866,1.304-3.056c0-2.414-2.045-4.371-4.569-4.371
		c-2.131,0-3.915,1.397-4.421,3.284C27.796,68.431,23,59.863,23,50.24c0-3.808,0.758-7.448,2.125-10.798
		c0.728,0.47,1.605,0.744,2.549,0.744c2.523,0,4.569-1.957,4.569-4.372c0-1.739-1.063-3.236-2.6-3.94
		c5.708-6.959,14.569-11.442,24.509-11.442c3.046,0,5.988,0.428,8.772,1.212c-0.298,0.58-0.47,1.231-0.47,1.921
		c0,2.414,2.046,4.372,4.569,4.372c1.872,0,3.48-1.079,4.185-2.621c5.489,3.45,9.775,8.51,12.117,14.478
		c-0.117-0.009-0.233-0.017-0.352-0.017c-2.523,0-4.569,1.957-4.569,4.371c0,2.415,2.046,4.373,4.569,4.373
		c0.811,0,1.571-0.205,2.231-0.559c0.059,0.753,0.1,1.511,0.1,2.279C85.305,58.765,81.539,66.459,75.522,71.897z"/>
	<ellipse fill="#F05400" cx="51.958" cy="28.928" rx="4.568" ry="4.372"/>
	<ellipse fill="#F05400" cx="66.185" cy="38.123" rx="4.569" ry="4.372"/>
	<ellipse fill="#F05400" cx="43.624" cy="42.742" rx="4.569" ry="4.372"/>
	<ellipse fill="#F05400" cx="51.914" cy="63.928" rx="4.569" ry="4.372"/>
	<ellipse fill="#F05400" cx="66.394" cy="55.192" rx="4.568" ry="4.372"/>
	<ellipse fill="#F05400" cx="32.606" cy="53.987" rx="4.569" ry="4.372"/>
</g>
<g>
	<path fill="#F05400" d="M150.646,80.371l-3.436-4.17c0,0-0.001,0-0.001-0.001c1.921-2.012,3.362-4.316,4.325-6.77
		c0.102,0.038,0.207,0.071,0.318,0.093l5.313,0.986c0.99,0.184,1.942-0.47,2.126-1.46c0.185-0.99-0.47-1.942-1.46-2.126
		l-5.266-0.977c0.52-2.571,0.551-5.221,0.098-7.804l4.867-1.722c0.949-0.335,1.447-1.377,1.11-2.327
		c-0.335-0.95-1.377-1.446-2.326-1.11l-4.599,1.626c-0.982-2.698-2.532-5.235-4.663-7.419l3.266-3.821
		c0.654-0.765,0.564-1.917-0.201-2.571c-0.767-0.654-1.917-0.563-2.571,0.201l-3.26,3.814c-2.376-1.708-5.033-2.86-7.79-3.449
		c0-0.001,0-0.003,0.001-0.004l0.519-5.379c0.097-1.002-0.638-1.893-1.64-1.99c-1.003-0.097-1.894,0.637-1.99,1.639l-0.511,5.286
		c-2.772-0.103-5.563,0.342-8.192,1.336l-2.17-4.765c-0.418-0.917-1.499-1.321-2.415-0.903c-0.917,0.417-1.321,1.499-0.903,2.416
		l2.203,4.838c-1.4,0.835-2.726,1.843-3.938,3.035c-0.662,0.65-1.266,1.338-1.823,2.051l-4.438-2.616
		c-0.866-0.512-1.984-0.223-2.496,0.645c-0.512,0.868-0.222,1.984,0.646,2.497l4.299,2.534c-1.391,2.624-2.182,5.483-2.377,8.379
		l-5.121-0.045c-1.008-0.01-1.832,0.799-1.841,1.807c-0.01,1.006,0.8,1.83,1.807,1.839l5.228,0.047
		c0.285,2.689,1.092,5.332,2.418,7.768l-3.981,2.734c-0.83,0.57-1.041,1.706-0.471,2.536s1.706,1.041,2.536,0.471l3.932-2.701
		c0.44,0.552,0.913,1.086,1.419,1.601c1.581,1.609,3.363,2.904,5.265,3.893l-2.014,4.22c-0.435,0.909-0.049,1.997,0.86,2.431
		c0.908,0.435,1.997,0.05,2.43-0.858l2.1-4.399c2.643,0.826,5.418,1.118,8.155,0.871l0.843,5.045
		c0.166,0.994,1.106,1.664,2.099,1.499c0.994-0.167,1.664-1.106,1.499-2.1l-0.85-5.088c2.437-0.659,4.777-1.765,6.892-3.32
		l3.359,4.079c0.642,0.776,1.79,0.887,2.567,0.247C151.177,82.298,151.287,81.149,150.646,80.371z M131.437,79.361
		c0.751-1.004,0.681-2.431-0.225-3.354c-0.999-1.018-2.634-1.032-3.651-0.033c-0.719,0.705-0.935,1.728-0.648,2.627
		c-2.708-0.831-5.253-2.326-7.373-4.484c-1.57-1.6-2.769-3.427-3.604-5.372c0.651-0.002,1.303-0.247,1.805-0.739
		c1.017-1,1.031-2.634,0.032-3.651c-0.844-0.859-2.14-1-3.134-0.423c-0.642-5.25,1.07-10.729,5.126-14.712
		c1.604-1.576,3.438-2.776,5.392-3.613c0.09,0.489,0.322,0.956,0.695,1.336c0.999,1.017,2.634,1.032,3.651,0.033
		c0.733-0.72,0.943-1.769,0.631-2.679c5.193-0.579,10.592,1.138,14.528,5.147c1.207,1.228,2.191,2.591,2.963,4.038
		c-0.361,0.12-0.704,0.32-0.995,0.605c-1.018,1-1.032,2.635-0.032,3.652c0.741,0.755,1.832,0.957,2.762,0.603
		c0.719,3.641,0.284,7.464-1.303,10.877c-0.043-0.05-0.086-0.101-0.133-0.148c-0.999-1.018-2.634-1.031-3.65-0.033
		c-1.018,1-1.032,2.635-0.034,3.652c0.321,0.326,0.709,0.549,1.119,0.669c-0.294,0.335-0.597,0.665-0.92,0.982
		C140.845,77.869,136.11,79.536,131.437,79.361z"/>
	<circle fill="#F05400" cx="140.211" cy="52.074" r="2.582"/>
	<circle fill="#F05400" cx="141.971" cy="61.617" r="2.582"/>
	<circle fill="#F05400" cx="131.09" cy="54.431" r="2.582"/>
	<circle fill="#F05400" cx="125.445" cy="66.543" r="2.582"/>
	<circle fill="#F05400" cx="134.861" cy="68.766" r="2.583"/>
	<circle fill="#F05400" cx="121.988" cy="54.644" r="2.583"/>
</g>
<g>
	<path fill="#F05400" d="M105.982,166.119l-4.348-5.276c0,0,0,0,0-0.001c2.43-2.545,4.254-5.461,5.472-8.564
		c0.129,0.048,0.262,0.09,0.402,0.117l6.722,1.248c1.253,0.232,2.457-0.595,2.689-1.848c0.233-1.252-0.594-2.457-1.847-2.689
		l-6.662-1.235c0.657-3.253,0.697-6.606,0.123-9.873l6.158-2.18c1.201-0.425,1.831-1.742,1.405-2.944
		c-0.424-1.202-1.742-1.83-2.943-1.404l-5.818,2.058c-1.242-3.413-3.203-6.622-5.899-9.386l4.132-4.835
		c0.828-0.968,0.714-2.424-0.255-3.252c-0.97-0.828-2.425-0.713-3.253,0.255l-4.125,4.826c-3.006-2.162-6.367-3.619-9.855-4.364
		c0-0.003,0-0.005,0.001-0.006l0.656-6.807c0.122-1.268-0.807-2.395-2.075-2.517c-1.269-0.123-2.396,0.806-2.518,2.074l-0.646,6.687
		c-3.508-0.129-7.038,0.433-10.365,1.691l-2.746-6.028c-0.529-1.16-1.896-1.673-3.055-1.144c-1.16,0.528-1.672,1.896-1.143,3.057
		l2.788,6.12c-1.772,1.058-3.449,2.333-4.983,3.841c-0.838,0.822-1.602,1.692-2.307,2.594l-5.615-3.309
		c-1.096-0.647-2.511-0.282-3.158,0.815s-0.28,2.511,0.817,3.159l5.438,3.207c-1.759,3.318-2.76,6.936-3.007,10.601l-6.479-0.057
		c-1.275-0.013-2.318,1.011-2.329,2.285c-0.013,1.271,1.012,2.314,2.286,2.327l6.614,0.059c0.361,3.403,1.381,6.746,3.059,9.828
		l-5.037,3.459c-1.05,0.722-1.317,2.158-0.596,3.209c0.722,1.05,2.159,1.317,3.208,0.596l4.975-3.418
		c0.557,0.698,1.155,1.374,1.795,2.025c2,2.036,4.255,3.674,6.661,4.925l-2.548,5.339c-0.55,1.15-0.062,2.526,1.088,3.075
		c1.149,0.55,2.527,0.063,3.074-1.086l2.656-5.566c3.343,1.045,6.855,1.415,10.318,1.102l1.066,6.383
		c0.21,1.258,1.4,2.105,2.655,1.896c1.258-0.211,2.105-1.399,1.897-2.656l-1.076-6.437c3.083-0.834,6.044-2.232,8.719-4.201
		l4.251,5.161c0.811,0.982,2.264,1.122,3.248,0.313C106.653,168.557,106.793,167.104,105.982,166.119z M81.678,164.842
		c0.95-1.271,0.861-3.076-0.284-4.243c-1.264-1.287-3.332-1.306-4.62-0.042c-0.909,0.892-1.182,2.186-0.82,3.323
		c-3.426-1.051-6.646-2.942-9.328-5.674c-1.987-2.023-3.503-4.335-4.561-6.796c0.824-0.003,1.648-0.313,2.283-0.936
		c1.286-1.266,1.305-3.334,0.041-4.62c-1.067-1.087-2.707-1.266-3.965-0.534c-0.812-6.643,1.354-13.575,6.485-18.613
		c2.029-1.994,4.35-3.515,6.821-4.572c0.114,0.618,0.408,1.209,0.88,1.69c1.264,1.287,3.332,1.306,4.62,0.042
		c0.928-0.91,1.193-2.237,0.798-3.391c6.571-0.73,13.401,1.441,18.382,6.513c1.526,1.554,2.771,3.278,3.748,5.109
		c-0.457,0.151-0.891,0.405-1.26,0.766c-1.287,1.266-1.305,3.334-0.04,4.621c0.938,0.954,2.317,1.211,3.494,0.763
		c0.909,4.607,0.359,9.442-1.648,13.761c-0.054-0.063-0.108-0.127-0.168-0.188c-1.265-1.287-3.332-1.305-4.618-0.042
		c-1.287,1.266-1.307,3.333-0.043,4.621c0.406,0.412,0.896,0.694,1.416,0.846c-0.373,0.424-0.756,0.842-1.164,1.243
		C93.581,162.953,87.591,165.063,81.678,164.842z"/>
	<circle fill="#F05400" cx="92.78" cy="130.318" r="3.267"/>
	<circle fill="#F05400" cx="95.006" cy="142.391" r="3.266"/>
	<circle fill="#F05400" cx="81.239" cy="133.3" r="3.267"/>
	<circle fill="#F05400" cx="74.097" cy="148.624" r="3.267"/>
	<circle fill="#F05400" cx="86.011" cy="151.437" r="3.267"/>
	<circle fill="#F05400" cx="69.724" cy="133.569" r="3.268"/>
</g>
</svg>
