<?xml version="1.0" encoding="utf-8"?>
<!-- Generator: Adobe Illustrator 16.0.0, SVG Export Plug-In . SVG Version: 6.00 Build 0)  -->
<!DOCTYPE svg PUBLIC "-//W3C//DTD SVG 1.1 Tiny//EN" "http://www.w3.org/Graphics/SVG/1.1/DTD/svg11-tiny.dtd">
<svg version="1.1" baseProfile="tiny" xmlns="http://www.w3.org/2000/svg" xmlns:xlink="http://www.w3.org/1999/xlink" x="0px" y="0px" width="430px" height="287px" viewBox="0 0 430 287" xml:space="preserve">
	<defs>
		<style type="text/css">@import url('https://fonts.googleapis.com/css2?family=Ubuntu:wght@300');</style>
	</defs>
	<g id="Schiphol"></g>
	<g id="C2000"></g>
	<g id="Drone_Himalia"></g>
	<g id="Boring">
		<rect x="105.701" y="183.881" fill="none" width="228.026" height="42.965" />
		<text transform="matrix(1 0 0 1 130.7617 196.7549)" font-family="'Ubuntu'" font-size="18.1335">E</text>
		<text transform="matrix(1 0 0 1 139.6836 196.7549)" font-family="'Ubuntu'" font-size="18.1335">a</text>
		<text transform="matrix(1 0 0 1 148.4238 196.7549)" font-family="'Ubuntu'" font-size="18.1335">s</text>
		<text transform="matrix(1 0 0 1 155.6045 196.7549)" font-family="'Ubuntu'" font-size="18.1335">y</text>
		<text transform="matrix(1 0 0 1 164.1455 196.7549)" font-family="'Ubuntu'" font-size="18.1335"></text>
		<text transform="matrix(1 0 0 1 167.9893 196.7549)" font-family="'Ubuntu'" font-size="18.1335">d</text>
		<text transform="matrix(1 0 0 1 178.2168 196.7549)" font-family="'Ubuntu'" font-size="18.1335">o</text>
		<text transform="matrix(1 0 0 1 188.0449 196.7549)" font-family="'Ubuntu'" font-size="18.1335">w</text>
		<text transform="matrix(1 0 0 1 201.3906 196.7549)" font-family="'Ubuntu'" font-size="18.1335">n</text>
		<text transform="matrix(1 0 0 1 211.4541 196.7549)" font-family="'Ubuntu'" font-size="18.1335">l</text>
		<text transform="matrix(1 0 0 1 215.7334 196.7549)" font-family="'Ubuntu'" font-size="18.1335">o</text>
		<text transform="matrix(1 0 0 1 225.6885 196.7549)" font-family="'Ubuntu'" font-size="18.1335">a</text>
		<text transform="matrix(1 0 0 1 234.4287 196.7549)" font-family="'Ubuntu'" font-size="18.1335">d</text>
		<text transform="matrix(1 0 0 1 244.6563 196.7549)" font-family="'Ubuntu'" font-size="18.1335">/</text>
		<text transform="matrix(1 0 0 1 250.876 196.7549)" font-family="'Ubuntu'" font-size="18.1335">c</text>
		<text transform="matrix(1 0 0 1 258.8916 196.7549)" font-family="'Ubuntu'" font-size="18.1335">o</text>
		<text transform="matrix(1 0 0 1 268.8467 196.7549)" font-family="'Ubuntu'" font-size="18.1335">n</text>
		<text transform="matrix(1 0 0 1 278.6748 196.7549)" font-family="'Ubuntu'" font-size="18.1335">v</text>
		<text transform="matrix(1 0 0 1 287.2148 196.7549)" font-family="'Ubuntu'" font-size="18.1335">e</text>
		<text transform="matrix(1 0 0 1 296.2998 196.7549)" font-family="'Ubuntu'" font-size="18.1335">r</text>
		<text transform="matrix(1 0 0 1 302.665 196.7549)" font-family="'Ubuntu'" font-size="18.1335">t</text>
	</g>
	<g id="Layer_5"></g>
	<g id="Layer_6">
		<g>
			<path fill-rule="evenodd" fill="#016294" d="M216.681,242.572c-2.013-0.875-4.191-1.744-6.302-2.756
			c-7.823-3.755-15.627-7.542-23.415-11.363c-0.604-0.298-1.022-0.97-1.527-1.467c0.503-0.495,0.918-1.166,1.52-1.46
			c8.971-4.394,17.913-8.851,27-12.991c1.671-0.761,4.255-0.866,5.896-0.123c9.209,4.176,18.263,8.691,27.348,13.137
			c0.61,0.3,1.042,0.96,1.557,1.455c-0.564,0.521-1.046,1.218-1.708,1.541c-8.861,4.332-17.739,8.63-26.638,12.884
			C219.369,241.927,218.185,242.121,216.681,242.572z" />
			<path fill-rule="evenodd" fill="#016294" d="M217.005,259.151c-2.345-1.021-4.465-1.866-6.521-2.851
			c-7.599-3.639-15.177-7.323-22.762-10.994c-0.505-0.244-1.022-0.482-1.488-0.792c-1.144-0.756-1.186-1.659,0.018-2.297
			c1.982-1.053,4.012-2.044,6.104-2.85c0.622-0.239,1.592,0.07,2.275,0.397c6.311,3.007,12.602,6.054,18.878,9.13
			c2.287,1.122,4.525,1.191,6.822,0.085c6.408-3.089,12.802-6.206,19.259-9.188c0.861-0.396,2.146-0.332,3.075-0.017
			c1.645,0.556,3.197,1.415,4.724,2.263c0.54,0.3,1.255,0.957,1.232,1.417c-0.027,0.483-0.759,1.093-1.317,1.365
			c-8.079,3.932-16.175,7.828-24.282,11.7C221.087,257.445,219.093,258.243,217.005,259.151z" />
			<path fill-rule="evenodd" fill="#016294" d="M217.29,275.288c-1.22-0.331-2.311-0.46-3.25-0.907
			c-8.904-4.252-17.795-8.539-26.659-12.876c-0.766-0.375-1.325-1.175-1.979-1.778c0.693-0.57,1.365-1.172,2.086-1.704
			c3.711-2.737,7.201-2.317,11.151-0.022c4.898,2.849,10.206,4.987,15.313,7.485c2.007,0.982,3.994,1.021,5.965,0.083
			c6.487-3.083,12.929-6.265,19.454-9.264c0.964-0.443,2.371-0.37,3.429-0.055c1.535,0.461,2.975,1.302,4.387,2.098
			c0.597,0.336,1.021,0.972,1.525,1.471c-0.509,0.498-0.932,1.17-1.538,1.467c-6.732,3.296-13.493,6.53-20.243,9.789
			c-2.081,1.005-4.128,2.083-6.232,3.033C219.576,274.615,218.363,274.924,217.29,275.288z" />
		</g>
		<g>
			<path fill-rule="evenodd" fill="#FBCB21" d="M57.313,108.475c0.448-0.079,0.896-0.157,1.42-0.249
			c-0.722-0.633-1.359-1.246-2.057-1.781c-0.388-0.298-0.644-0.614-0.56-1.092c0.095-0.529,0.592-0.387,0.931-0.441
			c4.239-0.681,8.193,0.007,11.658,2.641c3.308,2.514,4.989,5.95,5.022,10.072c0.041,5.169-1.935,9.522-5.967,12.797
			c-2.624,2.131-5.768,2.875-9.115,2.704c-2.389-0.121-4.729-0.499-6.882-1.638c-4.539-2.401-8.377-7.778-7.671-14.438
			c0.553-5.219,3.069-9.159,7.544-11.799c2.436-1.436,5.138-2.076,7.992-1.898c0.354,0.021,0.706,0.09,1.059,0.137
			c-0.002,0.07-0.003,0.141-0.006,0.211c-0.214,0.032-0.426,0.085-0.641,0.094c-2.29,0.087-4.501,0.527-6.63,1.399
			c-0.504,0.207-0.676,0.503-0.593,1.008c0.125,0.755,0.248,1.513,0.37,2.271c0,0.405,0,0.812,0,1.308
			c0.715-0.239,1.284-0.438,1.858-0.618C55.8,108.925,56.557,108.703,57.313,108.475z M49.984,125.206L49.984,125.206
			c-0.514-1.025-1.026-2.049-1.54-3.072c-0.136-0.34-0.271-0.682-0.417-1.047c-0.35,0.24-0.635,0.519-0.976,0.645
			c-0.23,0.087-0.606,0.045-0.789-0.103c-0.136-0.106-0.165-0.534-0.059-0.713c0.181-0.305,0.522-0.513,0.761-0.79
			c0.144-0.167,0.219-0.392,0.324-0.59c0.052-0.15,0.176-0.319,0.145-0.449c-0.274-1.164-0.576-2.323-0.87-3.482
			c0-0.123,0-0.246,0-0.378c-0.465,0.28-0.899,0.542-1.504,0.907c0.09,1.29,0.091,2.722,0.304,4.123
			c0.771,5.078,3.483,8.714,8.237,10.759c0.844,0.365,0.863,0.338,1.331-0.508c0.018-0.047,0.063-0.125,0.049-0.137
			c-0.681-0.594-1.366-1.185-2.052-1.773c-0.613-0.679-1.227-1.354-1.876-2.071c-0.493,0.606-1.059,0.989-2.021,0.581
			c0.339-0.44,0.618-0.885,0.977-1.247c0.227-0.227,0.216-0.359,0.031-0.557c0.015-0.016,0.029-0.03,0.044-0.046
			C50.051,125.241,50.017,125.225,49.984,125.206z M66.658,128.446c-0.037,0.457-0.075,0.917-0.114,1.374
			c0.06,0.03,0.117,0.062,0.176,0.09c0.923-0.77,1.847-1.54,2.771-2.311c-0.022-0.063-0.045-0.126-0.066-0.191
			c-0.488-0.056-0.979-0.113-1.466-0.171C66.557,127.046,66.501,127.1,66.658,128.446z M52.133,107.839c0-0.646,0-1.292,0-2.014
			c-1.695,1.022-2.952,2.389-4.206,3.783c-0.668,0.744-0.768,1.537-0.668,2.434c0.03,0.271,0.079,0.541,0.117,0.812
			c0.108,0.027,0.263,0.114,0.32,0.071c1.427-1.051,2.857-2.091,4.519-2.754c0.131-0.053,0.319-0.237,0.304-0.332
			C52.416,109.167,52.267,108.503,52.133,107.839z M65.752,129.195c0-0.678,0-1.357,0-2.111c-0.586,0.11-1.023,0.191-1.46,0.272
			c-1.088,0.219-2.177,0.437-3.398,0.681c0.671,0.887,1.247,1.578,1.746,2.322c0.741,1.104,0.699,1.068,1.914,0.604
			C65.416,130.632,65.944,130.188,65.752,129.195z M69.477,121.867c-1.092-0.578-2.283-0.624-3.546-0.779
			c0.11,0.603,0.207,1.091,0.288,1.58c0.084,0.497,0.16,0.993,0.228,1.492c0.09,0.661-0.054,1.53,0.315,1.925
			c0.371,0.396,1.248,0.322,1.902,0.454c0.409,0.138,0.817,0.274,1.191,0.403c0.547-0.494,0.758-1.06,0.745-1.73
			c-0.01-0.548,0.042-1.095,0.029-1.643C70.594,122.113,70.585,122.115,69.477,121.867z M71.054,115.406
			c0.296,0.252,0.593,0.503,1.012,0.857c-0.375,0.058-0.55,0.084-0.728,0.109c-0.196-0.1-0.394-0.196-0.654-0.327
			c0.218,1.516,0.421,2.935,0.624,4.352c-0.163,0.631-0.114,1.193,0.609,1.52c-0.28,0.247-0.619,0.402-0.647,0.598
			c-0.097,0.721-0.093,1.456-0.126,2.187c1.168-2.714,1.842-5.494,1.278-8.457c-0.352-1.854-0.843-3.673-2.149-5.097
			c-0.405-0.442-1.138-0.586-1.722-0.866c-0.321-0.176-0.642-0.351-0.963-0.524c-0.031,0.042-0.062,0.085-0.093,0.13
			c1.074,1.398,1.981,2.892,2.535,4.566C70.208,114.992,70.512,115.305,71.054,115.406z M48.13,116.884
			c0.181,0.695,0.36,1.392,0.533,2.061c1.758-1.035,3.429-2.018,5.158-3.035c-0.291-1.085-0.598-2.229-0.904-3.373
			c-0.055-0.452-0.108-0.904-0.161-1.331c-0.072-0.025-0.098-0.042-0.111-0.037c-1.795,0.759-3.42,1.791-4.911,3.038
			c-0.093,0.078-0.177,0.265-0.152,0.377C47.747,115.354,47.943,116.118,48.13,116.884z M55.565,121.954
			c0.044-0.18,0.165-0.387,0.115-0.537c-0.268-0.794-0.583-1.57-0.869-2.359c-0.227-0.623-0.436-1.252-0.699-2.021
			c-1.701,1.083-3.316,2.111-4.918,3.132c0.209,0.544,0.358,0.935,0.508,1.321c0.49,1.103,0.979,2.206,1.495,3.37
			c0.292-0.197,0.428-0.287,0.563-0.379c0.81-0.555,1.614-1.115,2.429-1.66C54.64,122.52,55.107,122.241,55.565,121.954z
			 M57.419,124.893c-0.24-0.481-0.45-0.982-0.733-1.436c-0.092-0.15-0.422-0.302-0.563-0.246c-1.515,0.578-2.865,1.432-4.141,2.604
			c1.283,1.339,2.552,2.662,3.881,4.05c0.32-0.349,0.538-0.588,0.756-0.824c0.811-0.502,1.62-1.005,2.464-1.528
			C58.527,126.64,57.973,125.766,57.419,124.893z M58.821,115.438c-1.229,0.382-2.455,0.765-3.76,1.172
			c0.657,1.692,1.244,3.209,1.846,4.759c1.89-0.903,3.798-1.274,5.73-1.556c0.58,0.03,1.159,0.06,1.741,0.09
			c0.018-0.14,0.048-0.205,0.031-0.257c-0.502-1.535-1.005-3.07-1.525-4.598c-0.036-0.104-0.222-0.241-0.318-0.226
			C61.316,115.014,60.069,115.228,58.821,115.438z M64.052,126.117c0.391,0.022,0.78,0.043,1.169,0.067
			c0.338,0.021,0.45-0.136,0.399-0.459c-0.245-1.564-0.484-3.128-0.746-4.821c-0.536,0.117-0.935,0.203-1.335,0.291
			c-2.091-0.055-4.045,0.485-6.044,1.38c0.904,1.445,1.771,2.842,2.659,4.221c0.066,0.103,0.327,0.147,0.475,0.117
			C61.772,126.661,62.91,126.386,64.052,126.117z M53.683,111.548c0.343,1.342,0.686,2.685,1.026,4.02
			c1.468-0.495,2.806-0.946,4.143-1.398c1.146-0.147,2.29-0.293,3.576-0.458c-0.359-0.663-0.663-1.218-0.967-1.772
			c-0.473-0.714-0.959-1.418-1.414-2.144c-0.258-0.414-0.585-0.526-1.051-0.428c-0.654,0.136-1.32,0.229-1.98,0.341h-0.015
			c-0.082,0.023-0.165,0.049-0.247,0.073c-1.108,0.308-2.216,0.614-3.387,0.94C53.511,111.1,53.597,111.324,53.683,111.548z
			 M64.064,114.804c0.486,1.65,0.94,3.217,1.414,4.779c0.048,0.153,0.203,0.356,0.342,0.386c1.564,0.335,3.134,0.641,4.872,0.987
			c-0.31-1.576-0.609-3.151-0.935-4.724c-0.038-0.178-0.191-0.412-0.349-0.471C67.689,115.118,65.912,114.775,64.064,114.804z
			 M69.267,114.692c-0.731-1.772-1.589-3.341-2.729-4.758c-0.329-0.409-0.725-0.616-1.23-0.641
			c-1.192-0.063-2.383-0.122-3.575-0.178c-0.201-0.011-0.404-0.001-0.533-0.001c0.729,1.411,1.426,2.795,2.164,4.154
			c0.112,0.206,0.41,0.389,0.648,0.432c1.193,0.217,2.396,0.368,3.592,0.573C68.13,114.365,68.644,114.533,69.267,114.692z
			 M64.788,108.233c0.034-0.164,0.03-0.48,0.118-0.509c0.183-0.06,0.42,0.019,0.624,0.074c0.117,0.031,0.211,0.136,0.322,0.194
			c1.023,0.538,2.051,1.071,3.075,1.606c0.036-0.077,0.07-0.152,0.104-0.229c-3.217-3.119-7.179-4.152-11.556-4.132
			c0.914,0.9,1.758,1.761,2.645,2.578c0.185,0.169,0.523,0.224,0.796,0.241C62.212,108.134,63.509,108.18,64.788,108.233z
			 M62.164,131.747c-0.829-1.079-1.587-2.064-2.43-3.161c-0.978,0.572-1.993,1.163-3.054,1.784c0.336,0.281,0.589,0.467,0.81,0.684
			c0.616,0.608,1.28,1.051,2.213,0.923C60.491,131.869,61.288,131.827,62.164,131.747z M45.23,115.136
			c1.018-0.704,1.447-1.594,0.955-2.923C45.836,113.284,45.533,114.21,45.23,115.136z M55.407,131.688
			c0.643,0.082,1.136,0.146,1.629,0.21c0.013-0.04,0.024-0.079,0.037-0.118c-0.368-0.243-0.738-0.487-1.132-0.748
			C55.784,131.225,55.656,131.381,55.407,131.688z" />
			<path fill-rule="evenodd" fill="#6D6E71" d="M90.248,122.396c0.846,0.846,1.688,1.69,2.576,2.578
			c-1.07,1.063-2.359,1.824-3.868,2.131c-3.313,0.675-6.373,0.132-8.794-2.365c-2.492-2.571-2.967-5.713-1.822-9.015
			c1.113-3.216,3.576-4.946,6.893-5.449c2.312-0.351,4.498-0.014,6.354,1.545c1.581,1.326,2.341,3.11,2.631,5.095
			c0.153,1.055,0.152,2.133,0.223,3.242c-4.193,0-8.293,0-12.385,0c-0.216,1.033,0.655,2.543,1.854,3.269
			C85.799,124.572,87.966,124.218,90.248,122.396z M90.267,117.078c-0.191-2.571-1.707-3.872-4.349-3.805
			c-2.191,0.056-3.879,1.68-3.938,3.805C84.728,117.078,87.476,117.078,90.267,117.078z" />
			<path fill-rule="evenodd" fill="#6D6E71" d="M108.255,112.498c-0.877,0.87-1.728,1.713-2.616,2.597
			c-0.649-0.844-1.479-1.453-2.578-1.601c-0.812-0.11-1.601-0.034-2.291,0.456c-0.997,0.708-0.938,1.943,0.188,2.4
			c0.982,0.397,2.05,0.587,3.075,0.884c0.724,0.21,1.458,0.399,2.157,0.676c3.639,1.446,3.362,6.262,0.902,7.983
			c-1.135,0.794-2.386,1.229-3.741,1.377c-1.795,0.194-3.593,0.186-5.265-0.585c-0.898-0.414-1.703-1.031-2.554-1.561
			c0.999-0.98,1.875-1.843,2.781-2.733c0.202,0.189,0.49,0.485,0.807,0.748c1.374,1.136,2.886,1.503,4.573,0.772
			c0.647-0.278,1.079-0.757,1.101-1.482c0.021-0.772-0.444-1.292-1.124-1.513c-1.095-0.354-2.223-0.606-3.335-0.91
			c-0.484-0.134-0.975-0.259-1.442-0.439c-3.137-1.197-3.977-5.062-1.612-7.479c1.415-1.446,3.235-1.879,5.183-1.922
			C104.9,110.114,106.852,110.898,108.255,112.498z" />
			<path fill-rule="evenodd" fill="#6D6E71" d="M121.093,114.152c-1.025,0-1.935-0.105-2.81,0.021
			c-2.406,0.35-3.393,2.35-3.411,4.191c-0.027,2.61-0.007,5.221-0.007,7.83c0,0.229,0,0.457,0,0.725c-1.353,0-2.67,0-4.037,0
			c0-5.413,0-10.847,0-16.317c1.322,0,2.638,0,4.017,0c0,0.807,0,1.609,0,2.604c0.192-0.293,0.28-0.418,0.359-0.55
			c1.125-1.881,3.484-2.884,5.602-2.361c0.161,0.041,0.411,0.23,0.41,0.349C121.197,111.854,121.137,113.066,121.093,114.152z" />
			<path fill-rule="evenodd" fill="#6D6E71" d="M127.35,126.941c-1.354,0-2.654,0-3.997,0c0-5.451,0-10.888,0-16.348
			c1.327,0,2.643,0,3.997,0C127.35,116.043,127.35,121.465,127.35,126.941z" />
			<path fill-rule="evenodd" fill="#6D6E71" d="M122.645,104.918c0-1.46,1.179-2.613,2.665-2.606c1.556,0.005,2.757,1.129,2.769,2.59
			c0.015,1.539-1.195,2.681-2.817,2.667C123.772,107.553,122.645,106.412,122.645,104.918z" />
			<g>
				<path fill-rule="evenodd" fill="#016294" d="M57.313,108.475c-0.756,0.229-1.513,0.45-2.266,0.686
				c-0.574,0.18-1.144,0.379-1.858,0.618c0-0.496,0-0.902,0-1.308c0.646-0.145,1.287-0.318,1.94-0.422
				c0.531-0.086,1.083-0.138,1.616-0.096C56.946,107.971,57.123,108.292,57.313,108.475z" />
				<path fill-rule="evenodd" fill="#016294" d="M64.064,114.804c1.848-0.028,3.625,0.314,5.345,0.958
				c0.157,0.059,0.311,0.293,0.349,0.471c0.325,1.572,0.625,3.147,0.935,4.724c-1.738-0.347-3.308-0.652-4.872-0.987
				c-0.139-0.029-0.294-0.232-0.342-0.386C65.005,118.021,64.551,116.454,64.064,114.804z" />
				<path fill-rule="evenodd" fill="#016294" d="M69.267,114.692c-0.623-0.159-1.137-0.327-1.664-0.418
				c-1.195-0.205-2.398-0.356-3.592-0.573c-0.238-0.043-0.536-0.226-0.648-0.432c-0.738-1.359-1.435-2.743-2.164-4.154
				c0.129,0,0.332-0.01,0.533,0.001c1.192,0.056,2.383,0.115,3.575,0.178c0.506,0.024,0.901,0.231,1.23,0.641
				C67.678,111.352,68.535,112.92,69.267,114.692z" />
				<path fill-rule="evenodd" fill="#016294" d="M58.821,115.438c1.248-0.21,2.495-0.424,3.745-0.615
				c0.097-0.016,0.282,0.122,0.318,0.226c0.521,1.527,1.023,3.063,1.525,4.598c0.017,0.052-0.014,0.117-0.031,0.257
				c-0.582-0.03-1.161-0.06-1.741-0.09c-0.604-0.797-1.488-0.864-2.375-0.891c-1.151-0.038-1.731-0.577-1.697-1.706
				C58.585,116.621,58.732,116.029,58.821,115.438z" />
				<path fill-rule="evenodd" fill="#016294" d="M56.618,129.041c-0.218,0.236-0.436,0.476-0.756,0.824
				c-1.329-1.388-2.598-2.711-3.881-4.05c1.275-1.173,2.626-2.026,4.141-2.604c0.142-0.056,0.472,0.096,0.563,0.246
				c0.283,0.453,0.493,0.954,0.733,1.435c-0.139,0.496-0.316,0.988-0.408,1.495C56.853,127.266,56.747,128.156,56.618,129.041z" />
				<path fill-rule="evenodd" fill="#016294" d="M52.917,112.536c-0.617,0.794-1.192,1.624-1.865,2.366
				c-0.334,0.367-0.815,0.697-1.289,0.823c-0.722,0.188-1.208,0.603-1.633,1.158c-0.187-0.766-0.383-1.53-0.549-2.301
				c-0.024-0.112,0.06-0.299,0.152-0.377c1.491-1.247,3.116-2.279,4.911-3.038c0.014-0.005,0.039,0.012,0.111,0.037
				C52.809,111.632,52.862,112.084,52.917,112.536z" />
				<path fill-rule="evenodd" fill="#016294" d="M68.664,126.539c-0.654-0.132-1.531-0.058-1.902-0.454
				c-0.369-0.395-0.226-1.264-0.315-1.925c-0.067-0.499-0.144-0.995-0.228-1.492c-0.081-0.489-0.178-0.978-0.288-1.58
				c1.263,0.155,2.454,0.201,3.546,0.779c-0.417,0.637-0.503,1.347-0.466,2.089c0.023,0.479,0.046,0.966-0.013,1.439
				C68.949,125.785,68.78,126.158,68.664,126.539z" />
				<path fill-rule="evenodd" fill="#016294" d="M49.702,121.49c0.837-0.566,1.779-0.516,2.702-0.384
				c0.925,0.132,1.834,0.372,2.746,0.585c0.15,0.036,0.278,0.173,0.415,0.263c-0.458,0.287-0.926,0.565-1.376,0.867
				c-0.814,0.545-1.619,1.105-2.429,1.66c-0.136,0.092-0.271,0.182-0.563,0.379C50.681,123.696,50.192,122.593,49.702,121.49z" />
				<path fill-rule="evenodd" fill="#016294" d="M47.376,112.854c0.476-0.712,0.93-1.436,1.428-2.13
				c0.878-1.226,2.019-2.157,3.329-2.888c0.134,0.667,0.283,1.331,0.386,2.003c0.016,0.095-0.173,0.279-0.304,0.332
				c-1.661,0.663-3.092,1.703-4.519,2.754C47.639,112.968,47.484,112.881,47.376,112.854z" />
				<path fill-rule="evenodd" fill="#016294" d="M64.052,126.117c0.023-0.762-0.093-1.563,0.107-2.274
				c0.237-0.84,0.246-1.52-0.367-2.166c-0.119-0.128-0.171-0.32-0.253-0.481c0.4-0.088,0.799-0.174,1.335-0.291
				c0.262,1.693,0.501,3.257,0.746,4.821c0.051,0.323-0.062,0.479-0.399,0.459C64.832,126.16,64.442,126.14,64.052,126.117z" />
				<path fill-rule="evenodd" fill="#016294" d="M58.852,114.169c-0.074-0.642,0.259-1.333,0.883-1.621
				c0.552-0.254,1.15-0.41,1.727-0.609c0.304,0.555,0.607,1.109,0.967,1.772C61.142,113.876,59.998,114.021,58.852,114.169z" />
				<path fill-rule="evenodd" fill="#016294" d="M68.551,110.281c1.075,1.482,2.083,3.003,2.505,4.824
				c0.021,0.095,0,0.201-0.002,0.302c-0.542-0.103-0.846-0.415-1.023-0.954c-0.554-1.675-1.461-3.168-2.535-4.566
				c0.031-0.045,0.062-0.088,0.093-0.13C67.909,109.931,68.229,110.105,68.551,110.281z" />
				<path fill-rule="evenodd" fill="#016294" d="M49.984,125.205c-0.576,0.068-1.569-0.587-1.768-1.307
				c-0.133-0.479-0.06-1.018-0.046-1.528c0.002-0.081,0.178-0.158,0.273-0.236C48.958,123.157,49.471,124.181,49.984,125.205z" />
				<path fill-rule="evenodd" fill="#016294" d="M47.289,119.536c-0.603-0.534-1.206-1.083-1.083-1.996
				c0.088-0.648,0.236-1.291,0.357-1.938c0.294,1.161,0.596,2.32,0.87,3.484C47.465,119.217,47.341,119.386,47.289,119.536z" />
				<path fill-rule="evenodd" fill="#016294" d="M71.338,116.373c-0.01,1.345-0.021,2.688-0.03,4.028
				c-0.203-1.421-0.406-2.84-0.624-4.355C70.944,116.177,71.142,116.273,71.338,116.373z" />
				<path fill-rule="evenodd" fill="#016294" d="M65.752,129.195c-0.346,0.148-0.576,0.067-0.733-0.301
				c-0.223-0.521-0.483-1.026-0.727-1.538c0.437-0.081,0.874-0.162,1.46-0.272C65.752,127.838,65.752,128.518,65.752,129.195z" />
				<path fill-rule="evenodd" fill="#016294" d="M56.754,109.781c-0.036,0.08-0.049,0.2-0.108,0.232
				c-0.984,0.519-1.975,1.024-2.963,1.534c-0.086-0.224-0.172-0.448-0.315-0.826C54.538,110.396,55.646,110.089,56.754,109.781z" />
				<path fill-rule="evenodd" fill="#016294" d="M54.932,130.508c-1.261-0.256-2.014-0.547-2.003-1.911
				c0.686,0.59,1.371,1.181,2.052,1.774C54.994,130.383,54.949,130.461,54.932,130.508z" />
				<path fill-rule="evenodd" fill="#016294" d="M67.958,127.237c-0.434,0.404-0.868,0.807-1.3,1.209
				C66.501,127.1,66.557,127.046,67.958,127.237z" />
				<polygon fill-rule="evenodd" fill="#016294" points="57.016,109.708 57.013,109.738 57.001,109.708 			" />
				<path fill-rule="evenodd" fill="#016294" d="M50.039,125.304c-0.018-0.032-0.036-0.065-0.055-0.098
				c0.032,0.019,0.066,0.035,0.099,0.052C50.068,125.273,50.054,125.288,50.039,125.304z" />
			</g>
		</g>
		<g>
			<path fill-rule="evenodd" fill="#6D6E71" d="M327.581,110.32c4.86-2.902,9.483-0.863,11.704,1.82
			c2.414,2.916,2.466,7.205,0.073,10.235c-2.814,3.559-7.085,4.145-12.49,1.548c0,0.647,0,1.171,0,1.695
			c0.003,3.698-0.007,7.396,0.015,11.094c0.005,1.111-0.119,2.213-1.477,2.254c-1.423,0.041-1.684-1.035-1.682-2.241
			c0.014-8.476,0.01-16.949,0.006-25.424c0-1.021,0.037-2.166,1.313-2.196C325.755,109.088,326.485,109.768,327.581,110.32z
			 M337.96,117.355c0.016-2.982-2.498-5.438-5.534-5.408c-2.984,0.029-5.491,2.437-5.529,5.311
			c-0.038,2.904,2.573,5.435,5.588,5.413C335.488,122.649,337.945,120.265,337.96,117.355z" />
			<path fill-rule="evenodd" fill="#6D6E71" d="M358.188,110.543c0-1.12,0-2.176,0-3.232c0.002-3.286,0.01-6.573,0.001-9.859
			c-0.003-1.082,0.426-1.878,1.566-1.852c1.111,0.026,1.565,0.824,1.565,1.895c-0.001,8.729,0.025,17.46-0.055,26.189
			c-0.006,0.617-0.774,1.723-1.211,1.733c-0.745,0.018-1.508-0.651-2.568-1.185c-4.657,2.228-8.718,1.714-11.661-1.753
			c-2.362-2.781-2.544-6.863-0.439-9.852C348.063,108.828,351.881,108.177,358.188,110.543z M347.096,117.269
			c0.008,2.978,2.564,5.435,5.583,5.366c2.984-0.065,5.482-2.509,5.486-5.37c0.007-2.911-2.624-5.41-5.642-5.356
			C349.51,111.96,347.088,114.352,347.096,117.269z" />
			<path fill-rule="evenodd" fill="#6D6E71" d="M387.253,114.765c3.146-1.777,5.958-3.366,8.771-4.954
			c0.356-0.201,0.708-0.413,1.074-0.6c0.898-0.453,1.728-0.397,2.257,0.536c0.567,1-0.021,1.654-0.851,2.127
			c-2.586,1.473-5.182,2.922-7.772,4.387c-0.53,0.299-1.044,0.627-1.698,1.022c2.904,1.642,5.668,3.206,8.433,4.768
			c0.312,0.179,0.626,0.354,0.939,0.528c0.889,0.498,1.562,1.141,0.922,2.212c-0.602,1.007-1.521,0.901-2.416,0.404
			c-2.646-1.468-5.281-2.955-7.921-4.432c-0.483-0.271-0.974-0.531-1.738-0.945c0,1.463-0.02,2.712,0.005,3.959
			c0.022,1.036-0.388,1.739-1.464,1.768c-1.155,0.03-1.605-0.686-1.604-1.792c0.01-8.784,0.007-17.567,0.002-26.351
			c-0.001-1.016,0.429-1.766,1.469-1.798c1.123-0.034,1.603,0.695,1.6,1.809c-0.015,5.136-0.006,10.273-0.006,15.408
			C387.253,113.369,387.253,113.917,387.253,114.765z" />
			<path fill-rule="evenodd" fill="#FBCB21" d="M297.944,102.423c0.113,0.316,0.138,0.364,0.147,0.414
			c0.396,2.068-0.263,3.43-2.334,4.283c-1.878,0.775-3.596,1.941-5.628,3.072c3.706,2.067,7.181,4.021,10.683,5.921
			c0.272,0.149,0.807,0.024,1.124-0.149c3.424-1.86,6.827-3.755,10.469-5.77c-2.138-1.196-4.085-2.282-6.029-3.374
			c-2.354-1.319-2.371-1.366-1.789-4.407c3.035,1.685,6.027,3.343,9.016,5.005c0.853,0.473,1.729,0.908,2.541,1.444
			c1.105,0.728,1.148,1.963,0.004,2.615c-4.684,2.663-9.396,5.279-14.141,7.832c-0.468,0.251-1.34,0.148-1.843-0.124
			c-4.558-2.47-9.083-4.998-13.598-7.547c-1.328-0.75-1.526-1.975-0.36-2.651C290.054,106.753,293.969,104.634,297.944,102.423z" />
			<path fill-rule="evenodd" fill="#6D6E71" d="M364.1,117.209c0.024-4.605,3.72-8.256,8.346-8.246
			c4.578,0.01,8.315,3.751,8.314,8.323c0,4.58-3.713,8.297-8.311,8.318C367.764,125.627,364.072,121.916,364.1,117.209z
			 M367.11,117.218c-0.045,2.966,2.36,5.427,5.309,5.432c2.85,0.002,5.277-2.423,5.299-5.296c0.021-2.969-2.391-5.425-5.318-5.419
			C369.518,111.941,367.155,114.301,367.11,117.218z" />
			<path fill-rule="evenodd" fill="#016294" d="M299.372,132.742c0,0,1.107,0.762,1.811,0.884c0.225,0.039,1.123,0.049,1.584-0.45
			c0.008,0.274-0.064,0.961-0.025,1.365c0.095,0.966,0.183,1.995-0.053,2.912c-0.152,0.594-0.893,1.036-1.367,1.546
			c-0.503-0.488-1.188-0.892-1.454-1.484c-0.249-0.556-0.053-1.312-0.053-2.368c0.081-0.92-0.077-1.426-0.134-2.147" />
			<path fill-rule="evenodd" fill="#FBCB21" d="M301.295,133.979c-0.389-0.395-2.917-1.659-3.562-1.99
			c-3.652-1.871-7.219-3.913-10.817-5.89c-0.881-0.482-1.865-1.006-1.236-2.226c0.634-1.232,1.616-0.923,2.622-0.365
			c3.904,2.169,7.841,4.278,11.729,6.474c0.87,0.492,1.542,0.492,2.4,0.007c3.889-2.192,7.816-4.319,11.717-6.494
			c1.011-0.563,2.017-0.836,2.628,0.384c0.58,1.16-0.291,1.743-1.218,2.251c-3.873,2.119-7.715,4.296-11.602,6.387
			c-0.536,0.289-0.992,0.505-1.309,0.865L301.295,133.979" />
			<path fill-rule="evenodd" fill="#FBCB21" d="M299.372,133.122c-0.02-0.021-0.039-0.041-0.059-0.062" />
			<path fill-rule="evenodd" fill="#016294" d="M299.629,103.564c0.001-2.054,0.021-4.109-0.007-6.162
			c-0.017-1.138,0.531-1.789,1.621-1.81c1.032-0.021,1.614,0.634,1.62,1.666c0.025,4.211,0.046,8.421,0.012,12.632
			c-0.007,0.986-0.565,1.678-1.642,1.65c-1.132-0.029-1.619-0.702-1.609-1.813C299.643,107.673,299.629,105.619,299.629,103.564z" />
			<path fill-rule="evenodd" fill="#FBCB21" d="M286.819,115.45c0.674,0.33,1.144,0.528,1.582,0.78
			c3.963,2.275,7.931,4.543,11.867,6.862c0.708,0.416,1.213,0.439,1.938,0.011c3.931-2.33,7.906-4.585,11.853-6.889
			c0.965-0.561,1.953-0.999,2.652,0.216c0.67,1.164-0.06,1.878-1.064,2.453c-4.322,2.473-8.64,4.955-12.932,7.485
			c-0.987,0.583-1.789,0.671-2.831,0.053c-4.371-2.592-8.816-5.06-13.175-7.672c-0.568-0.342-1.02-1.239-1.088-1.922
			C285.579,116.418,286.384,115.922,286.819,115.45z" />
		</g>
		<g>
			<path fill-rule="evenodd" fill="#6D6E71" d="M132.754,47.576c-1.294-2.266-1.294-2.266-1.197-3.831c0.665,0,1.335,0,2.148,0
			c1.89,3.462,2.95,7.343,4.864,11c1.192-1.181,1.454-2.812,2.061-4.261c0.934-2.225,1.458-4.622,2.778-6.717c0.593,0,1.108,0,1.7,0
			c0.033,0.147,0.12,0.352,0.123,0.559c0.01,0.518-0.225,0.971-0.374,1.447c-0.707,2.242-1.634,4.393-2.491,6.572
			c-0.779,1.98-1.459,4-2.202,5.997c-0.124,0.333-0.343,0.63-0.53,0.967c-0.713,0-1.381,0-2.044,0
			c-1.022-2.419-2.045-4.834-3.158-7.466c-1.622,2.352-2.258,5.001-3.486,7.427c-0.694,0-1.361,0-2.175,0
			c-1.829-5.053-4.106-10.086-5.807-15.495c0.897,0,1.569,0,2.501,0c1.579,3.627,2.916,7.521,4.386,11.545
			c0.54-0.915,1.323-1.719,1.463-2.622c0.153-0.996,0.656-1.76,1.063-2.569C132.808,49.27,132.847,48.447,132.754,47.576z" />
			<path fill-rule="evenodd" fill="#6D6E71" d="M201.739,57.073c0.541,0,1.208,0,1.944,0c0,0.596,0,1.11,0,1.643
			c-0.492,0.163-1.029,0.343-1.622,0.541c-0.137-0.077-0.39-0.343-0.631-0.332c-1.213,0.054-2.124-0.493-2.906-1.335
			c-1.225-1.32-2.735-2.385-3.539-4.128c-0.854,0-1.677,0-2.702,0c-0.018,0.784-0.04,1.669-0.049,2.554
			c-0.009,0.913-0.001,1.823-0.001,2.503c-0.548,1.133-1.384,0.776-2.068,0.851c-0.255-0.257-0.473-0.472-0.625-0.625
			c0-5.029,0-9.995,0-15.046c1.822,0,3.58-0.081,5.326,0.032c0.984,0.064,1.999,0.331,2.914,0.711
			c2.413,1.001,3.249,3.568,2.097,6.128c-0.434,0.963-1.016,1.769-2.185,2.115C198.395,54.689,199.913,55.921,201.739,57.073z
			 M196.701,46.556c-0.803-0.204-1.491-0.449-2.196-0.534c-0.734-0.087-1.486-0.019-2.225-0.019c0,1.915,0,3.653,0,5.46
			c1.169,0,2.295,0,3.257,0c2.021-0.641,2.404-2.102,2.201-3.87C197.42,47.273,197.097,46.949,196.701,46.556z" />
			<path fill-rule="evenodd" fill="#6D6E71" d="M316.263,48.316c0,3.457,0,6.884,0,10.234c-0.927,0.761-0.927,0.761-2.328,0.72
			c0-4.962,0-9.928,0-15.003c0.599,0,1.257,0,2.208,0c2.707,3.37,5.582,6.946,8.451,10.518c0.129-0.091,0.192-0.12,0.233-0.17
			c0.045-0.055,0.09-0.127,0.09-0.19c0.006-3.365,0.006-6.732,0.006-10.183c0.726,0,1.395,0,2.153,0
			c0.231,0.224,0.327,9.298,0.066,15.047c-0.658,0-1.33,0-2.21,0C322.134,55.746,319.225,52.064,316.263,48.316z" />
			<path fill-rule="evenodd" fill="#6D6E71" d="M266.854,28.918c0-3.987,0-7.422,0-10.938c0.746,0,1.412,0,2.17,0
			c0.231,0.225,0.323,9.848,0.056,15.052c-0.661,0-1.331,0-2.169,0c-2.792-3.589-5.668-7.288-8.712-11.2c0,3.861,0,7.448,0,11.191
			c-0.643,0.032-1.211,0.061-1.855,0.093c0-5.074,0-10.042,0-15.114c0.613,0,1.277,0,1.949,0
			C261.008,21.463,263.774,24.99,266.854,28.918z" />
			<path fill-rule="evenodd" fill="#6D6E71" d="M186.188,28.898c0-3.93,0-7.361,0-10.896c0.8,0,1.521,0,2.304,0
			c0,4.981,0,9.947,0,15.008c-0.649,0-1.313,0-2.227,0c-2.765-3.53-5.669-7.235-8.72-11.127c0,3.812,0,7.454,0,11.156
			c-0.675,0-1.189,0-1.802,0c0-4.994,0-10.016,0-15.088c0.545,0,1.06,0,1.737,0C180.234,21.414,183.049,24.953,186.188,28.898z" />
			<path fill-rule="evenodd" fill="#6D6E71" d="M247.534,50.066c0-1.977,0-3.875,0-5.84c0.746,0,1.415,0,2.188,0
			c0,4.982,0,10.004,0,15.083c-0.688,0-1.356,0-2.114,0c0-2.2,0-4.402,0-6.508c-0.139-0.155-0.181-0.222-0.239-0.265
			c-0.055-0.04-0.129-0.081-0.194-0.081c-2.754-0.005-5.507-0.004-8.341-0.004c0,2.283,0,4.488,0,6.802c-0.799,0-1.522,0-2.311,0
			c0-4.967,0-9.935,0-14.999c0.7,0,1.423,0,2.229,0c0,1.935,0,3.834,0,5.812C241.649,50.066,244.47,50.066,247.534,50.066z" />
			<path fill-rule="evenodd" fill="#6D6E71" d="M156.296,17.938c0.816,0,1.483,0,2.304,0c0,1.773,0.077,3.52-0.021,5.255
			c-0.112,2.035,0.233,4.014,0.638,6.148c0.346,0.346,0.833,0.833,1.496,1.496c1.244,0.171,2.685,0.368,4.04,0.555
			c0.961-0.77,1.768-1.414,2.36-1.887c1.102-2.636,0.595-5.139,0.692-7.596c0.051-1.29,0.009-2.58,0.009-3.94
			c0.601,0,1.114,0,1.63,0c0.854,2.71,0.721,5.562,0.646,8.394c-0.03,1.146-0.199,2.354-0.618,3.408
			c-0.519,1.301-1.482,2.287-2.84,2.938c-3.243,1.551-5.572,0.942-8.716-0.543c-0.642-0.303-1.613-2.515-1.616-3.452
			C156.292,25.191,156.296,21.67,156.296,17.938z" />
			<path fill-rule="evenodd" fill="#6D6E71" d="M294.025,48.047c-0.825-1.719-2.214-2.243-5.474-1.99c0,4.393,0,8.803,0,13.258
			c-0.981,0-1.803,0-2.709,0c0-4.981,0-9.949,0-15.097c1.095-0.148,2.302-0.032,3.499-0.053c1.228-0.022,2.467-0.1,3.68,0.034
			c0.592,0.067,1.19,0.492,1.689,0.88c0.602,0.468,1.101,1.067,1.642,1.61c0.441,2.837,0.427,2.833,0.008,4.223
			c-0.479,1.588-1.435,2.58-3.125,2.95c-1.505,0.329-1.482,0.429-4.203-0.185c-0.016-0.208-0.039-0.428-0.045-0.648
			c-0.008-0.297-0.002-0.592-0.002-0.969c1.051,0,2.029,0,3.009,0C293.849,51.279,294.243,49.822,294.025,48.047z" />
			<path fill-rule="evenodd" fill="#6D6E71" d="M277.683,51.992c2.035-1.267,2.092-1.376,2.055-3.949
			c-0.811-1.703-2.191-2.239-5.459-1.988c0,4.235,0,8.486,0,12.582c-0.316,0.315-0.479,0.479-0.685,0.684c-0.624,0-1.292,0-2.039,0
			c0-4.99,0-9.95,0-15.13c1.175-0.068,2.448-0.021,3.717-0.029c1.227-0.009,2.452-0.002,3.907-0.002
			c0.889,0.734,1.912,1.581,2.807,2.319c0.211,0.968,0.524,1.745,0.51,2.516c-0.015,0.77-0.357,1.531-0.608,2.495
			c-3.097,3.097-3.097,3.097-7.132,2.197c-0.017-0.205-0.045-0.425-0.049-0.644c-0.009-0.448-0.003-0.899-0.003-1.601
			c0.569,0.221,0.982,0.46,1.423,0.531C276.646,52.055,277.189,51.992,277.683,51.992z" />
			<path fill-rule="evenodd" fill="#6D6E71" d="M234.753,17.986c0.94,0,1.765,0,2.718,0c-2.095,5.094-4.139,10.064-6.195,15.068
			c-0.684,0-1.353,0-2.21,0c-2.358-4.791-3.856-9.991-6.154-15.055c1.026,0,1.846,0,2.77,0c0.749,1.758,1.596,3.622,2.341,5.527
			c0.749,1.915,1.396,3.871,2.179,6.063C231.999,25.697,233.138,21.787,234.753,17.986z" />
			<path fill-rule="evenodd" fill="#6D6E71" d="M232.295,56.42c0,0.974,0,1.581,0,2.219c-0.393,0.229-0.827,0.709-1.234,0.688
			c-2.236-0.12-4.496,0.425-6.715-0.404c-2.511-0.936-4.932-3.683-4.919-6.57c0.005-1.041,0-2.115,0.244-3.115
			c0.68-2.779,2.464-4.557,5.252-5.281c0.419-0.109,0.848-0.231,1.273-0.245c1.149-0.034,2.302-0.06,3.447,0.005
			c0.848,0.048,1.688,0.242,2.582,0.38c0,0.877,0,1.599,0,2.349c-2.277-0.801-4.545-0.345-6.774-0.401
			c-0.499-0.013-1.084,0.395-1.502,0.753c-1.749,1.502-2.497,3.431-2.211,5.673c0.801,1.996,1.944,3.649,4.129,4.612
			C227.793,56.782,230.013,57.604,232.295,56.42z" />
			<path fill-rule="evenodd" fill="#6D6E71" d="M206.515,46.999c0.657-1.707,1.665-2.631,3.207-3.294
			c1.841,0.27,4.14-0.733,5.955,1.057c0,0.55,0,1.063,0,1.626c-0.262,0.029-0.49,0.11-0.689,0.064
			c-0.625-0.146-1.293-0.236-1.845-0.532c-1.617-0.875-2.948-0.314-4.279,0.671c0,0.46,0,0.907,0,1.45
			c0.649,0.889,1.499,1.826,2.658,2.052c1.04,0.201,1.829,0.8,2.749,1.166c1.66,0.659,2.543,1.916,2.385,3.781
			c-0.025,0.301-0.004,0.603-0.004,1.085c-0.76,0.866-1.592,1.813-2.386,2.718c-1.494,0.016-2.806,0.83-4.241,0.514
			c-1.322-0.291-2.632-0.641-3.916-0.958c0-0.956,0-1.777,0-2.711c0.882,0.451,1.675,0.858,2.666,1.368
			c1.465-0.153,3.215,0.392,4.854-0.458c0.236-0.427,0.475-0.858,0.719-1.303c0-0.838-0.976-2.098-2.002-2.366
			c-1.767-0.462-3.178-1.598-4.739-2.432c-0.7-0.373-1.094-1.173-1.092-2.052C206.517,47.908,206.515,47.372,206.515,46.999z" />
			<path fill-rule="evenodd" fill="#6D6E71" d="M165.132,45.99c-1.987,0-3.731,0-5.542,0c0-0.598,0-1.111,0-1.67
			c0.175-0.174,0.393-0.392,0.616-0.615c4.138,0,8.282,0,12.426,0c0.85,0.543,0.815,1.335,0.617,2.258c-1.757,0-3.501,0-5.406,0
			c0,4.486,0,8.897,0,13.354c-0.984,0-1.808,0-2.711,0C165.132,54.943,165.132,50.588,165.132,45.99z" />
			<path fill-rule="evenodd" fill="#FBCB21" d="M143.937,20.237c-6.271,0-12.303,0-18.422,0c0,0.834,0,1.656,0,2.637
			c-0.795,0.038-1.514,0.072-2.313,0.111c0-1.681,0-3.27,0-4.973c7.542,0,15.163,0,22.871,0c0,1.579,0,3.22,0,4.908
			c-0.719,0-1.386,0-2.136,0C143.937,22.084,143.937,21.262,143.937,20.237z" />
			<path fill-rule="evenodd" fill="#FBCB21" d="M143.861,31.192c0-1.063,0-2.037,0-3.085c0.592,0,1.106,0,1.729,0
			c0,1.576,0,3.219,0,4.929c-7.399,0-14.811,0-22.346,0c-0.329-1.559,0.027-3.21-0.182-4.925c0.796,0,1.467,0,2.299,0
			c0,0.949,0,1.983,0,3.081C131.554,31.192,137.584,31.192,143.861,31.192z" />
			<path fill-rule="evenodd" fill="#016294" d="M128.576,23.888c0.919,0,1.763,0,2.426,0c1.454,0.656,2.576,1.756,4.382,1.265
			c0.634-0.334,1.457-0.766,2.391-1.256c1.483-0.01,3.2-0.324,4.351,1.325c0.775,0,1.528,0,2.433,0
			c0.858-0.82,1.88-1.653,3.402-1.237c0,0.406,0,0.768,0,1.268c-1.109,0.572-2.251,1.162-3.555,1.836
			c-1.336,0.176-2.726,0.018-3.897-1.191c-0.343-0.352-1.054-0.348-1.874-0.588c-0.791,0.484-1.825,1.118-2.941,1.801
			c-0.659,0-1.425,0-2.024,0c-1.271-0.65-2.412-1.234-3.573-1.829c-1.783,0.575-3.239,2.239-5.099,1.855
			c-1.531-0.771-2.799-1.411-4.133-2.085c0-0.286,0-0.646,0-1.081c1.411-0.345,2.43,0.279,3.383,1.261c0.707,0,1.463,0,2.352,0
			C127.15,24.855,127.81,24.408,128.576,23.888z" />
			<path fill-rule="evenodd" fill="#6D6E71" d="M176.107,44.39c0.326-0.324,0.488-0.486,0.63-0.631c2.839,0,5.658,0,8.415,0
			c0.223,0.225,0.387,0.387,0.589,0.591c0,0.627,0,1.295,0,2.046c-2.241,0-4.447,0-6.813,0c0,1.411,0,2.754,0,4.153
			c-0.829,0-1.498,0-2.386,0c-0.127-0.384-0.397-0.849-0.414-1.322C176.073,47.616,176.107,46.004,176.107,44.39z" />
			<path fill-rule="evenodd" fill="#6D6E71" d="M156.897,51.431c-0.976,0-1.795,0-2.738,0c-0.519-1.231-1.092-2.594-1.758-4.18
			c-0.617,1.486-1.164,2.804-1.746,4.205c-0.784,0-1.608,0-2.639,0c1.104-2.573,2.203-5.128,3.312-7.71c0.704,0,1.372,0,2.167,0
			C154.598,46.238,155.715,48.76,156.897,51.431z" />
			<path fill-rule="evenodd" fill="#6D6E71" d="M176.154,59.286c0-2.103,0-4.146,0-6.189c0.162-0.163,0.324-0.325,0.565-0.565
			c0.58,0,1.25,0,2.076,0c0,1.401,0,2.891,0,4.452c2.501,0,4.85,0,7.356,0c0.038,0.782,0.072,1.5,0.111,2.303
			C182.847,59.286,179.524,59.286,176.154,59.286z" />
			<path fill-rule="evenodd" fill="#6D6E71" d="M196.305,33.062c-0.745,0-1.412,0-2.154,0c0-4.999,0-9.958,0-15.083
			c0.636-0.027,1.354-0.06,2.154-0.096C196.305,22.938,196.305,27.897,196.305,33.062z" />
			<path fill-rule="evenodd" fill="#6D6E71" d="M310.087,57.051c0.129,0.885,0.272,1.626-0.456,2.17c-3.015,0-6.027,0.007-9.04-0.021
			c-0.163-0.002-0.324-0.303-0.509-0.49c0-1.863,0-3.753,0-5.72c0.848,0,1.67,0,2.652,0c0.021,0.571,0.058,1.227,0.069,1.885
			c0.014,0.677,0.004,1.354,0.004,2.176C305.281,57.051,307.687,57.051,310.087,57.051z" />
			<path fill-rule="evenodd" fill="#6D6E71" d="M204.749,24.305c-1.06,0-1.879,0-2.77,0c0-2.087,0-4.134,0-6.293
			c3.103,0,6.273,0,9.526,0c0,0.619,0,1.29,0,2.114c-2.17,0-4.428,0-6.757,0C204.749,21.555,204.749,22.836,204.749,24.305z" />
			<path fill-rule="evenodd" fill="#6D6E71" d="M244.001,17.899c0.685,0,1.297,0,2.137,0c1.049,2.454,2.136,4.99,3.304,7.717
			c-0.768,0.051-1.474,0.099-2.398,0.159c-0.685-1.545-1.374-3.098-2.153-4.854c-0.391,0.924-0.711,1.711-1.06,2.485
			c-0.319,0.71-0.67,1.403-1.066,2.227c-0.605,0-1.328,0-2.239,0C241.687,23.048,242.808,20.556,244.001,17.899z" />
			<path fill-rule="evenodd" fill="#6D6E71" d="M265.071,51.502c-0.975,0-1.733,0-2.607,0c-0.545-1.286-1.115-2.643-1.765-4.18
			c-0.735,1.444-1.417,2.78-2.109,4.135c-0.754,0-1.427,0-2.227,0c0.058-0.138,0.116-0.283,0.18-0.426
			c0.949-2.06,1.933-4.103,2.61-6.277c0.06-0.194,0.311-0.33,0.524-0.543c0.616,0,1.283,0,2.194,0
			C262.887,46.523,263.939,48.924,265.071,51.502z" />
			<path fill-rule="evenodd" fill="#6D6E71" d="M300.083,50.07c0-1.976,0-3.866,0-5.835c2.998,0,5.961,0,9.09,0
			c0.03,0.63,0.066,1.348,0.106,2.15c-2.138,0-4.182,0-6.388,0c0,1.249,0,2.429,0,3.685C301.916,50.07,301.098,50.07,300.083,50.07z
			" />
			<path fill-rule="evenodd" fill="#6D6E71" d="M204.681,27.191c0,1.362,0,2.643,0,3.994c2.426,0,4.777,0,7.287,0
			c0.031,0.633,0.06,1.201,0.091,1.846c-3.371,0-6.642,0-10.142,0c-0.002-0.883-0.007-1.846-0.008-2.81c-0.002-0.985,0-1.97,0-3.03
			C202.796,27.191,203.619,27.191,204.681,27.191z" />
			<path fill-rule="evenodd" fill="#6D6E71" d="M265.648,59.405c-0.771-1.867-1.469-3.553-2.254-5.457
			c0.948-0.055,1.657-0.096,2.57-0.151c0.773,1.729,1.547,3.458,2.382,5.325C267.481,59.569,266.584,59.254,265.648,59.405z" />
			<path fill-rule="evenodd" fill="#6D6E71" d="M155.212,53.872c0.983,0,1.646,0,2.518,0c0.751,1.681,1.522,3.41,2.353,5.271
			c-0.894,0.403-1.789,0.125-2.736,0.258C156.663,57.633,155.981,55.865,155.212,53.872z" />
			<path fill-rule="evenodd" fill="#6D6E71" d="M147.047,53.903c0.919,0,1.586,0,2.353,0c-0.094,2.063-1.373,3.599-1.766,5.414
			c-0.892,0-1.557,0-2.384,0C145.265,57.305,146.532,55.765,147.047,53.903z" />
			<path fill-rule="evenodd" fill="#6D6E71" d="M257.796,53.834c-0.764,1.962-1.445,3.716-2.134,5.488c-0.675,0-1.34,0-2.001,0
			c-0.046-1.207,0.778-3.67,1.862-5.488c0.27,0,0.63,0,0.989,0S257.231,53.834,257.796,53.834z" />
			<path fill-rule="evenodd" fill="#6D6E71" d="M250.771,28.572c0.583,1.461,1.156,2.896,1.762,4.412c-0.809,0-1.678,0-2.606,0
			c-0.62-1.398-1.267-2.856-1.958-4.412C248.865,28.572,249.684,28.572,250.771,28.572z" />
			<path fill-rule="evenodd" fill="#6D6E71" d="M240.015,33.063c-0.689,0-1.354,0-2.175,0c0.022-1.748,1.287-3.006,1.471-4.495
			c0.964,0,1.784,0,2.693,0C241.315,30.125,240.668,31.585,240.015,33.063z" />
		</g>
		<path fill-rule="evenodd" fill="none" stroke="#016294" stroke-width="9" stroke-miterlimit="10" d="M267.518,118.538
		c-33.22-0.397-52.18,15.762-52.18,38.272V78.649" />
		<path fill-rule="evenodd" fill="none" stroke="#016294" stroke-width="9" stroke-miterlimit="10" d="M158.351,119.453
		c31.834-0.808,56.987,13.289,56.987,38.921" />
		<polygon fill-rule="evenodd" fill="#016294" points="202.181,158.374 228.497,158.374 215.338,171.192 	" />
	</g>
</svg>
