<?xml version="1.0" encoding="utf-8"?>
<!-- Generator: Adobe Illustrator 16.0.0, SVG Export Plug-In . SVG Version: 6.00 Build 0)  -->
<!DOCTYPE svg PUBLIC "-//W3C//DTD SVG 1.1 Tiny//EN" "http://www.w3.org/Graphics/SVG/1.1/DTD/svg11-tiny.dtd">
<svg version="1.1" baseProfile="tiny" xmlns="http://www.w3.org/2000/svg" xmlns:xlink="http://www.w3.org/1999/xlink" x="0px" y="0px" width="430px" height="287px" viewBox="0 0 430 287" xml:space="preserve">
	<defs>
		<style type="text/css">@import url('https://fonts.googleapis.com/css2?family=Ubuntu:wght@300');</style>
	</defs>

	<g id="Schiphol"></g>
	<g id="C2000">
		<g>

			<path fill-rule="evenodd" fill="none" stroke="#6D6E71" stroke-width="3" stroke-linecap="round" stroke-linejoin="round" stroke-miterlimit="10" d="
			M254.972,337.001c-3.27,0-6.539,0-9.81,0c-2.029-0.418-4.052-0.873-6.09-1.244c-2.152-0.391-9.088-5.068-10.519-6.74
			c-2.626-3.071-2.521-5.577,0.51-8.426c1.793-1.687,3.359-3.966,4.17-6.279c2.102-5.995,3.565-12.21,5.588-18.235
			c1.964-5.855,1.652-7.269-3.698-9.786c-1.18-0.556-2.808-0.095-4.073-0.543c-4.725-1.674-9.918-2.666-11.446-8.774
			c-0.658-2.629-2.27-4.392-5.737-3.047c-3.372,1.307-6.987,2.175-10.573,2.689c-3.346,0.479-7.198,1.217-7.964-4.094
			c-0.121-0.845-2.061-1.38-3.085-2.155c-1.302-0.982-2.983-1.819-3.697-3.148c-1.873-3.49-5.541-6.54-3.121-11.417
			c0.349-0.706-1.243-2.949-2.424-3.605c-0.628-0.35-2.752,0.88-3.423,1.906c-3.036,4.642-6.906,6.102-12.37,4.822
			c-3.111-0.728-7.735,0.626-2.59-4.608c0.787-0.801-0.019-3.167-0.088-4.809c-1.629,0.126-3.663-0.311-4.799,0.503
			c-2.034,1.459-3.42,3.788-5.275,5.542c-3.045,2.878-9.584,1.596-10.729-2.316c-0.794-2.716-2.043-2.539-4.089-1.973
			c-5.317,1.468-6.511,3.47-4.302,9.227c1.505,3.922-0.938,5.547-3.327,4.501c-8.568-3.753-18.718-2.836-26.364-9.159
			c-2.568-2.124-4.947-3.218-7.24,0.942c-2.903,5.27-5.702,5.471-11.325,3.039c-4.055-1.754-6.853-6.4-12.432-4.978
			c-2.69,0.687-12.369-7.583-12.913-10.23c-0.462-2.249,5.542-7.219,10.185-8.428c0.225-0.059,0.481-0.19,0.676-0.131
			c5.253,1.601,7.309-2.591,10.051-5.533c-1.137,4.043,0.249,6.034,4.469,4.84c4.627-1.309,6.979,0.745,9.858,4.227
			c4.555,5.508,12.129,7.88,16.138,14.37c0.396,0.643,4.026-0.711,6.154-1.139c-0.756-1.702-1.125-3.805-2.369-4.998
			c-1.407-1.352-3.798-1.623-5.403-2.835c-2.882-2.177-5.496-4.707-8.222-7.089c2.25-1.306,4.517-2.586,6.74-3.938
			c0.434-0.265,0.698-0.809,1.043-1.223c-0.668-0.074-1.464-0.422-1.98-0.178c-4.885,2.299-9.64,2.233-13.563-1.608
			c-6.476-6.34-6.344-6.474-12.944-0.317c-4.231-8.88-4.195-8.793,5.724-12.87c1.782-0.732,4.275-2.356,4.482-3.843
			c1.005-7.141,6.557-7.492,11.414-7.378c3.947,0.092,4.102-0.667,2.679-3.63c-0.793-1.653-2.208-3.319-2.199-4.974
			c0.014-2.762,0.765-7.86,1.52-7.918c8.538-0.663,10.723-8.433,15.38-13.185c12.709-12.971,20.507-28.86,24.458-46.362
			c4.136-18.311,7.061-36.895,10.759-55.31c0.432-2.149,2.415-3.987,3.679-5.97c1.396,1.536,3.03,2.917,4.137,4.637
			c2.419,3.757,5.505,4.322,9.462,2.111c2.92-1.632,6.244-2.54,9.387-3.77c0.658,2.185,1.395,4.35,1.956,6.56
			c0.898,3.536,2.009,7.063,2.427,10.663c0.473,4.083,0.418,7.29,6.448,5.885c4.862-1.132,8.191,2.982,6.642,6.876
			c-2.37,5.96-8.232,9.366-14.695,8.538c-4.178-0.535-5.603,1.033-4.597,5.239c0.321,1.345,1.068,2.583,1.508,3.909
			c2.503,7.542,4.173,14.979-2.601,21.435c-0.712,0.679-1.002,1.801-1.486,2.718c2.423,0.654,4.823,1.481,7.292,1.819
			c0.5,0.068,1.279-1.694,1.885-2.643c1.044-1.638,1.692-3.761,3.131-4.876c10.852-8.415,21.883-16.598,32.753-24.989
			c0.787-0.608,1.416-2.678,0.989-3.414c-4.578-7.903-2.79-15.154,1.731-22.31c0.508-0.802,0.545-2.114,0.305-3.064
			c-0.087-0.342-2.004-0.762-2.457-0.387c-5.292,4.39-10.144-0.767-15.225-0.787c-2.06-0.007-4.804-2.395-3.148-5.694
			c3.922-7.82,2.915-15.225-1.629-22.401c1.314-2.189,3.647-4.326,3.762-6.576c0.443-8.665,5.794-14.022,11.903-18.757
			c3.595-2.785,7.936-4.595,11.891-6.927c13.684-8.068,28.369-11.037,44.124-8.919c1.286,0.173,2.694-0.475,4.033-0.796
			c8.565-2.06,17.1-4.272,25.712-6.118c2.412-0.518,5.056-0.032,7.588,0.097c3.952,0.202,6.194,1.604,6.602,6.264
			c0.365,4.191,1.133,8.81,5.908,11.175c3.998,1.98,9.69,1.774,10.837,7.869c0.098,0.522,1.563,0.99,2.449,1.125
			c4.415,0.675,6.29,3.447,6.579,7.63c0,0.467,0,0.935,0,1.401c-3.268,2.68-2.752,6.156-1.987,9.65
			c2.158,9.861-0.077,18.569-5.16,27.345c-3,5.182-3.541,11.85-4.852,17.921c-0.582,2.696-0.211,5.584-0.49,8.363
			c-0.294,2.93-1.573,4.618-5.05,4.162c-4.809-0.628-9.673-0.865-14.52-1.145c-4.436-0.256-6.07,2.351-5.037,6.198
			c0.637,2.37,1.012,3.651-0.921,5.911c-2.844,3.324-0.811,8.958,3.364,9.143c5.114,0.225,9.813,5.46,15.309,1.372
			c0.357-0.266,2.144,0.625,2.6,1.379c3.175,5.258,7.533,10.287,3.104,17.096c-0.821,1.263-0.759,3.745-0.092,5.199
			c1.457,3.18,0.655,4.646-2.513,5.671c-1.181,0.382-1.932,1.929-3.078,2.605c-4.985,2.939-6.725,9.739-13.686,10.691
			c-2.264,0.31-4.063,4.021-6.075,6.177c1.601,1.479,3.197,2.961,4.802,4.435c0.344,0.315,0.828,0.532,1.055,0.909
			c1.104,1.843,3.503,4.575,2.961,5.441c-1.991,3.183-5.172,8.269-7.528,8.074c-6.701-0.552-11.508,2.545-16.874,5.147
			c-3.039,1.473-6.709,3.483-9.645,2.917c-5.038-0.972-9.712-3.799-14.569-5.768c-0.507-0.205-1.23,0.125-1.853,0.207
			c2.601,6.74-1.913,4.123-5.135,4.324c-2.595,0.163-5.36,1.56-7.483,3.161c-0.75,0.566,0.144,3.359,0.343,5.128
			c0.599,5.324,3.662,9.365,6.991,13.25c0.727,0.848,2.364,1.821,2.217,2.37c-1.583,5.892,3.37,8.78,5.759,12.735
			c4.134,6.841,3.764,19.521-0.829,26.173c-2.614,3.788-4.925,7.829-6.938,11.967c-1.04,2.134-1.4,4.818,2.731,4.282
			c1.147-0.149,2.376,0.335,3.565,0.529c-0.646,1.561-0.884,3.576-2.018,4.593c-2.744,2.461-5.76,4.707-8.942,6.566
			c-2.972,1.736-3.247,8.12-8.889,5.259c-0.315,0.775-1.107,1.999-0.869,2.249c1.424,1.504,3.062,3.886,4.669,3.917
			c3.891,0.077,4.472,2.173,5.837,5.122c1.212,2.621,5.169,3.904,4.361,7.877c-0.181,0.885-0.183,2.262-0.726,2.549
			C254.396,326.811,255.55,332.221,254.972,337.001z" />

			<path fill-rule="evenodd" fill="none" stroke="#6D6E71" stroke-width="3" stroke-linecap="round" stroke-linejoin="round" stroke-miterlimit="10" d="
			M55.973,262.727c8.606-5.909,17.022-3.55,25.403,0.578c7.469,3.679,14.451,4.85,20.242-3.162c0.505-0.699,4.06-0.374,4.955,0.609
			c2.771,3.041,5.569,3.677,9.346,2.28c1.253-0.463,3.945-0.144,4.234,0.547c0.596,1.429,0.661,3.833-0.2,4.966
			c-2.079,2.733-4.411,5.82-7.371,7.228c-6.473,3.081-12.325,8.514-20.371,6.948c-1.441-0.28-3.837-1.077-3.949-1.888
			c-0.732-5.361-5.488-5.191-8.828-6.69c-4.106-1.84-8.261-3.396-10.98,2.759c-0.516,1.165-5.323,1.226-7.759,0.494
			c-1.89-0.567-3.171-3.164-4.722-4.858C55.973,269.266,55.973,265.997,55.973,262.727z" />

			<path fill-rule="evenodd" fill="none" stroke="#6D6E71" stroke-width="3" stroke-linecap="round" stroke-linejoin="round" stroke-miterlimit="10" d="
			M82.567,230.624c6.601-6.157,6.469-6.022,12.944,0.317c3.923,3.841,8.678,3.907,13.563,1.608c0.517-0.244,1.313,0.104,1.98,0.178
			c-0.345,0.415-0.609,0.958-1.043,1.223c-2.224,1.352-4.49,2.632-6.74,3.938c2.726,2.382,5.34,4.912,8.222,7.089
			c1.605,1.213,3.996,1.484,5.403,2.835c1.244,1.193,1.613,3.296,2.369,4.998c-2.128,0.428-5.758,1.782-6.154,1.139
			c-4.009-6.49-11.583-8.862-16.138-14.37c-2.879-3.482-5.231-5.536-9.858-4.227c-4.22,1.194-5.605-0.796-4.469-4.84L82.567,230.624
			z" />

			<path fill-rule="evenodd" fill="none" stroke="#6D6E71" stroke-width="3" stroke-linecap="round" stroke-linejoin="round" stroke-miterlimit="10" d="
			M155.484,60.675c3.438-5.572,6.977-11.458,10.784-17.167c0.276-0.414,2.973,0.024,3.737,0.831
			c3.362,3.555,2.926,8.016,0.788,11.663c-2.036,3.475-5.267,6.32-8.279,9.109c-0.946,0.875-3.236,1.329-4.284,0.779
			C157.128,65.313,156.774,63.303,155.484,60.675z" />

			<path fill-rule="evenodd" fill="none" stroke="#6D6E71" stroke-width="3" stroke-linecap="round" stroke-linejoin="round" stroke-miterlimit="10" d="
			M220.645,9.233c-1.441,1.532-1.914,2.448-2.642,2.745c-8.323,3.398-16.671,6.739-25.093,9.884c-0.31,0.117-2.227-2.629-2.04-2.839
			c1.492-1.682,3.08-3.751,5.073-4.431c6.369-2.175,12.906-3.875,19.427-5.579C216.691,8.668,218.217,9.104,220.645,9.233z" />

			<path fill-rule="evenodd" fill="none" stroke="#6D6E71" stroke-width="3" stroke-linecap="round" stroke-linejoin="round" stroke-miterlimit="10" d="
			M228.875,7.299c6.021-0.324,12.04-0.705,18.064-0.909c0.926-0.031,1.879,0.752,2.818,1.159c-0.724,0.473-1.394,1.212-2.182,1.376
			c-6.127,1.275-12.247,2.669-18.441,3.443c-1.232,0.154-2.776-2.198-4.178-3.395c1.013-1.081,2.025-2.161,3.037-3.24
			C228.287,6.255,228.58,6.777,228.875,7.299z" />

			<path fill-rule="evenodd" fill="none" stroke="#6D6E71" stroke-width="3" stroke-linecap="round" stroke-linejoin="round" stroke-miterlimit="10" d="
			M273.598,1.512c0.593,0.085,2.606,0.374,4.619,0.662c-1.773,1.208-3.42,2.723-5.358,3.536c-1.876,0.786-4.041,0.96-6.104,1.19
			c-1.324,0.147-2.689-0.091-4.037-0.157c1.055-1.585,1.774-3.827,3.253-4.583C267.675,1.29,270.051,1.731,273.598,1.512z" />

			<path fill-rule="evenodd" fill="none" stroke="#6D6E71" stroke-width="3" stroke-linecap="round" stroke-linejoin="round" stroke-miterlimit="10" d="
			M185.585,27.243c-0.408,0.853-0.489,1.358-0.784,1.586c-3.398,2.625-6.726,5.367-10.313,7.71c-1.109,0.725-2.946,0.334-4.45,0.454
			c0.759-1.001,1.345-2.23,2.308-2.962c3.268-2.48,6.609-4.875,10.066-7.077C183.082,26.527,184.396,27.107,185.585,27.243z" />
		</g>
		<g>

			<polyline fill="none" stroke="#016294" stroke-width="3" stroke-linecap="round" stroke-linejoin="round" stroke-miterlimit="10" points="
			148.157,203.388 160.476,176.057 172.795,203.724 		" />

			<polyline fill="none" stroke="#016294" stroke-width="3" stroke-linecap="round" stroke-linejoin="round" stroke-miterlimit="10" points="
			150.792,197.542 167.145,191.037 155.679,186.7 		" />
			<circle fill="#016294" cx="160.476" cy="171.682" r="5.722" />
			<path fill="none" stroke="#016294" stroke-width="3" stroke-linecap="round" stroke-linejoin="round" stroke-miterlimit="10" d="
			M168.479,178.563c1.599-1.852,2.566-4.264,2.566-6.903c0-2.672-0.993-5.113-2.628-6.975" />
			<path fill="none" stroke="#016294" stroke-width="3" stroke-linecap="round" stroke-linejoin="round" stroke-miterlimit="10" d="
			M152.335,164.919c-1.517,1.83-2.429,4.179-2.429,6.741c0,2.639,0.967,5.051,2.566,6.903" />
			<path fill="none" stroke="#016294" stroke-width="3" stroke-linecap="round" stroke-linejoin="round" stroke-miterlimit="10" d="
			M173.604,183.006c2.622-3.038,4.208-6.995,4.208-11.323c0-4.383-1.627-8.387-4.31-11.439" />
			<path fill="none" stroke="#016294" stroke-width="3" stroke-linecap="round" stroke-linejoin="round" stroke-miterlimit="10" d="
			M147.123,160.625c-2.489,3.001-3.983,6.855-3.983,11.058c0,4.328,1.585,8.286,4.207,11.323" />
		</g>
		<g>

			<polyline fill="none" stroke="#016294" stroke-width="3" stroke-linecap="round" stroke-linejoin="round" stroke-miterlimit="10" points="
			252.899,200.836 265.218,173.505 277.538,201.172 		" />

			<polyline fill="none" stroke="#016294" stroke-width="3" stroke-linecap="round" stroke-linejoin="round" stroke-miterlimit="10" points="
			255.534,194.99 271.889,188.484 260.421,184.148 		" />
			<circle fill="#016294" cx="265.218" cy="169.13" r="5.722" />
			<path fill="none" stroke="#016294" stroke-width="3" stroke-linecap="round" stroke-linejoin="round" stroke-miterlimit="10" d="
			M273.221,176.012c1.6-1.852,2.566-4.264,2.566-6.903c0-2.672-0.992-5.113-2.628-6.975" />
			<path fill="none" stroke="#016294" stroke-width="3" stroke-linecap="round" stroke-linejoin="round" stroke-miterlimit="10" d="
			M257.077,162.368c-1.516,1.83-2.428,4.179-2.428,6.741c0,2.639,0.967,5.051,2.565,6.903" />
			<path fill="none" stroke="#016294" stroke-width="3" stroke-linecap="round" stroke-linejoin="round" stroke-miterlimit="10" d="
			M278.347,180.455c2.622-3.038,4.207-6.995,4.207-11.323c0-4.383-1.626-8.387-4.31-11.439" />
			<path fill="none" stroke="#016294" stroke-width="3" stroke-linecap="round" stroke-linejoin="round" stroke-miterlimit="10" d="
			M251.865,158.074c-2.488,3.001-3.983,6.855-3.983,11.058c0,4.328,1.586,8.286,4.208,11.323" />
		</g>
		<g>

			<polyline fill="none" stroke="#016294" stroke-width="3" stroke-linecap="round" stroke-linejoin="round" stroke-miterlimit="10" points="
			245.369,95.807 257.688,68.477 270.007,96.144 		" />

			<polyline fill="none" stroke="#016294" stroke-width="3" stroke-linecap="round" stroke-linejoin="round" stroke-miterlimit="10" points="
			248.004,89.961 264.357,83.456 252.891,79.119 		" />
			<circle fill="#016294" cx="257.688" cy="64.101" r="5.722" />
			<path fill="none" stroke="#016294" stroke-width="3" stroke-linecap="round" stroke-linejoin="round" stroke-miterlimit="10" d="
			M265.69,70.982c1.6-1.852,2.566-4.264,2.566-6.903c0-2.672-0.992-5.113-2.628-6.974" />
			<path fill="none" stroke="#016294" stroke-width="3" stroke-linecap="round" stroke-linejoin="round" stroke-miterlimit="10" d="
			M249.547,57.339c-1.516,1.83-2.429,4.179-2.429,6.741c0,2.639,0.968,5.051,2.566,6.903" />
			<path fill="none" stroke="#016294" stroke-width="3" stroke-linecap="round" stroke-linejoin="round" stroke-miterlimit="10" d="
			M270.816,75.425c2.622-3.038,4.208-6.995,4.208-11.323c0-4.383-1.628-8.387-4.311-11.439" />
			<path fill="none" stroke="#016294" stroke-width="3" stroke-linecap="round" stroke-linejoin="round" stroke-miterlimit="10" d="
			M244.335,53.045c-2.488,3-3.983,6.855-3.983,11.057c0,4.328,1.586,8.286,4.208,11.323" />
		</g>

		<circle fill="none" stroke="#FBCB21" stroke-width="4" stroke-linecap="round" stroke-linejoin="round" stroke-miterlimit="10" cx="166.714" cy="184.743" r="67.234" />

		<circle fill="none" stroke="#FBCB21" stroke-width="3" stroke-linecap="round" stroke-linejoin="round" stroke-miterlimit="10" cx="267.468" cy="182.7" r="67.234" />

		<circle fill="none" stroke="#FBCB21" stroke-width="4" stroke-linecap="round" stroke-linejoin="round" stroke-miterlimit="10" cx="256.181" cy="75.426" r="67.234" />
	</g>
	<g id="Drone_Himalia"></g>
	<g id="Boring"></g>
	<g id="Layer_5"></g>
	<g id="Layer_6"></g>
</svg>
