<?xml version="1.0" encoding="utf-8"?>
<!-- Generator: Adobe Illustrator 16.0.0, SVG Export Plug-In . SVG Version: 6.00 Build 0)  -->
<!DOCTYPE svg PUBLIC "-//W3C//DTD SVG 1.1 Tiny//EN" "http://www.w3.org/Graphics/SVG/1.1/DTD/svg11-tiny.dtd">
<svg version="1.1" baseProfile="tiny" xmlns="http://www.w3.org/2000/svg" xmlns:xlink="http://www.w3.org/1999/xlink" x="0px" y="0px" width="430px" height="287px" viewBox="0 0 430 287" xml:space="preserve">
	<defs>
		<style type="text/css">@import url('https://fonts.googleapis.com/css2?family=Ubuntu:wght@300');</style>
	</defs>

	<g id="Schiphol"></g>
	<g id="C2000"></g>
	<g id="Drone_Himalia">

		<path fill-rule="evenodd" fill="none" stroke="#6D6E71" stroke-width="4" stroke-linecap="round" stroke-linejoin="round" stroke-miterlimit="10" d="
		M143.081,42.165c5.925,3.407,11.572,7.036,17.567,9.951c3.432,1.669,7.405,2.27,11.175,3.189
		c8.638,2.105,17.315,4.054,25.942,6.207c1.783,0.445,2.933,0.094,4.309-1.067c8.194-6.917,16.529-13.667,24.696-20.614
		c1.517-1.29,2.605-3.149,3.684-4.877c4.826-7.73,9.575-15.508,14.356-23.265c0.226-0.366,0.509-0.698,0.903-1.233
		c5.178,2.883,10.549,5.125,14.46,10.034c6.952,8.726,14.377,17.073,21.612,25.574c10.806,12.696,21.617,25.388,32.43,38.079
		c0.521,0.611,1.078,1.191,1.65,1.821c5.395-3.283,10.765-6.471,16.039-9.813c1.368-0.867,2.159-0.929,3.337,0.307
		c8.991,9.431,18.065,18.782,27.092,28.179c6.324,6.582,12.611,13.199,18.919,19.795c3.461,3.619,7.231,6.995,10.309,10.914
		c2.792,3.556,4.86,7.685,7.202,11.589c1.979,3.302,3.894,6.643,5.683,10.088c-17.532-14.183-33.57-30.088-51.482-43.75
		c-0.208,0.184-0.415,0.369-0.622,0.553c0.403,0.781,0.779,1.577,1.212,2.34c4.068,7.153,8.225,14.259,12.167,21.48
		c1.045,1.914,1.443,4.18,2.138,6.285c-0.221,0.108-0.442,0.216-0.663,0.325c-0.471-0.411-0.969-0.795-1.408-1.237
		c-8.167-8.204-16.349-16.392-24.452-24.657c-0.812-0.828-1.383-2.077-1.647-3.227c-1.066-4.654-1.968-9.345-3.063-14.659
		c-1.126,2.559-2.028,4.61-2.931,6.662c-0.173-0.024-0.347-0.047-0.52-0.071c0-9.012-0.074-10.104-0.074-19.103
		c-2.289,2.314-3.557,1.751-5.611,3.829c-0.217-0.092-0.822,2.765-0.558,2.821c3.005,0.636,3.057,0.637,2.75,3.756
		c-0.626,6.366-0.822,4.887-2.023,11.146c-1.143,5.954-3.287,11.716-5.19,18.25c-6.783-9.629-13.254-18.815-19.925-28.284
		c-3.427,4.615-6.762,9.108-10.136,13.653c-4.256-2.046-8.376-3.983-12.441-6.029c-0.637-0.32-1.184-1.063-1.5-1.737
		c-5.385-11.51-10.726-23.042-16.086-34.564c-0.245-0.528-0.575-1.017-0.904-1.594c-5.188,3.962-10.311,7.874-15.804,12.068
		c1.323-16.234,2.608-32.006,3.937-48.308c-2.135,1.784-3.93,3.283-6.128,5.12c0.542-5.057,1.032-9.631,1.522-14.206
		c-0.131-0.038-0.263-0.075-0.394-0.113c-2.945,5.89-6.062,11.702-8.76,17.703c-1.274,2.835-3.372,4.783-5.461,6.808
		c-6.503,6.304-13.148,12.462-19.621,18.799c-15.69,15.361-31.313,30.791-46.967,46.19c-0.334,0.329-0.718,0.608-1.423,0.664
		c5.092-9.289,10.184-18.577,15.275-27.865c-0.108-0.114-0.215-0.228-0.323-0.342c-8.953,6.069-17.906,12.139-26.859,18.208
		c-0.153-0.07-0.307-0.139-0.46-0.209c3.378-11.441,6.756-22.883,10.272-34.79c-7.667,2.693-14.956,5.252-22.802,8.009
		c2.114-6.59,4.1-12.781,6.085-18.972c-0.095-0.05-0.19-0.1-0.285-0.15c-30.803,31.009-61.607,62.02-92.411,93.029
		c2.283-5.505,3.993-11.139,8.185-15.663c10.641-11.485,20.989-23.242,31.474-34.872c6.247-6.93,12.548-13.81,18.791-20.744
		c8.557-9.503,17.074-19.044,25.625-28.553C137.596,48.078,140.303,45.186,143.081,42.165z" />
		<path fill="#FBCB21" d="M232.561,94.068c0,0-0.157,0.182-0.462,0.535c-0.315,0.367-0.7,0.846-1.194,1.583
		c-0.995,1.43-2.207,3.715-3.308,6.82c-1.105,3.106-2.106,7.017-3.085,11.571c-0.935,4.597-1.99,9.782-3.14,15.439
		c-1.212,5.677-2.649,11.841-4.591,18.282c-1.926,6.443-4.407,13.145-7.533,19.856c-3.125,6.707-6.888,13.437-11.376,19.834
		c-4.461,6.414-9.552,12.547-15.078,18.247c-1.382,1.425-2.785,2.83-4.211,4.207c-1.349,1.343-2.695,2.684-4.04,4.023
		c-1.332,1.358-2.534,2.695-3.799,4.034c-1.241,1.348-2.434,2.766-3.645,4.134c-4.746,5.574-8.896,11.32-12.464,17.033
		c-1.76,2.872-3.362,5.75-4.838,8.638c-1.455,2.899-2.766,5.829-4.02,8.785c-1.274,3.052-2.514,6.021-3.712,8.892
		c-1.29,2.937-2.659,5.838-4.203,8.518c-3.015,5.425-6.715,9.856-10.213,13.316c-3.521,3.469-6.896,6.046-9.741,8.012
		c-1.387,1.03-2.737,1.792-3.854,2.52c-1.118,0.729-2.118,1.271-2.921,1.72c-1.603,0.901-2.469,1.354-2.468,1.354l-0.726-0.956
		c0,0,0.655-0.717,1.882-2.061c1.244-1.314,3.021-3.284,5.205-5.79c0.537-0.631,1.103-1.297,1.696-1.995
		c0.595-0.692,1.151-1.471,1.774-2.237c0.308-0.385,0.622-0.778,0.942-1.178c0.3-0.413,0.606-0.834,0.918-1.263
		c0.625-0.853,1.288-1.718,1.891-2.664c2.516-3.716,4.969-8,6.927-13.007c2.023-4.972,3.534-10.779,5.672-17.275
		c1.067-3.234,2.292-6.613,3.822-9.984c1.521-3.376,3.348-6.716,5.38-9.981c4.167-6.467,9.252-12.502,14.835-18.008
		c1.416-1.36,2.793-2.746,4.252-4.09c1.462-1.327,2.938-2.722,4.394-3.993c1.46-1.273,2.924-2.548,4.388-3.824
		c1.413-1.214,2.809-2.449,4.179-3.713c5.461-5.073,10.529-10.566,15.032-16.365c4.496-5.803,8.481-11.871,11.844-18.046
		c3.386-6.166,6.125-12.435,8.448-18.512c2.319-6.082,4.155-11.998,5.751-17.513c1.589-5.519,2.974-10.633,4.322-15.163
		c1.343-4.528,2.699-8.464,4.142-11.595c1.429-3.136,2.922-5.45,4.117-6.884c0.573-0.716,1.11-1.274,1.43-1.586
		c0.334-0.325,0.507-0.493,0.507-0.493L232.561,94.068z" />
		<path fill="#FBCB21" d="M239.043,93.833c0,0-0.045,0.26-0.132,0.765c-0.073,0.489-0.148,1.177-0.208,2.149
		c-0.107,1.922-0.063,4.784,0.188,8.446c0.242,3.662,0.662,8.122,1.09,13.262c0.432,5.14,0.906,10.96,1.205,17.349
		c0.279,6.388,0.394,13.345,0.093,20.734c-0.289,7.388-1.041,15.209-2.535,23.244c-1.49,8.028-3.699,16.288-6.956,24.386
		c-3.293,8.073-7.622,15.969-12.965,23.191c-2.664,3.615-5.585,7.049-8.685,10.292c-0.76,0.827-1.576,1.593-2.362,2.391l-2.225,2.22
		c-1.455,1.468-2.733,2.87-4.095,4.368c-5.336,5.909-9.902,12.127-13.587,18.279c-3.726,6.157-6.534,12.223-8.766,18.535
		c-2.285,6.273-3.967,13.026-6.583,19.447c-1.302,3.187-2.788,6.253-4.49,8.986c-1.667,2.755-3.538,5.172-5.386,7.295
		c-3.749,4.227-7.532,7.177-10.703,9.392c-1.601,1.092-3.058,2.003-4.354,2.743c-1.29,0.748-2.386,1.363-3.306,1.817
		c-1.824,0.926-2.821,1.363-2.821,1.363l-0.967-1.274c0,0,0.683-0.825,1.964-2.371c1.281-1.526,3.117-3.792,5.291-6.68
		c2.144-2.903,4.625-6.45,6.782-10.668c2.188-4.223,3.952-9.016,5.167-14.692c0.639-2.841,1.16-5.922,1.775-9.279
		c0.582-3.358,1.319-6.972,2.28-10.766c0.994-3.782,2.305-7.711,4.032-11.565c1.735-3.85,3.842-7.633,6.298-11.2
		c2.471-3.559,5.197-6.961,8.167-10.138c2.944-3.201,6.067-6.234,9.287-9.15c3.194-2.917,6.753-5.797,9.518-8.309
		c2.905-2.648,5.626-5.521,8.166-8.556c5.08-6.074,9.36-12.858,12.781-19.991c3.458-7.119,6.08-14.577,8.018-22
		c1.938-7.427,3.213-14.815,4.09-21.892c0.867-7.081,1.308-13.855,1.543-20.133c0.252-6.279,0.309-12.066,0.333-17.21
		c0.015-5.144,0.035-9.649,0.162-13.376c0.112-3.725,0.355-6.675,0.667-8.691c0.159-0.996,0.331-1.806,0.462-2.318
		c0.137-0.494,0.207-0.748,0.207-0.748L239.043,93.833z" />
		<path fill="#FBCB21" d="M235.884,94.061c0,0-0.115,0.224-0.339,0.658c-0.215,0.438-0.455,1.008-0.755,1.875
		c-0.577,1.705-1.138,4.337-1.462,7.782c-0.335,3.443-0.481,7.679-0.586,12.571c-0.104,4.893-0.135,10.445-0.363,16.534
		c-0.24,6.086-0.647,12.713-1.516,19.727c-0.855,7.013-2.218,14.407-4.324,21.939c-2.118,7.52-4.95,15.2-8.774,22.597
		c-3.815,7.397-8.562,14.512-14.046,21.02c-1.37,1.628-2.788,3.215-4.24,4.769c-0.734,0.767-1.454,1.552-2.203,2.304l-2.173,2.175
		c-1.417,1.418-2.824,2.852-4.2,4.29c-1.27,1.404-2.535,2.803-3.796,4.197c-2.478,2.886-4.878,5.771-7.043,8.718
		c-2.25,2.893-4.205,5.867-6.138,8.75c-1.869,2.914-3.598,5.804-5.181,8.699c-1.589,2.893-2.989,5.824-4.353,8.792
		c-2.685,5.915-5.107,12.25-8.337,18.047c-3.208,5.787-7.104,10.648-10.917,14.28c-3.821,3.655-7.453,6.335-10.552,8.298
		c-1.515,1.031-2.962,1.801-4.187,2.508c-1.219,0.713-2.287,1.262-3.168,1.685c-1.742,0.869-2.685,1.295-2.685,1.295l-0.967-1.274
		c0,0,0.641-0.816,1.867-2.278c1.235-1.449,3.008-3.605,5.148-6.341c2.172-2.706,4.615-6.092,7.034-10.009
		c2.442-3.923,4.614-8.432,6.403-13.647c1.847-5.178,3.241-11.398,5.618-18.36c1.173-3.467,2.603-7.067,4.371-10.62
		c1.777-3.547,3.873-7.027,6.207-10.384c1.224-1.625,2.403-3.32,3.747-4.868c0.656-0.788,1.314-1.579,1.975-2.372
		c0.683-0.766,1.367-1.534,2.069-2.289c2.795-3.035,5.764-5.899,8.784-8.721c1.556-1.394,3.118-2.793,4.685-4.197
		c1.537-1.288,3.063-2.578,4.58-3.894l2.232-1.929c0.717-0.621,1.404-1.272,2.11-1.908c1.384-1.298,2.738-2.632,4.053-4.003
		c5.26-5.486,9.917-11.565,13.795-18.028c3.888-6.457,7.106-13.236,9.605-20.085c2.511-6.847,4.331-13.734,5.764-20.364
		c1.42-6.637,2.383-13.034,3.142-18.981c0.766-5.948,1.352-11.451,1.922-16.348c0.563-4.897,1.157-9.19,1.894-12.712
		c0.714-3.524,1.604-6.268,2.436-8.066c0.408-0.881,0.816-1.608,1.08-2.019c0.268-0.408,0.407-0.618,0.407-0.618L235.884,94.061z" />
		<path fill="#FBCB21" d="M232.454,89.852c0,0-0.219,0.113-0.644,0.333c-0.221,0.107-0.473,0.248-0.742,0.422
		c-0.279,0.167-0.601,0.363-0.962,0.625c-1.451,0.992-3.418,2.715-5.467,5.351c-2.055,2.629-4.2,6.125-6.392,10.32
		c-2.193,4.196-4.425,9.094-6.822,14.487c-2.414,5.386-4.987,11.275-7.854,17.477c-2.855,6.207-6.043,12.708-9.646,19.311
		c-3.599,6.603-7.601,13.317-12.09,19.901c-4.514,6.562-9.492,13-14.883,19.113c-2.69,3.061-5.498,6.024-8.362,8.917
		c-1.405,1.4-2.809,2.797-4.207,4.19c-1.301,1.358-2.522,2.688-3.773,4.087c-4.938,5.533-9.148,11.34-12.455,17.011
		c-3.332,5.696-5.698,11.157-7.283,16.953c-0.847,2.895-1.442,5.917-2.14,9.047c-0.66,3.128-1.409,6.38-2.419,9.554
		c-1.026,3.164-2.313,6.225-3.879,8.909c-1.536,2.706-3.299,5.041-5.066,7.045c-3.579,3.99-7.155,6.718-10.169,8.735
		c-1.508,1.011-2.89,1.838-4.115,2.51c-1.213,0.688-2.254,1.241-3.119,1.66c-1.722,0.84-2.661,1.238-2.661,1.238l-0.967-1.274
		c0,0,0.628-0.799,1.812-2.244c0.581-0.725,1.296-1.618,2.138-2.669c0.418-0.521,0.853-1.092,1.306-1.705
		c0.471-0.595,0.949-1.241,1.448-1.923c2.001-2.709,4.28-6.054,6.212-9.95c1.971-3.913,3.366-8.251,3.994-13.408
		c0.357-2.584,0.524-5.435,0.777-8.617c0.217-3.179,0.574-6.689,1.213-10.41c0.674-3.708,1.706-7.602,3.246-11.368
		c1.513-3.778,3.471-7.437,5.763-10.848c4.595-6.844,10.362-12.741,16.383-18.193c1.492-1.349,3.077-2.724,4.627-4.041
		c1.475-1.257,2.955-2.518,4.437-3.781c2.865-2.484,5.636-5.103,8.341-7.794c5.406-5.391,10.479-11.147,15.161-17.097
		c4.712-5.928,9.066-12.03,13.031-18.135c7.924-12.219,14.478-24.302,20.24-34.688c2.907-5.181,5.657-9.924,8.323-14.024
		c2.654-4.105,5.285-7.538,7.781-10.104c2.483-2.579,4.834-4.243,6.542-5.16c0.833-0.46,1.589-0.8,2.008-0.955
		c0.446-0.174,0.676-0.264,0.676-0.264L232.454,89.852z" />
		<path fill-rule="evenodd" fill="#016294" d="M358.231,278.329c-3.059-1.228-5.712-2.738-8.559-3.343
		c-5.938-1.26-10.923-4.537-16.222-7.107c-8.902-4.318-17.629-8.998-26.433-13.52c-6.809-3.497-13.617-6.99-20.433-10.472
		c-2.105-1.076-3.624-2.635-4.92-4.664c-2.409-3.773-5.153-7.331-7.757-10.979c-0.229-0.32-0.492-0.623-0.68-0.965
		c-1.371-2.498-1.917-2.473-4.071-0.505c-1.933,1.767-4.101,3.275-6.173,4.888c-0.306,0.239-0.831,0.356-0.95,0.652
		c-0.747,1.852-1.394,3.742-2.105,5.608c-0.137,0.36-0.412,0.668-0.622,1c-0.186-0.284-0.41-0.551-0.549-0.856
		c-0.39-0.859-0.736-1.738-1.118-2.601c-0.079-0.176-0.338-0.314-0.344-0.476c-0.13-3.9-4.218-4.201-6.016-6.592
		c-0.654-0.87-1.681-1.451-2.479-2.224c-0.976-0.943-1.654-1.027-2.494,0.269c-2.895,4.469-6.034,8.785-8.8,13.33
		c-1.311,2.154-3.047,3.6-5.134,4.741c-8.788,4.807-17.6,9.573-26.406,14.346c-7.12,3.859-14.251,7.696-21.365,11.567
		c-2.308,1.255-4.486,2.788-6.88,3.833c-2.865,1.25-5.92,2.061-8.852,3.17c-1.28,0.485-2.465,1.224-3.677,1.878
		c-0.905,0.488-1.623,0.619-1.851-0.689c-0.405-2.315-0.96-4.614-1.211-6.945c-0.422-3.917-0.579-7.86-0.989-11.778
		c-0.469-4.49,1.394-8.378,3.095-12.267c1.662-3.797,3.304-7.693,5.631-11.081c1.768-2.573,4.408-4.68,6.989-6.538
		c8.103-5.833,16.37-11.439,24.557-17.155c5.062-3.533,10.1-7.096,15.137-10.663c5.52-3.909,11.235-7.579,16.475-11.833
		c4.875-3.959,9.188-8.458,11.819-14.502c2.191-5.036,5.26-9.785,11.063-11.562c1.344-0.412,2.894-0.724,4.234-0.472
		c4.504,0.847,7.912,3.598,10.38,7.289c1.981,2.961,3.154,6.476,5.217,9.367c1.844,2.583,4.123,5.067,6.713,6.872
		c14.393,10.026,28.888,19.907,43.455,29.679c6.705,4.498,13.725,8.526,20.44,13.011c1.781,1.19,3.311,3.091,4.35,4.997
		c3.077,5.651,6.245,11.314,8.575,17.286c1.135,2.91,0.637,6.52,0.595,9.808c-0.037,2.947-0.426,5.893-0.728,8.832
		C358.888,273.41,358.541,275.847,358.231,278.329z" />
	</g>
	<g id="Boring">
		<rect x="281.207" y="173.907" fill="none" width="71.034" height="45.194" />
		<text transform="matrix(1 0 0 1 300.2251 187.4492)" font-family="'Ubuntu'" font-size="19.0739">U</text>
		<text transform="matrix(1 0 0 1 311.9175 187.4492)" font-family="'Ubuntu'" font-size="19.0739">A</text>
		<text transform="matrix(1 0 0 1 322.5796 187.4492)" font-family="'Ubuntu'" font-size="19.0739">V</text>
	</g>
	<g id="Layer_5"></g>
	<g id="Layer_6"></g>
</svg>
