<?xml version="1.0" encoding="utf-8"?>
<!-- Generator: Adobe Illustrator 16.0.0, SVG Export Plug-In . SVG Version: 6.00 Build 0)  -->
<!DOCTYPE svg PUBLIC "-//W3C//DTD SVG 1.1 Tiny//EN" "http://www.w3.org/Graphics/SVG/1.1/DTD/svg11-tiny.dtd">
<svg version="1.1" baseProfile="tiny" xmlns="http://www.w3.org/2000/svg" xmlns:xlink="http://www.w3.org/1999/xlink" x="0px" y="0px" width="430px" height="287px" viewBox="0 0 430 287" xml:space="preserve">
	<defs>
		<style type="text/css">@import url('https://fonts.googleapis.com/css2?family=Ubuntu:wght@300');</style>
	</defs>

	<g id="Schiphol"></g>
	<g id="C2000"></g>
	<g id="Drone_Himalia"></g>
	<g id="Boring"></g>
	<g id="Layer_5">

		<ellipse fill="none" stroke="#016294" stroke-width="5" stroke-linecap="round" stroke-miterlimit="10" stroke-dasharray="0,10" cx="216.335" cy="80.574" rx="43.356" ry="46.471" />
		<polygon fill-rule="evenodd" fill="#FFFFFF" points="280.129,109.271 160.912,109.271 160.912,54.504 279.242,59.458 	" />
		<polyline fill-rule="evenodd" fill="#FFFFFF" points="168.302,93.938 188.025,93.938 198.331,80.194 208.548,93.938 
		227.193,93.938 237.063,80.449 247.698,93.994 265.967,94.007 266.596,92.854 247.534,67.143 228.396,67.143 218.396,80.449 
		207.954,67.333 189.172,67.424 	" />
		<path fill="none" stroke="#6D6E71" stroke-width="3" stroke-linecap="round" stroke-linejoin="round" stroke-miterlimit="10" d="
		M293.917,153.497c0,22-18,40-40,40h-71.395c-22,0-40-18-40-40V59.796c0-22,18-40,40-40h71.395c22,0,40,18,40,40V153.497z" />
		<rect x="142.522" y="137.022" fill="#6D6E71" width="151.395" height="29.332" />
		<rect x="125.063" y="137.245" fill="none" width="186.312" height="29.265" />
		<text transform="matrix(0.933 0 0 0.78 152.1851 158.543)" fill="#FFFFFF" font-family="'Ubuntu'" font-size="29.9976">C</text>
		<text transform="matrix(0.933 0 0 0.78 170.0962 158.543)" fill="#FFFFFF" font-family="'Ubuntu'" font-size="29.9976">E</text>
		<text transform="matrix(0.933 0 0 0.78 185.5444 158.543)" fill="#FFFFFF" font-family="'Ubuntu'" font-size="29.9976">R</text>
		<text transform="matrix(0.933 0 0 0.78 202.5317 158.543)" fill="#FFFFFF" font-family="'Ubuntu'" font-size="29.9976">T</text>
		<text transform="matrix(0.933 0 0 0.78 218.1201 158.543)" fill="#FFFFFF" font-family="'Ubuntu'" font-size="29.9976">I</text>
		<text transform="matrix(0.933 0 0 0.78 226.4883 158.543)" fill="#FFFFFF" font-family="'Ubuntu'" font-size="29.9976">F</text>
		<text transform="matrix(0.933 0 0 0.78 241.7969 158.543)" fill="#FFFFFF" font-family="'Ubuntu'" font-size="29.9976">I</text>
		<text transform="matrix(0.933 0 0 0.78 250.165 158.543)" fill="#FFFFFF" font-family="'Ubuntu'" font-size="29.9976">E</text>
		<text transform="matrix(0.933 0 0 0.78 265.6133 158.543)" fill="#FFFFFF" font-family="'Ubuntu'" font-size="29.9976">D</text>
		<rect x="125.063" y="169.244" fill="none" width="186.312" height="29.264" />
		<text transform="matrix(0.933 0 0 1 184.0522 187.3447)" font-family="'Ubuntu'" font-size="25.4937">T</text>
		<text transform="matrix(0.933 0 0 1 194.8027 187.3447)" font-family="'Ubuntu'" font-size="25.4937">r</text>
		<text transform="matrix(0.933 0 0 1 202.4614 187.3447)" font-family="'Ubuntu'" font-size="25.4937">a</text>
		<text transform="matrix(0.933 0 0 1 213.9253 187.3447)" font-family="'Ubuntu'" font-size="25.4937">i</text>
		<text transform="matrix(0.933 0 0 1 219.4907 187.3447)" font-family="'Ubuntu'" font-size="25.4937">n</text>
		<text transform="matrix(0.933 0 0 1 232.6909 187.3447)" font-family="'Ubuntu'" font-size="25.4937">e</text>
		<text transform="matrix(0.933 0 0 1 244.6069 187.3447)" font-family="'Ubuntu'" font-size="25.4937">r</text>
		<g>
			<path fill-rule="evenodd" fill="#016294" d="M252.839,67.316c5.739,0,11.478,0,17.317,0c1.756,2.38,3.359,4.554,5.528,7.491
			c-4.102,0-7.366,0-10.631,0c-0.089,0.813-0.178,1.626-0.267,2.438c4.513,0.3,9.025,0.6,13.88,0.922
			c0.802,1.173,1.739,2.541,3.274,4.784c-4.178,0-7.575,0-10.972,0c-0.021,0.604-0.04,1.206-0.059,1.811c4.457,0,8.914,0,12.898,0
			c2.504,3.1,4.29,5.31,6.537,8.092c-8.118,0-15.535,0-23.749,0c-6.098-8.227-12.581-16.969-19.062-25.712l-0.066,0.039
			c0.632,0.022,1.263,0.045,1.895,0.067C250.522,67.272,251.682,67.295,252.839,67.316z" />
			<path fill-rule="evenodd" fill="#016294" d="M180.875,77.741c-1.101,1.796-2.202,3.592-3.254,5.31c-4.406,0-8.368,0-12.599,0
			c-2.643,3.295-5.308,6.616-7.964,9.926c-3.448,0-6.773,0-10.964,0c6.724-8.812,12.998-17.036,19.61-25.704
			c5.035,0,10.17,0,15.307,0c0.595,0.006,1.189,0.014,1.785,0.019c0.878-0.005,1.758-0.01,2.637-0.016
			c0.596,0,1.191,0.002,1.787,0.003c0.651,0.048,1.302,0.097,1.953,0.146c-2.103,2.705-4.205,5.407-6.308,8.111
			c-4.633-0.002-9.265-0.002-13.897-0.002c0.045,0.737,0.091,1.474,0.136,2.208C173.026,77.741,176.951,77.741,180.875,77.741z" />
			<polygon fill-rule="evenodd" fill="#016294" points="168.302,93.938 178.751,106.302 198.331,80.194 217.943,106.575 
			237.299,80.127 256.953,106.332 265.967,94.007 		" />
			<polygon fill-rule="evenodd" fill="#016294" points="189.172,67.424 198.012,54.844 218.396,80.449 237.893,54.504 
			247.534,67.143 		" />
		</g>
	</g>
	<g id="Layer_6"></g>
</svg>
