<?xml version="1.0" encoding="utf-8"?>
<!-- Generator: Adobe Illustrator 16.0.0, SVG Export Plug-In . SVG Version: 6.00 Build 0)  -->
<!DOCTYPE svg PUBLIC "-//W3C//DTD SVG 1.1//EN" "http://www.w3.org/Graphics/SVG/1.1/DTD/svg11.dtd">
<svg version="1.1" id="Layer_1" xmlns="http://www.w3.org/2000/svg" xmlns:xlink="http://www.w3.org/1999/xlink" x="0px" y="0px"
	 width="750px" height="750px" viewBox="1647.446 2.93 750 750" enable-background="new 1647.446 2.93 750 750"
	 xml:space="preserve">
<path fill="#E5C5A8" d="M1797.18,606.459c2.619,3.84,5.25,7.68,7.869,11.521c1.58,1.719,3.17,3.439,4.75,5.17
	c1.801,1.979,3.602,3.959,5.4,5.939l0.08,0.039c5.98,5.721,11.951,11.451,17.93,17.17c4.451,4.021,8.91,8.041,13.361,12.051
	c2.229,1.709,4.459,3.42,6.689,5.141c0.75,0.109,1.68-0.041,2.221,0.379c10.289,7.9,21.34,14.439,32.5,20.791
	c6.529,3.68,12.869,7.85,19.658,10.869c4.49,2,9.631,2.34,14.471,3.42c7.371,2.961,14.73,5.93,22.1,8.891
	c5.66,1.41,11.311,2.82,16.971,4.219c6.141,1.211,12.27,2.42,18.41,3.631c27.699,0,55.4,0,83.09,0c8.91-1.82,17.82-3.65,26.73-5.471
	c6.129-1.83,12.26-3.66,18.389-5.479c6.17-2.301,12.34-4.611,18.521-6.91c1.6-0.551,3.189-1.1,4.789-1.65
	c4.49-2.141,8.98-4.279,13.471-6.42c6.07-3.201,12.139-6.4,18.219-9.6c1.68-1.111,3.361-2.221,5.041-3.34
	c2.609-2.09,5.129-4.352,7.879-6.23c1.631-1.121,3.602-1.67,5.42-2.471c12.09-9.889,24.17-19.779,36.26-29.67
	c6.311-6.719,12.631-13.43,18.941-20.15c2.639-4.5,8.119-6.869,8.59-12.988c-1.25-1.602-2.711-3.061-3.711-4.83
	c-20.02-35.58-47.76-61.65-83.74-77.861c-15.229-6.869-31.029-11.1-47.309-13.65c-0.781-0.119-10.121,2-10.92,2.041
	c-1.41-0.109-2.82-0.221-4.23-0.33c-7.77-0.551-15.541-1.109-24.221-1.721c0-11.199,0-22.129,0-33.059
	c-0.279-2.771-0.559-5.531-0.84-8.301c0.84-0.57,1.76-1.051,2.531-1.68c30.969-25.42,54.539-62.93,72.1-94.67
	c7.129-12.9,8.189-14,11.15-28.25c4.219-1.37,12.52-2.28,14.809-6.97c0.33,0.05,0.602-0.06,0.82-0.33
	c8.041-3.68,10.291-11.61,10.67-19.44c0.74-15.08,0.611-30.25,0.01-45.34c-0.27-6.88-3.539-13.02-9.33-17.04v-0.02
	c-2.879-5.17-8.029-6.28-12.77-8.11c0.949-18.52-6.74-35.62-6.6-54.15c0.15-19.43-1.15-25.82-6.189-44.67
	c-0.211-0.8-0.092-1.71-0.131-2.56c-2.09-5.53-9.869-18.15-11.67-21.43c-2.359-3.14-4.73-6.28-7.09-9.42
	c-3.67-3.5-7.33-6.99-11-10.49c-4.121-3.46-8.24-6.91-12.371-10.37c-0.359-0.18-0.76-0.29-1.068-0.53
	c-10.33-7.81-60.74-18.33-68.371-16.229c-7.279,0.97-57.689,1.3-60.971,2.06c-2.408,0.52-4.818,1.03-7.238,1.55
	c-6.48,2.66-12.971,5.33-19.451,7.99c-4.85,3-9.689,6.01-14.539,9.01c-8.211,7.82-16.42,15.63-24.631,23.45
	c-3.359,5.14-6.709,10.28-10.061,15.41c-2.6,6.01-5.209,7.02-7.809,13.03c-1.971,10.12-4.58,7.2-6.201,17.38
	c-3.41,21.39-6.139,38.96-4.41,60.56c0.561,7.01-0.219,12.65,0.932,19.61c-2.191,1.35-4.381,2.7-6.58,4.04l-0.041,0.05
	c-0.959,0.8-1.92,1.6-2.869,2.4c-0.691,0.41-1.391,0.82-2.08,1.23c-1.9,2.71-3.791,5.42-5.691,8.13
	c-0.289,0.3-0.408,0.66-0.379,1.08c-0.58,0.9-1.16,1.81-1.74,2.71c-0.551,1.78-1.551,3.55-1.57,5.34
	c-0.15,14.68-0.4,29.36-0.061,44.03c0.32,13.46,16.691,20.88,27.121,22.77c0.959,13.19,1.029,9.83,4.459,22
	c9.17,32.521,52.5,89.001,76.91,108.06c-0.01,0.471-0.02,0.941-0.029,1.41c-0.1,5.09-0.199,10.189-0.301,15.32
	c-0.17,8.59-0.33,17.26-0.5,26.15c-3.699,0-6.309-0.131-8.92,0.029c-3.99,0.25-7.959,0.689-11.939,1.051
	c-0.85-0.1-1.699-0.189-2.551-0.291l0.031,0.01c-0.611,0.191-1.211,0.381-1.82,0.57c-15.961,0.65-36.84,1.941-51.67,7.881
	c-31.359,12.58-57.301,33.109-77.67,61.41"/>
<g>
	<path fill="none" d="M2102.081,500.75c-1.74,1.58-4.09,4.59-6.9,8.699c1.26-0.029,2.49-0.049,3.16,0
		c0.801-0.049,11.051-0.6,11.83-0.48c16.279,2.551,32.08,6.791,47.311,13.65c35.969,16.221,63.709,42.281,83.74,77.861
		c0.988,1.76,2.459,3.219,3.709,4.828c-0.48,6.121-5.959,8.49-8.59,12.99c-6.311,6.721-12.631,13.432-18.939,20.15
		c-12.09,9.891-24.17,19.781-36.26,29.67c-1.82,0.801-3.801,1.35-5.42,2.471c-2.74,1.891-5.262,4.141-7.881,6.23
		c-1.68,1.109-3.359,2.219-5.039,3.34c-6.07,3.199-12.15,6.398-18.221,9.6c-4.49,2.141-8.98,4.279-13.471,6.42
		c-1.6,0.549-3.199,1.1-4.789,1.65c-6.17,2.309-12.34,4.609-18.52,6.91c-6.131,1.83-12.262,3.648-18.391,5.479
		c-8.91,1.82-17.82,3.65-26.73,5.471c-27.699,0-55.4,0-83.09,0c-6.129-1.211-12.27-2.42-18.41-3.631
		c-5.66-1.408-11.311-2.809-16.969-4.219c-7.371-2.961-14.74-5.93-22.102-8.891c-4.85-1.08-9.979-1.42-14.469-3.42
		c-6.791-3.02-13.131-7.189-19.66-10.869c-11.16-6.352-22.211-12.891-32.5-20.791c-0.541-0.42-1.471-0.27-2.221-0.379
		c-2.23-1.711-4.459-3.42-6.689-5.141c-4.449-4.02-8.9-8.041-13.359-12.051c-5.98-5.719-11.951-11.449-17.932-17.17l-0.08-0.039
		c-1.799-1.98-3.6-3.961-5.398-5.939c-1.58-1.721-3.17-3.441-4.75-5.17c-2.621-3.842-5.25-7.682-7.871-11.521l16.01-25.109
		c20.371-28.301,46.32-48.83,77.67-61.41c14.82-5.949,35.711-7.24,51.67-7.881c0.602-0.189,1.211-0.379,1.82-0.568l-0.029-0.01
		c0.85,0.1,1.699,0.199,2.551,0.289c0.59-0.051,1.189-0.109,1.779-0.17c-1.35-2.4-2.551-4.619-3.57-6.609
		c-8.971-17.602-246.93,88.92-246.93,112.26s305.4,193.5,324.209,193.5c18.811,0,271.881-197.17,271.881-220.5
		C2294.241,576.831,2177.811,431.87,2102.081,500.75z"/>
	<path fill="#016293" d="M1944.321,511.469l0.029,0.012c-0.609,0.189-1.211,0.379-1.82,0.568c-15.959,0.65-36.84,1.941-51.67,7.881
		c-31.359,12.58-57.301,33.109-77.67,61.41l-16.01,25.109c2.619,3.84,5.25,7.68,7.869,11.52c1.58,1.721,3.17,3.441,4.75,5.17
		c1.801,1.98,3.602,3.961,5.4,5.941l0.08,0.039c5.98,5.721,11.949,11.451,17.93,17.17c4.451,4.02,8.91,8.041,13.361,12.051
		c2.229,1.709,4.459,3.42,6.689,5.139c0.75,0.111,1.68-0.039,2.219,0.381c10.291,7.9,21.342,14.439,32.5,20.791
		c6.531,3.68,12.871,7.85,19.66,10.869c4.49,2,9.631,2.34,14.471,3.42c7.369,2.961,14.73,5.93,22.1,8.891
		c5.66,1.41,11.311,2.82,16.971,4.219c6.141,1.211,12.27,2.42,18.41,3.631c27.699,0,55.4,0,83.09,0
		c8.91-1.82,17.82-3.65,26.73-5.471c6.129-1.83,12.26-3.66,18.389-5.48c6.17-2.299,12.34-4.609,18.521-6.908
		c1.6-0.551,3.189-1.102,4.789-1.65c4.49-2.141,8.98-4.281,13.471-6.42c6.07-3.201,12.139-6.4,18.219-9.6
		c1.68-1.111,3.361-2.221,5.041-3.342c2.609-2.09,5.129-4.35,7.879-6.229c1.631-1.121,3.602-1.67,5.42-2.471
		c12.09-9.891,24.17-19.779,36.26-29.67c6.311-6.721,12.631-13.43,18.941-20.15c2.639-4.5,8.119-6.869,8.59-12.99
		c-1.25-1.6-2.711-3.059-3.711-4.83c-20.02-35.58-47.76-61.648-83.74-77.859c-15.229-6.869-31.029-11.1-47.309-13.65
		c-0.781-0.119-11.031,0.441-11.83,0.48c-0.67-0.051-1.9-0.029-3.16,0c-18.48,27.051-56.961,102.199-74.09,138.109
		c-5.41-32.949-53.76-102.779-72.451-135.969c-0.59,0.059-1.189,0.109-1.779,0.17C1946.02,511.67,1945.17,511.571,1944.321,511.469z
		"/>
</g>
<path opacity="0.2" enable-background="new    " d="M2070.811,484.2c-7.031,3.211-45.961,11.109-53.951,11.041
	c-7.98-0.07-42.811-4.32-48.76-8.541c0-8.289,0.439-12.5,0.42-17.49c42.051,18.26,46.57,20.951,100.461-1.549
	C2069.731,470.741,2070.811,472.991,2070.811,484.2z"/>
<line fill="none" x1="2058" y1="524.62" x2="2069.311" y2="547.79"/>
<path fill="#847E6A" d="M1930.44,259.47c0,0,0.75-0.49,2.051-1.35c0.648-0.43,1.459-0.93,2.369-1.51c0.92-0.59,1.949-1.23,3.09-1.93
	c2.27-1.41,4.939-3,7.801-4.7c2.869-1.68,6-3.3,9-5.25l0.561-0.36l0.02-0.01c0.061-0.02-0.1,0.04,0.129-0.06l0.041-0.02l0.07-0.04
	l0.148-0.08l0.291-0.16l1.17-0.63c0.369-0.21,0.811-0.4,1.27-0.6c0.451-0.2,0.9-0.4,1.361-0.58c0.91-0.36,1.799-0.62,2.699-0.89
	c0.92-0.21,1.82-0.42,2.721-0.56c1.818-0.25,3.6-0.36,5.299-0.29c1.689,0.06,3.301,0.29,4.75,0.62c1.451,0.35,2.75,0.77,3.85,1.28
	c1.111,0.47,2.012,1.05,2.74,1.51c0.711,0.52,1.24,0.92,1.57,1.26c0.34,0.32,0.5,0.5,0.5,0.5c0.18,0.21,0.16,0.52-0.039,0.7
	c-0.09,0.08-0.191,0.12-0.301,0.12h-0.01c0,0-0.24,0.02-0.68,0.05c-0.432,0.03-1.061,0.06-1.83,0.15
	c-0.76,0.05-1.68,0.18-2.691,0.33c-1.01,0.13-2.129,0.37-3.318,0.59c-1.191,0.27-2.461,0.53-3.781,0.91
	c-1.32,0.32-2.689,0.77-4.1,1.19c-0.709,0.22-1.43,0.45-2.16,0.65c-0.719,0.24-1.49,0.44-2.219,0.64
	c-0.361,0.11-0.73,0.2-1.102,0.29l-0.559,0.14l-0.621,0.19l-1.279,0.36l-0.32,0.09l-0.16,0.05l-0.08,0.02l-0.039,0.01
	c0.219-0.09,0.049-0.02,0.09-0.04l-0.021,0.01l-0.648,0.17c-3.451,0.9-6.762,2.13-9.941,3.11c-3.18,0.97-6.148,1.87-8.719,2.6
	c-1.281,0.37-2.461,0.7-3.51,0.99c-1.051,0.28-1.961,0.54-2.721,0.73c-1.51,0.39-2.381,0.61-2.381,0.61
	c-0.238,0.06-0.488-0.08-0.559-0.33C1930.2,259.77,1930.28,259.57,1930.44,259.47z"/>
<ellipse fill="#016293" cx="1972.911" cy="299.86" rx="15.719" ry="16.73"/>
<path fill="#847E6A" d="M2113.84,260.16c0,0-0.75-0.73-2.16-1.92c-0.709-0.59-1.57-1.3-2.57-2.08c-1-0.78-2.17-1.62-3.449-2.51
	c-2.561-1.76-5.66-3.61-9.09-5.12c-1.721-0.74-3.521-1.38-5.34-1.9c-1.811-0.49-3.721-0.82-5.48-0.88
	c-1.031-0.03-2.201-0.14-3.07-0.03c-0.92,0.05-1.83,0.11-2.791,0.24c-1.889,0.21-3.729,0.55-5.51,0.75
	c-0.889,0.11-1.77,0.23-2.639,0.31c-0.861,0.12-1.73,0.17-2.561,0.28c-1.67,0.19-3.279,0.38-4.791,0.57
	c-1.529,0.19-2.939,0.37-4.18,0.53c-1.26,0.17-2.398,0.29-3.35,0.4c-0.949,0.11-1.709,0.19-2.24,0.24
	c-0.529,0.05-0.82,0.06-0.82,0.06h-0.01c-0.279,0.01-0.51-0.2-0.52-0.48c0-0.11,0.029-0.22,0.09-0.31c0,0,0.17-0.24,0.51-0.66
	c0.34-0.43,0.871-1.02,1.58-1.72c0.721-0.69,1.621-1.52,2.74-2.34c1.109-0.83,2.42-1.71,3.93-2.51c1.5-0.84,3.201-1.57,5.061-2.23
	c0.93-0.33,1.91-0.6,2.91-0.88c1.02-0.21,2.061-0.45,3.129-0.56c1.08-0.1,2.17-0.23,3.301-0.18c0.561,0.01,1.119,0.02,1.689,0.04
	c0.561,0.04,1.131,0.11,1.701,0.16c0.568,0.06,1.119,0.1,1.719,0.19l1.77,0.27c0.602,0.09,1.191,0.19,1.682,0.3l1.559,0.32
	c2.441,0.48,4.65,1.21,6.75,2.13c2.102,0.91,4.021,2.02,5.771,3.19c3.52,2.34,6.369,4.95,8.639,7.3
	c1.141,1.17,2.111,2.31,2.961,3.32c0.84,1.01,1.549,1.92,2.1,2.69c1.109,1.52,1.689,2.45,1.689,2.45
	c0.131,0.21,0.07,0.49-0.139,0.63C2114.219,260.33,2113.991,260.3,2113.84,260.16z"/>
<path fill="#4A322D" d="M1978.549,399.95c-0.369-0.9-0.729-1.799-1.1-2.699c-0.59-2.9-1.199-5.791-1.779-8.69
	c-1.43-7.19,0.09-9.181,7.061-9.28c0.6-0.01,1.189,0.07,1.789,0.11c15.029-0.149,60.131-0.021,75.67,0.021
	c0.43-0.141,0.861-0.291,1.291-0.431c5.49,1.63,6.689,3.21,5.148,8.94c-1.629,6.08-3.969,11.939-6,17.889
	c-0.639,1.041-2.568,4.57-3.209,5.611c-2.621,2.34-3.721,5.689-5.609,5.689c-9.48,15.109-46.801,10.92-61.361-1.16
	C1986.491,410.62,1982.52,405.29,1978.549,399.95z"/>
<path fill="#EB536F" d="M2043.11,423.559c-0.82,0.41-1.629,0.83-2.449,1.24c-9.91,3.24-20,6.15-30.24,2.561
	c-6.439-2.26-12.451-5.91-18.65-8.939l-0.051-0.061c-0.42-0.801-0.84-1.6-1.26-2.4c7.801-7.529,16.721-9.58,26.9-6.689
	c2.551,0.721,5.59,0.789,8.109,0.039c9.74-2.889,18.201-1.129,25.371,6.66c-0.17,1.182-0.34,2.371-0.52,3.551l0.029-0.029
	C2047.94,420.84,2045.53,422.2,2043.11,423.559z"/>
<path fill="#FEFFFF" d="M2060.2,379.411c-1.209,8.729-5.279,12.779-13.189,12.81c-16.449,0.069-32.91,0.069-49.359,0
	c-7.971-0.03-11.82-3.91-13.121-12.83c0.391-0.05,0.781-0.11,1.17-0.19C2010.53,379.27,2035.37,379.34,2060.2,379.411z"/>
<path fill="#E5C5A8" d="M2367.081,336"/>
<g>
	<path fill="#CEBF59" d="M2099.959,477.219c26.99,7.92,53.961,15.91,81,23.641c2.441,0.699,5.611,0.439,7.961-0.57
		c18.68-8.049,36.639-17.32,49.689-34.049c0.971-1.25,1.93-2.521,3.561-4.66c-6.23,0-11.48,0.449-16.621-0.15
		c-3.76-0.439-8.459-1.221-10.76-3.75c-3.17-3.48-4.48-8.75-6.59-13.25c3.26-0.291,6.51-0.75,9.77-0.83
		c30.271-0.77,45.861-13.461,53.24-43.75c0.25-1.02-1.91-3.71-3.18-3.891c-15.49-2.189-31.02-4-46.52-6.09
		c-1.711-0.229-3.281-1.6-4.861-2.85c29.99,10.84,55.75-1.17,81.961-14.92c-13.541-1.43-26.42-1.82-38.91-4.28
		c-45.67-8.98-60.35-27.02-64.99-74.99c-5.129-52.9-12.529-105.44-37.99-153.08c-21.18-39.64-52.469-65.21-97.119-71.67
		c-0.98-0.14-1.85-1.05-2.77-1.6c-1.08,0-2.17,0-3.25,0s-2.17,0-3.25,0c-9.74,0-19.49,0-29.23,0c-0.27,0-0.541,0-0.811,0
		c-0.539,0-1.08,0-1.619,0c-1.352,0-2.711,0-4.061,0c-1.08,0-2.17,0-3.25,0c-4.15,0.97-8.27,2.16-12.471,2.88
		c-62.16,10.66-105.41,47.2-129.059,105.56c-31.381,77.45-41.721,158.51-27.971,241.76c4.801,29.029,16.949,55.141,37.561,76.4
		c1.26,1.299,4.068,2.1,5.799,1.66c17.031-4.381,33.99-9.031,50.93-13.75c1.471-0.41,2.65-1.9,3.961-2.891
		c-0.33-2.721-1.07-5.461-0.92-8.141c1.029-18.529,2.33-37.049,3.26-55.6c0.1-2.051-1.07-5.189-2.631-6.131
		c-14.42-8.709-20-22.159-23.129-38.459c-7.189-37.49-13.65-74.9-6.35-113.09c9.75-51.01,41.92-83.17,85.75-105.11
		c1.02-0.51,3.879,1.08,4.83,2.45c20.529,29.56,40.898,59.24,61.299,88.89c4.361,6.34,8.721,12.69,14.291,20.8
		c0.811-16.05,1.52-29.85,2.26-44.47c6.459,10.86,12.34,20.95,18.529,30.84c0.58,0.93,3.15,1.2,4.561,0.83
		c8.16-2.15,16.27-6.59,24.35-6.49c14.361,0.16,22.781,8.35,21.99,17.93c-2.41,29.34-4.859,58.69-7.17,88.04
		c-1.92,24.38-3.02,33.96-20.98,61.329c-4,6.09-11.309,16.57-16.609,21.721c-1.01,0.98-2.459,2.461-2.33,3.551
		C2102.86,452.28,2098.01,461.959,2099.959,477.219z"/>
	<path fill="#CEBF59" d="M2014.6,66.5c1.35,0,2.709,0,4.061,0C2017.311,66.5,2015.959,66.5,2014.6,66.5z"/>
	<path fill="#CEBF59" d="M2050.331,66.5c1.08,0,2.16,0,3.25,0C2052.5,66.5,2051.411,66.5,2050.331,66.5z"/>
	<path fill="#CEBF59" d="M2020.29,66.5c0.271,0,0.541,0,0.811,0C2020.831,66.5,2020.561,66.5,2020.29,66.5z"/>
</g>
<ellipse fill="#016293" cx="2070.02" cy="299.86" rx="15.721" ry="16.73"/>
<g>
	<path d="M1956.219,260.42c14.541-0.04,28.711,2.41,42.771,5.87c9.889,2.43,19.898,4.52,30.139,3.6
		c6.41-0.58,12.76-1.92,19.102-3.11c7.459-1.4,14.809-3.46,22.318-4.41c7.951-1.01,16.021-1.19,24.041-1.47
		c10.92-0.38,21.73,1.1,32.529,2.43c7.961,0.97,15.9,2.2,23.861,3.2c2.109,0.26,3.08,1.33,3.189,3.27
		c0.199,3.62,0.391,7.25,0.4,10.87c0.01,2.71-0.68,3.29-3.42,3.88c-2.17,0.46-3.49,2.06-4.141,3.97c-1.061,3.15-2.029,6.36-2.6,9.63
		c-1.641,9.29-2.84,18.68-6.51,27.48c-3.102,7.43-7.09,14.4-14.58,17.99c-4.791,2.29-10.131,3.73-15.381,4.7
		c-12.969,2.4-25.73,1.34-38.15-3.43c-11.869-4.56-19.479-13.39-25.129-24.33c-4.15-8.04-7.109-16.53-9.75-25.15
		c-1.25-4.09-4.01-6.81-8.281-7.32c-3.84-0.46-7.619,0.6-9.738,4.03c-2.82,4.56-5.301,9.37-7.5,14.27
		c-3.24,7.23-5.66,14.79-10.41,21.35c-8.211,11.33-19,18.11-32.881,19.98c-10.01,1.35-19.98,1.63-29.83-1.16
		c-8.33-2.36-15.58-6.48-21.189-13.22c-3.57-4.28-5.15-9.49-6.41-14.72c-2-8.27-3.541-16.65-5.381-24.95
		c-0.469-2.13-1.129-4.29-2.17-6.19c-0.68-1.25-2.039-2.37-3.35-2.99c-2.26-1.07-3.51-2.53-3.43-5.07
		c0.131-3.62,0.289-7.25,0.311-10.87c0.01-2.18,1.25-3.08,3.119-3.33c4.51-0.6,9.01-1.23,13.541-1.64
		c9.77-0.89,19.559-1.72,29.34-2.44C1945.821,260.74,1951.03,260.64,1956.219,260.42z M2093.34,265.44
		c-10.27,0.09-19.221,0.38-27.939,2.81c-6.93,1.93-13.561,4.57-18.41,10.11c-1.641,1.88-2.73,4.46-3.42,6.91
		c-1.33,4.78-0.182,9.59,0.83,14.3c2.068,9.73,5.119,19.05,11.609,26.89c3.73,4.51,7.48,9.06,12.939,11.54
		c13.461,6.12,27.4,8.2,41.951,4.56c10.908-2.73,19.049-8.37,22.318-19.85c3.371-11.81,4.221-23.75,2.881-35.89
		c-0.57-5.15-2.15-9.99-6.67-13.07c-2.67-1.82-5.57-3.47-8.59-4.58C2111.561,265.74,2101.78,265.6,2093.34,265.44z M1957.139,265.74
		c-3.699,0-7.408-0.19-11.1,0.04c-6.959,0.43-13.869,1.42-20.34,4.22c-5.869,2.55-10.83,6.14-12.17,12.95
		c-2.699,13.67-1.65,27.13,2.359,40.43c2.66,8.82,8.33,14.51,17.041,17.6c11.891,4.22,23.82,4.34,35.84,1.06
		c5.471-1.49,10.98-3.1,15.5-6.78c6.561-5.34,11.721-11.87,15.15-19.56c3.359-7.54,5.311-15.52,6.15-23.77
		c0.66-6.47-0.871-11.92-6.182-16.06c-3.979-3.1-8.408-5.25-13.18-6.8C1976.75,265.99,1966.969,265.5,1957.139,265.74z"/>
</g>
<rect id="_x3C_Slice_x3E__4_" x="1645.43" y="2.43" display="none" fill="none" width="754" height="749"/>
</svg>
