<?xml version="1.0" encoding="utf-8"?>
<!-- Generator: Adobe Illustrator 16.0.0, SVG Export Plug-In . SVG Version: 6.00 Build 0)  -->
<!DOCTYPE svg PUBLIC "-//W3C//DTD SVG 1.1//EN" "http://www.w3.org/Graphics/SVG/1.1/DTD/svg11.dtd">
<svg version="1.1" id="icons" xmlns="http://www.w3.org/2000/svg" xmlns:xlink="http://www.w3.org/1999/xlink" x="0px" y="0px"
	 width="500px" height="500px" viewBox="0 0 500 500" enable-background="new 0 0 500 500" xml:space="preserve">
<g id="plane">
	<path fill="#0B9B48" d="M61.925,60.729c12.008-12.011,31.235-2.873,43.023,4.532c13.794,8.665,25.993,19.841,37.474,31.321
		l66.963,66.964l208.147-39.9c1.23-0.618,3.14-0.279,4.407,0.074c1.396,0.388,2.657,1.134,3.684,2.158l17.857,17.857
		c2.198,2.202,2.867,5.395,2.349,8.403c-0.485,2.808-2.273,4.955-4.86,6.104l-160.436,76.451l68.356,68.358
		c18.598-5.313,37.19-10.65,55.891-15.595c3.688-0.976,7.382-1.954,11.104-2.788c0.896-0.2,1.794-0.402,2.702-0.532
		c2.527-0.358,5.252,0.671,7.035,2.454l17.854,18.135c2.116,2.117,2.855,5.195,2.382,8.107c-0.446,2.732-2.196,4.845-4.61,6.123
		l-78.125,43.248l-43.248,78.125c-1.447,2.313-3.646,3.984-6.385,4.367c-2.839,0.396-5.792-0.36-7.848-2.414l-17.855-17.857
		c-1.889-1.887-2.844-4.712-2.403-7.354c0.212-1.274,0.513-2.535,0.81-3.792c1.222-5.165,2.607-10.292,3.994-15.414
		c4.53-16.767,9.293-33.472,14.063-50.169l-68.359-68.357l-76.451,160.438c-1.107,2.487-3.146,4.268-5.84,4.811
		c-3.074,0.619-6.408-0.039-8.668-2.3l-17.857-17.856c-1.674-1.674-2.511-3.813-2.511-6.418l0.279-1.674L164.74,208.19
		l-66.965-66.964c-8.304-8.304-16.31-16.962-23.472-26.28c-5.323-6.926-10.284-14.277-13.852-22.277
		C55.979,82.639,53.229,69.417,61.925,60.729C65.737,56.915,58.108,64.542,61.925,60.729z"/>
</g>
<g id="corona">
	<path fill="#F05400" d="M169.976,54.823l-16.267,7.524c0,0-0.002,0.001-0.003,0.002c-4.617-7.532-10.594-13.787-17.471-18.664
		c0.212-0.286,0.413-0.591,0.58-0.92l7.908-15.813c1.474-2.946,0.268-6.414-2.692-7.741c-2.958-1.333-6.551-0.021-8.029,2.925
		l-7.838,15.671c-7.648-3.586-15.99-5.709-24.551-6.272l-1.043-16.494c-0.205-3.215-3.043-5.565-6.348-5.242
		c-3.3,0.319-5.811,3.189-5.607,6.406l0.988,15.583c-9.406,0.996-18.814,3.892-27.632,8.865l-9.118-13.105
		c-1.825-2.624-5.541-3.224-8.299-1.337c-2.757,1.885-3.51,5.544-1.683,8.17l9.099,13.079c-7.539,6.104-13.574,13.509-17.923,21.655
		c-0.003,0-0.008-0.003-0.014-0.005L17.52,63.378c-3.078-1.068-6.553,0.54-7.766,3.591c-1.208,3.052,0.303,6.392,3.382,7.459
		l16.229,5.633c-2.827,8.569-3.94,17.607-3.175,26.569l-17.003,3.12c-3.271,0.604-5.524,3.666-5.034,6.839
		c0.491,3.179,3.541,5.266,6.81,4.665l17.268-3.171c1.373,5.003,3.36,9.906,6.028,14.6c1.456,2.562,3.08,4.969,4.829,7.252
		l-12.264,11.838c-2.399,2.313-2.496,6.02-0.216,8.279c2.274,2.257,6.067,2.21,8.464-0.103l11.88-11.466
		c7.029,6.342,15.347,10.997,24.314,13.821l-4.768,15.937c-0.938,3.132,0.873,6.319,4.045,7.118c3.17,0.797,6.5-1.095,7.438-4.227
		l4.867-16.263c8.748,1.164,17.818,0.673,26.708-1.603l5.04,14.509c1.053,3.024,4.446,4.548,7.583,3.405
		c3.135-1.142,4.826-4.521,3.772-7.546l-4.979-14.324c2.142-0.954,4.253-2.021,6.335-3.203c6.509-3.699,12.206-8.264,17.039-13.439
		l11.507,9.506c2.48,2.05,6.264,1.683,8.451-0.821c2.188-2.503,1.958-6.192-0.521-8.238l-11.992-9.908
		c4.991-7.607,8.416-16.038,10.111-24.761l16.689,1.228c3.286,0.245,6.252-2.173,6.621-5.394c0.373-3.226-1.991-6.033-5.272-6.278
		l-16.833-1.24c0.12-8.105-1.255-16.25-4.262-24.031l15.908-7.357c3.032-1.405,4.417-4.9,3.099-7.815
		C176.538,54.646,173.011,53.42,169.976,54.823z M149.447,113.95c-2.492-3.11-7.06-3.982-10.788-1.864
		c-4.114,2.338-5.637,7.424-3.399,11.362c1.58,2.78,4.612,4.234,7.707,4.031c-5.065,7.809-12.082,14.6-20.812,19.56
		c-6.468,3.676-13.317,6.013-20.217,7.131c0.584-2.033,0.397-4.251-0.705-6.19c-2.237-3.937-7.384-5.232-11.499-2.895
		c-3.475,1.975-5.089,5.905-4.167,9.451c-17.151-2.019-32.91-11.546-41.825-27.235c-3.528-6.208-5.665-12.847-6.539-19.575
		c1.623,0.093,3.306-0.273,4.845-1.148c4.113-2.337,5.638-7.424,3.4-11.362c-1.611-2.835-4.732-4.291-7.891-4.015
		c2.86-16.636,13.154-32.155,29.361-41.363c4.967-2.823,10.16-4.851,15.426-6.151c0.051,1.222,0.375,2.443,1.014,3.568
		c2.236,3.936,7.387,5.233,11.5,2.896c3.053-1.734,4.674-4.984,4.396-8.152c12.146,0.54,23.822,4.819,33.17,12.38
		c-0.199,0.094-0.396,0.188-0.589,0.298c-4.113,2.337-5.637,7.424-3.4,11.361c2.237,3.938,7.388,5.235,11.502,2.897
		c1.322-0.751,2.371-1.789,3.12-2.979c0.795,1.172,1.564,2.371,2.275,3.623C153.231,83.475,154.219,99.509,149.447,113.95z"/>
	
		<ellipse transform="matrix(-0.494 -0.8694 0.8694 -0.494 49.2581 160.1057)" fill="#F05400" cx="71.215" cy="65.72" rx="8.199" ry="8.566"/>
	
		<ellipse transform="matrix(-0.494 -0.8694 0.8694 -0.494 95.0692 190.3881)" fill="#F05400" cx="102.932" cy="67.532" rx="8.199" ry="8.568"/>
	
		<ellipse transform="matrix(-0.494 -0.8694 0.8694 -0.494 21.7815 204.6062)" fill="#F05400" cx="70.425" cy="95.965" rx="8.199" ry="8.568"/>
	
		<ellipse transform="matrix(-0.494 -0.8694 0.8694 -0.494 47.946 273.559)" fill="#F05400" cx="103.571" cy="122.829" rx="8.199" ry="8.568"/>
	
		<ellipse transform="matrix(-0.494 -0.8694 0.8694 -0.494 95.1741 245.724)" fill="#F05400" cx="119.087" cy="95.169" rx="8.199" ry="8.566"/>
	
		<ellipse transform="matrix(-0.494 -0.8694 0.8694 -0.494 -14.3111 240.6903)" fill="#F05400" cx="62.878" cy="124.509" rx="8.199" ry="8.568"/>
	<path fill="#F05400" d="M358.045,249.907l-9.467-3.615c0,0,0,0-0.002-0.001c1.268-5.061,1.482-10.152,0.779-15.045
		c0.201-0.033,0.404-0.077,0.604-0.143l9.578-3.315c1.783-0.616,2.732-2.566,2.113-4.35c-0.613-1.787-2.566-2.731-4.35-2.115
		l-9.492,3.286c-1.533-4.674-3.938-9.024-7.07-12.816l6.34-7.316c1.236-1.425,1.084-3.587-0.344-4.824
		c-1.428-1.236-3.586-1.081-4.822,0.345l-5.994,6.913c-4.1-3.488-8.975-6.191-14.475-7.777l1.785-9.257
		c0.357-1.854-0.857-3.648-2.711-4.006c-1.857-0.355-3.646,0.858-4.004,2.709l-1.781,9.24c-5.457-0.583-10.857,0-15.898,1.593
		c0-0.002-0.002-0.005-0.002-0.008l-4.137-9.25c-0.77-1.724-2.795-2.496-4.518-1.725c-1.725,0.771-2.498,2.792-1.725,4.514
		l4.064,9.094c-4.615,2.4-8.754,5.711-12.119,9.767l-7.953-5.759c-1.531-1.108-3.67-0.765-4.775,0.766
		c-1.107,1.529-0.764,3.669,0.768,4.775l8.074,5.847c-1.51,2.659-2.738,5.532-3.609,8.598c-0.479,1.673-0.826,3.355-1.072,5.033
		l-9.658-0.154c-1.889-0.032-3.443,1.476-3.473,3.365c-0.033,1.889,1.473,3.441,3.367,3.473l9.355,0.148
		c0.164,5.567,1.523,10.962,3.889,15.864l-8.393,4.672c-1.652,0.918-2.246,3-1.328,4.652c0.916,1.65,3.002,2.242,4.65,1.324
		l8.568-4.767c2.957,4.12,6.721,7.683,11.139,10.425l-3.957,8.146c-0.826,1.699-0.115,3.746,1.582,4.57
		c1.697,0.826,3.744,0.117,4.57-1.58l3.908-8.047c1.23,0.492,2.498,0.925,3.799,1.295c4.066,1.16,8.174,1.619,12.189,1.471
		l0.627,8.748c0.135,1.883,1.77,3.302,3.656,3.165c1.881-0.131,3.301-1.768,3.166-3.649l-0.652-9.119
		c5.074-1.102,9.871-3.197,14.105-6.135l6.049,7.444c1.191,1.467,3.344,1.688,4.813,0.499c1.465-1.193,1.688-3.345,0.498-4.813
		l-6.1-7.51c3.363-3.332,6.152-7.303,8.162-11.799l9.254,3.539c1.766,0.67,3.74-0.212,4.414-1.977
		C360.695,252.559,359.811,250.582,358.045,249.907z M325.789,266.058c0.293-2.333-1.143-4.595-3.477-5.26
		c-2.57-0.733-5.25,0.758-5.984,3.329c-0.52,1.816,0.078,3.684,1.379,4.884c-5.186,1.153-10.721,1.075-16.176-0.479
		c-4.041-1.154-7.689-3.023-10.855-5.42c1.061-0.607,1.896-1.609,2.26-2.878c0.732-2.571-0.76-5.249-3.33-5.983
		c-2.17-0.617-4.416,0.354-5.502,2.215c-5.91-7.965-8.195-18.485-5.271-28.738c1.154-4.056,3.031-7.711,5.443-10.886
		c0.6,0.714,1.41,1.261,2.369,1.535c2.574,0.732,5.252-0.758,5.986-3.329c0.527-1.854-0.104-3.758-1.453-4.953
		c7.93-5.756,18.326-7.958,28.457-5.068c3.105,0.884,5.973,2.194,8.572,3.839c-0.479,0.53-0.852,1.173-1.063,1.909
		c-0.734,2.574,0.758,5.253,3.332,5.984c1.908,0.544,3.873-0.138,5.061-1.576c4.547,5.27,7.381,11.907,7.953,18.942
		c-0.115-0.042-0.232-0.084-0.354-0.118c-2.57-0.734-5.248,0.76-5.982,3.328c-0.732,2.573,0.76,5.252,3.328,5.986
		c0.826,0.234,1.666,0.239,2.447,0.052c-0.172,0.82-0.359,1.638-0.592,2.454C339.746,254.908,333.568,262.014,325.789,266.058z"/>
	<circle fill="#F05400" cx="314.813" cy="213.437" r="4.842"/>
	<circle fill="#F05400" cx="326.523" cy="227.367" r="4.842"/>
	<circle fill="#F05400" cx="302.125" cy="225.731" r="4.842"/>
	<circle fill="#F05400" cx="321.556" cy="245.61" r="4.844"/>
	<circle fill="#F05400" cx="287.481" cy="234.51" r="4.844"/>
	<path fill="#F05400" d="M494.657,87.382l-11.979-4.575c0,0,0,0-0.001-0.002c1.605-6.401,1.877-12.846,0.987-19.034
		c0.256-0.04,0.512-0.095,0.765-0.182l12.117-4.192c2.257-0.782,3.455-3.246,2.672-5.504c-0.779-2.26-3.244-3.456-5.504-2.674
		l-12.005,4.158c-1.944-5.911-4.983-11.416-8.948-16.212l8.022-9.259c1.563-1.809,1.37-4.537-0.438-6.103
		c-1.805-1.566-4.536-1.369-6.1,0.44l-7.58,8.741c-5.187-4.411-11.356-7.827-18.313-9.837l2.258-11.713
		c0.454-2.345-1.083-4.614-3.431-5.066c-2.347-0.452-4.612,1.083-5.065,3.43l-2.255,11.69c-6.904-0.74-13.733-0.002-20.113,2.014
		c-0.002-0.003-0.004-0.007-0.005-0.011l-5.236-11.706c-0.976-2.18-3.534-3.156-5.717-2.183c-2.184,0.977-3.158,3.536-2.183,5.715
		l5.142,11.503c-5.838,3.04-11.074,7.228-15.333,12.361l-10.063-7.285c-1.938-1.401-4.642-0.973-6.041,0.965
		c-1.402,1.935-0.969,4.641,0.969,6.043l10.216,7.395c-1.909,3.367-3.462,7.001-4.565,10.88c-0.604,2.117-1.045,4.242-1.359,6.367
		l-12.222-0.192c-2.387-0.04-4.354,1.865-4.395,4.254c-0.039,2.389,1.871,4.354,4.259,4.395l11.838,0.19
		c0.207,7.04,1.928,13.869,4.92,20.071l-10.617,5.91c-2.091,1.159-2.843,3.796-1.68,5.885c1.156,2.085,3.794,2.835,5.882,1.674
		l10.842-6.028c3.742,5.215,8.5,9.721,14.094,13.191l-5.009,10.307c-1.043,2.149-0.147,4.739,2.003,5.785
		c2.149,1.043,4.739,0.147,5.782-2.001l4.945-10.181c1.555,0.621,3.156,1.168,4.803,1.637c5.146,1.467,10.341,2.049,15.423,1.859
		l0.793,11.065c0.169,2.386,2.239,4.177,4.623,4.007c2.383-0.168,4.179-2.239,4.005-4.619l-0.827-11.536
		c6.421-1.393,12.49-4.042,17.846-7.762l7.651,9.421c1.51,1.854,4.233,2.133,6.086,0.631c1.856-1.511,2.136-4.23,0.635-6.089
		l-7.719-9.497c4.254-4.216,7.786-9.239,10.323-14.928l11.714,4.477c2.232,0.85,4.731-0.27,5.587-2.499
		C498.01,90.736,496.891,88.237,494.657,87.382z M453.846,107.817c0.37-2.952-1.447-5.813-4.394-6.653
		c-3.254-0.927-6.644,0.957-7.573,4.21c-0.654,2.297,0.099,4.661,1.742,6.179c-6.56,1.461-13.563,1.36-20.467-0.609
		c-5.113-1.457-9.728-3.822-13.733-6.854c1.341-0.77,2.397-2.037,2.855-3.643c0.923-3.256-0.961-6.645-4.215-7.572
		c-2.746-0.783-5.586,0.444-6.96,2.805c-7.479-10.081-10.368-23.389-6.669-36.357c1.46-5.132,3.834-9.764,6.886-13.775
		c0.758,0.903,1.786,1.593,3,1.941c3.253,0.926,6.644-0.958,7.573-4.212c0.67-2.345-0.127-4.752-1.841-6.268
		c10.039-7.279,23.187-10.068,36.008-6.412c3.925,1.12,7.555,2.777,10.843,4.858c-0.604,0.668-1.076,1.485-1.343,2.416
		c-0.926,3.256,0.96,6.646,4.215,7.57c2.414,0.688,4.9-0.172,6.405-1.99c5.75,6.668,9.333,15.061,10.062,23.962
		c-0.146-0.053-0.294-0.106-0.448-0.151c-3.254-0.926-6.641,0.961-7.566,4.212c-0.927,3.256,0.955,6.643,4.21,7.574
		c1.044,0.296,2.104,0.301,3.092,0.067c-0.215,1.036-0.452,2.072-0.746,3.104C471.503,93.709,463.69,102.699,453.846,107.817z"/>
	<circle fill="#F05400" cx="439.961" cy="41.241" r="6.127"/>
	<circle fill="#F05400" cx="454.776" cy="58.863" r="6.125"/>
	<circle fill="#F05400" cx="423.906" cy="56.794" r="6.126"/>
	<circle fill="#F05400" cx="426.459" cy="88.397" r="6.126"/>
	<circle fill="#F05400" cx="448.493" cy="81.945" r="6.127"/>
	<path fill="#F05400" d="M283.665,474.834l-1.334-11.445c0,0,0,0,0.001-0.002c5.768-1.382,11.014-3.844,15.575-7.125
		c0.139,0.187,0.288,0.367,0.463,0.533l8.377,7.912c1.562,1.472,4.022,1.403,5.496-0.16c1.476-1.56,1.404-4.021-0.158-5.496
		l-8.303-7.837c3.901-4.006,7.024-8.715,9.196-13.867l10.712,2.544c2.092,0.492,4.185-0.795,4.68-2.887
		c0.498-2.089-0.794-4.184-2.886-4.677l-10.115-2.406c1.358-5.966,1.515-12.301,0.226-18.679l10.271-3.069
		c2.057-0.613,3.226-2.781,2.61-4.839s-2.78-3.226-4.839-2.61l-10.25,3.063c-2.28-5.809-5.708-10.942-9.965-15.188
		c0.001-0.003,0.003-0.007,0.007-0.009l7.149-9.038c1.33-1.683,1.045-4.128-0.638-5.462c-1.686-1.333-4.13-1.046-5.461,0.637
		l-7.027,8.878c-4.849-3.388-10.361-5.818-16.222-7.078l1.622-11.045c0.31-2.126-1.155-4.103-3.28-4.412
		c-2.125-0.313-4.1,1.157-4.412,3.284l-1.645,11.212c-3.477-0.121-7.018,0.152-10.566,0.885c-1.938,0.398-3.814,0.932-5.639,1.563
		l-4.926-9.816c-0.961-1.919-3.297-2.695-5.217-1.733c-1.919,0.962-2.691,3.301-1.73,5.22l4.77,9.512
		c-5.523,3.091-10.249,7.3-13.946,12.262l-9.122-6.002c-1.793-1.185-4.207-0.687-5.387,1.107c-1.182,1.788-0.682,4.202,1.111,5.382
		l9.309,6.133c-2.6,5.149-4.211,10.813-4.651,16.712l-10.293,0.294c-2.146,0.062-3.837,1.852-3.777,4
		c0.063,2.146,1.853,3.837,3.999,3.775l10.166-0.292c0.15,1.497,0.381,3,0.692,4.507c0.97,4.71,2.665,9.091,4.929,13.061
		l-8.486,5.231c-1.83,1.126-2.396,3.521-1.271,5.349c1.124,1.829,3.521,2.398,5.345,1.271l8.848-5.453
		c3.778,4.536,8.412,8.271,13.602,10.991l-4.325,10.012c-0.851,1.974,0.06,4.26,2.026,5.111c1.977,0.852,4.26-0.057,5.115-2.025
		l4.357-10.098c5.129,1.638,10.598,2.363,16.186,2.021l1.303,11.193c0.25,2.132,2.182,3.657,4.313,3.412
		C282.387,478.898,283.912,476.969,283.665,474.834z M250.42,450.812c2.506-0.932,4.029-3.568,3.475-6.266
		c-0.613-2.978-3.523-4.896-6.502-4.284c-2.102,0.434-3.673,2.017-4.199,3.957c-3.891-4.619-6.721-10.241-8.021-16.561
		c-0.965-4.679-0.998-9.338-0.248-13.79c1.17,0.748,2.619,1.063,4.09,0.761c2.977-0.618,4.894-3.527,4.28-6.506
		c-0.517-2.514-2.676-4.266-5.128-4.379c4.924-10.148,14.324-17.982,26.195-20.426c4.695-0.971,9.373-1.004,13.838-0.24
		c-0.405,0.979-0.527,2.085-0.301,3.197c0.615,2.977,3.525,4.895,6.504,4.283c2.146-0.441,3.734-2.076,4.229-4.072
		c9.973,4.973,17.659,14.288,20.076,26.023c0.739,3.593,0.928,7.173,0.636,10.658c-0.783-0.203-1.631-0.24-2.482-0.065
		c-2.979,0.615-4.896,3.526-4.279,6.504c0.454,2.21,2.174,3.834,4.248,4.277c-2.923,7.353-8.12,13.695-14.909,17.976
		c-0.019-0.139-0.037-0.278-0.066-0.42c-0.615-2.978-3.525-4.892-6.5-4.278c-2.98,0.615-4.896,3.522-4.285,6.503
		c0.198,0.955,0.636,1.803,1.232,2.491c-0.916,0.261-1.84,0.501-2.783,0.696C269,459.016,258.59,456.528,250.42,450.812z"/>
	<circle fill="#F05400" cx="300.625" cy="411.253" r="6.127"/>
	<circle fill="#F05400" cx="291.854" cy="432.54" r="6.125"/>
	<circle fill="#F05400" cx="271.045" cy="402.214" r="6.126"/>
	<circle fill="#F05400" cx="252.572" cy="421.095" r="6.126"/>
	<circle fill="#F05400" cx="268.484" cy="437.646" r="6.127"/>
	<circle fill="#F05400" cx="99.906" cy="343.253" r="5.236"/>
	<path fill="#F05400" d="M132.969,344.865l-7.124-2.721c0,0,0,0-0.001-0.001c0.953-3.809,1.115-7.64,0.586-11.321
		c0.151-0.025,0.304-0.059,0.455-0.108l7.207-2.495c1.342-0.464,2.056-1.931,1.59-3.273c-0.462-1.344-1.932-2.055-3.273-1.591
		l-7.143,2.473c-1.154-3.517-2.964-6.791-5.321-9.644l4.771-5.506c0.931-1.072,0.815-2.699-0.259-3.631
		c-1.074-0.93-2.698-0.813-3.628,0.26l-4.511,5.202c-3.086-2.625-6.755-4.659-10.894-5.853l1.344-6.966
		c0.27-1.395-0.645-2.745-2.04-3.015c-1.397-0.268-2.745,0.646-3.014,2.039l-1.341,6.953c-4.106-0.439-8.169,0-11.963,1.199
		c-0.001-0.002-0.002-0.004-0.002-0.006l-3.113-6.961c-0.579-1.298-2.103-1.879-3.398-1.299c-1.299,0.58-1.88,2.102-1.298,3.397
		l3.058,6.843c-3.473,1.807-6.588,4.299-9.119,7.351l-5.986-4.334c-1.152-0.834-2.761-0.575-3.593,0.576
		c-0.834,1.15-0.575,2.761,0.577,3.594l6.077,4.4c-1.137,2.001-2.061,4.163-2.717,6.47c-0.359,1.26-0.621,2.525-0.808,3.788
		l-7.268-0.115c-1.421-0.024-2.592,1.109-2.613,2.532c-0.024,1.422,1.108,2.588,2.534,2.613l7.04,0.11
		c0.123,4.189,1.146,8.25,2.926,11.939l-6.314,3.516c-1.244,0.69-1.69,2.257-1,3.501c0.688,1.241,2.259,1.688,3.5,0.996l6.448-3.588
		c2.225,3.102,5.057,5.781,8.382,7.846l-2.978,6.131c-0.622,1.278-0.088,2.819,1.19,3.439c1.277,0.621,2.817,0.088,3.438-1.189
		l2.941-6.056c0.926,0.371,1.88,0.695,2.858,0.975c3.06,0.872,6.151,1.219,9.174,1.106l0.471,6.584
		c0.102,1.417,1.332,2.483,2.752,2.381c1.416-0.099,2.484-1.33,2.383-2.746l-0.491-6.862c3.819-0.829,7.429-2.406,10.614-4.617
		l4.552,5.603c0.897,1.104,2.518,1.271,3.622,0.375c1.103-0.897,1.271-2.517,0.375-3.621l-4.591-5.65
		c2.531-2.508,4.631-5.497,6.143-8.88l6.965,2.663c1.328,0.505,2.813-0.159,3.321-1.487
		C134.963,346.86,134.297,345.373,132.969,344.865z M108.695,357.019c0.22-1.755-0.86-3.457-2.616-3.958
		c-1.935-0.552-3.951,0.57-4.504,2.506c-0.391,1.367,0.059,2.771,1.038,3.675c-3.902,0.868-8.068,0.809-12.173-0.361
		c-3.041-0.868-5.787-2.275-8.169-4.078c0.798-0.457,1.427-1.211,1.701-2.166c0.55-1.936-0.572-3.949-2.506-4.502
		c-1.634-0.466-3.323,0.265-4.141,1.667c-4.448-5.994-6.168-13.912-3.967-21.627c0.868-3.052,2.281-5.803,4.096-8.192
		c0.451,0.538,1.062,0.949,1.783,1.155c1.937,0.551,3.952-0.57,4.504-2.505c0.397-1.396-0.077-2.828-1.094-3.728
		c5.969-4.331,13.791-5.988,21.415-3.814c2.338,0.666,4.495,1.652,6.451,2.891c-0.359,0.398-0.641,0.883-0.799,1.436
		c-0.553,1.938,0.57,3.953,2.507,4.504c1.436,0.409,2.915-0.104,3.809-1.187c3.422,3.966,5.555,8.96,5.985,14.254
		c-0.087-0.03-0.175-0.063-0.267-0.088c-1.935-0.553-3.95,0.571-4.502,2.505c-0.551,1.936,0.571,3.952,2.505,4.504
		c0.622,0.177,1.254,0.18,1.841,0.039c-0.129,0.618-0.27,1.232-0.445,1.847C119.199,348.628,114.549,353.976,108.695,357.019z"/>
	<circle fill="#F05400" cx="92.189" cy="327.252" r="4.223"/>
	<path fill="#F05400" d="M456.229,416.989l-1.081-9.28c0,0,0,0,0.001-0.002c4.677-1.12,8.931-3.116,12.629-5.777
		c0.112,0.151,0.234,0.298,0.375,0.433l6.793,6.415c1.267,1.193,3.262,1.139,4.456-0.13c1.197-1.265,1.139-3.26-0.128-4.456
		l-6.732-6.354c3.164-3.248,5.696-7.066,7.457-11.244l8.686,2.063c1.696,0.399,3.394-0.645,3.794-2.341
		c0.404-1.693-0.643-3.393-2.339-3.792l-8.202-1.951c1.101-4.838,1.228-9.975,0.183-15.146l8.328-2.489
		c1.668-0.497,2.615-2.255,2.116-3.924c-0.499-1.668-2.254-2.615-3.923-2.116l-8.312,2.483c-1.85-4.71-4.629-8.873-8.08-12.314
		c0-0.003,0.002-0.006,0.005-0.008l5.798-7.328c1.079-1.364,0.848-3.348-0.518-4.429c-1.367-1.081-3.348-0.849-4.428,0.516
		l-5.698,7.199c-3.931-2.747-8.401-4.718-13.152-5.739l1.314-8.956c0.251-1.724-0.937-3.326-2.659-3.577
		c-1.724-0.255-3.324,0.938-3.578,2.662L448,336.497c-2.819-0.099-5.69,0.123-8.568,0.717c-1.57,0.323-3.093,0.756-4.571,1.269
		l-3.994-7.96c-0.779-1.556-2.674-2.186-4.23-1.405c-1.557,0.779-2.183,2.676-1.403,4.232l3.867,7.712
		c-4.479,2.507-8.311,5.92-11.309,9.943l-7.396-4.867c-1.453-0.961-3.411-0.557-4.367,0.898c-0.958,1.449-0.553,3.407,0.901,4.363
		l7.548,4.973c-2.108,4.176-3.415,8.768-3.772,13.551l-8.347,0.238c-1.74,0.051-3.11,1.502-3.063,3.244
		c0.051,1.74,1.503,3.111,3.243,3.061l8.243-0.236c0.122,1.214,0.309,2.433,0.561,3.654c0.787,3.819,2.162,7.371,3.997,10.59
		l-6.881,4.242c-1.483,0.913-1.943,2.854-1.031,4.337c0.912,1.483,2.855,1.945,4.335,1.03l7.174-4.422
		c3.063,3.679,6.821,6.706,11.029,8.913l-3.508,8.117c-0.689,1.601,0.049,3.454,1.644,4.145c1.603,0.69,3.454-0.046,4.147-1.642
		l3.533-8.188c4.159,1.328,8.594,1.917,13.124,1.639l1.057,9.076c0.203,1.729,1.77,2.966,3.497,2.767
		C455.193,420.285,456.43,418.72,456.229,416.989z M429.272,397.511c2.032-0.756,3.268-2.894,2.817-5.081
		c-0.497-2.414-2.856-3.97-5.271-3.474c-1.704,0.352-2.979,1.635-3.405,3.209c-3.155-3.746-5.449-8.305-6.504-13.429
		c-0.783-3.794-0.81-7.571-0.201-11.182c0.948,0.606,2.123,0.862,3.315,0.617c2.414-0.501,3.968-2.86,3.471-5.275
		c-0.419-2.038-2.17-3.459-4.157-3.551c3.992-8.229,11.614-14.581,21.24-16.563c3.807-0.787,7.6-0.813,11.221-0.194
		c-0.33,0.794-0.428,1.69-0.244,2.592c0.499,2.414,2.858,3.969,5.273,3.474c1.74-0.358,3.028-1.684,3.429-3.302
		c8.087,4.031,14.318,11.585,16.279,21.101c0.599,2.913,0.752,5.816,0.515,8.643c-0.636-0.165-1.322-0.195-2.013-0.053
		c-2.415,0.498-3.969,2.859-3.471,5.273c0.369,1.792,1.763,3.108,3.445,3.468c-2.369,5.962-6.584,11.105-12.089,14.576
		c-0.016-0.112-0.03-0.226-0.054-0.341c-0.499-2.414-2.858-3.966-5.271-3.469c-2.417,0.499-3.971,2.855-3.475,5.272
		c0.16,0.774,0.515,1.462,0.999,2.021c-0.742,0.211-1.491,0.406-2.257,0.564C444.338,404.163,435.897,402.146,429.272,397.511z"/>
	<circle fill="#F05400" cx="469.982" cy="365.435" r="4.968"/>
	<circle fill="#F05400" cx="462.87" cy="382.694" r="4.967"/>
	<circle fill="#F05400" cx="445.997" cy="358.104" r="4.968"/>
	<circle fill="#F05400" cx="431.018" cy="373.415" r="4.967"/>
	<circle fill="#F05400" cx="443.919" cy="386.835" r="4.968"/>
	<circle fill="#F05400" cx="466.908" cy="475.637" r="3.61"/>
	<path fill="#F05400" d="M470.386,498.19l0.854-5.187c0,0,0,0,0.001-0.001c2.703,0.117,5.313-0.301,7.727-1.168
		c0.04,0.1,0.083,0.196,0.137,0.293l2.681,4.522c0.498,0.843,1.588,1.122,2.43,0.622c0.844-0.497,1.121-1.589,0.623-2.432
		l-2.657-4.482c2.217-1.265,4.178-2.939,5.78-4.926l4.377,2.463c0.853,0.48,1.937,0.178,2.415-0.676
		c0.482-0.855,0.178-1.936-0.676-2.415l-4.135-2.328c1.347-2.447,2.214-5.206,2.446-8.166l4.892-0.056
		c0.979-0.01,1.765-0.813,1.755-1.794c-0.014-0.979-0.816-1.764-1.794-1.752l-4.881,0.054c-0.271-2.834-1.129-5.518-2.463-7.916
		h0.003l4.273-3.065c0.796-0.57,0.977-1.679,0.406-2.476c-0.571-0.795-1.678-0.979-2.473-0.406l-4.201,3.011
		c-1.698-2.096-3.813-3.855-6.223-5.145l2.101-4.642c0.403-0.894,0.007-1.944-0.886-2.348c-0.893-0.404-1.945-0.006-2.349,0.886
		l-2.132,4.713c-1.509-0.491-3.096-0.816-4.746-0.94c-0.899-0.069-1.79-0.072-2.669-0.022l-0.927-4.925
		c-0.18-0.964-1.106-1.598-2.07-1.416c-0.965,0.18-1.595,1.107-1.415,2.072l0.896,4.771c-2.813,0.661-5.414,1.913-7.66,3.624
		l-3.246-3.779c-0.639-0.745-1.758-0.83-2.503-0.191c-0.743,0.635-0.827,1.758-0.189,2.502l3.313,3.859
		c-1.786,1.932-3.206,4.213-4.141,6.745l-4.552-1.165c-0.949-0.242-1.917,0.33-2.16,1.279c-0.242,0.948,0.331,1.914,1.28,2.158
		l4.495,1.15c-0.122,0.676-0.21,1.365-0.264,2.065c-0.166,2.187,0.027,4.324,0.521,6.348l-4.383,1.229
		c-0.943,0.264-1.493,1.243-1.228,2.188c0.262,0.942,1.241,1.494,2.184,1.23l4.566-1.279c1.089,2.465,2.652,4.685,4.586,6.531
		l-3.156,3.849c-0.621,0.759-0.512,1.875,0.247,2.497c0.758,0.621,1.876,0.512,2.497-0.246l3.183-3.882
		c2.044,1.364,4.353,2.368,6.847,2.922l-0.836,5.072c-0.158,0.968,0.495,1.878,1.463,2.038
		C469.314,499.813,470.227,499.158,470.386,498.19z M458.825,483.475c1.216-0.094,2.216-1.058,2.313-2.313
		c0.105-1.383-0.932-2.59-2.314-2.695c-0.978-0.075-1.865,0.421-2.34,1.208c-1.124-2.517-1.659-5.337-1.437-8.271
		c0.166-2.175,0.738-4.224,1.626-6.082c0.419,0.477,1.015,0.799,1.698,0.85c1.383,0.105,2.589-0.932,2.694-2.313
		c0.089-1.169-0.637-2.208-1.696-2.568c3.434-3.831,8.543-6.087,14.059-5.665c2.181,0.166,4.235,0.74,6.098,1.635
		c-0.298,0.38-0.493,0.849-0.533,1.365c-0.104,1.383,0.933,2.589,2.313,2.695c0.998,0.076,1.9-0.442,2.367-1.254
		c3.75,3.434,5.95,8.487,5.533,13.938c-0.127,1.67-0.494,3.264-1.061,4.757c-0.317-0.189-0.684-0.313-1.08-0.343
		c-1.384-0.105-2.59,0.932-2.694,2.316c-0.08,1.026,0.472,1.953,1.326,2.407c-2.206,2.859-5.285,4.991-8.801,6.012
		c0.01-0.063,0.02-0.126,0.023-0.191c0.105-1.384-0.933-2.59-2.314-2.696c-1.384-0.104-2.59,0.933-2.696,2.313
		c-0.033,0.445,0.052,0.872,0.228,1.25c-0.435-0.002-0.869-0.011-1.308-0.046C465.944,489.41,461.689,487.009,458.825,483.475z"/>
	<circle fill="#F05400" cx="476.649" cy="468.214" r="2.911"/>
</g>
</svg>
