<?xml version="1.0" encoding="utf-8"?>
<!-- Generator: Adobe Illustrator 16.0.0, SVG Export Plug-In . SVG Version: 6.00 Build 0)  -->
<!DOCTYPE svg PUBLIC "-//W3C//DTD SVG 1.1//EN" "http://www.w3.org/Graphics/SVG/1.1/DTD/svg11.dtd">
<svg version="1.1" id="Layer_1" xmlns="http://www.w3.org/2000/svg" xmlns:xlink="http://www.w3.org/1999/xlink" x="0px" y="0px"
	 width="750px" height="750px" viewBox="828.439 774.827 750 750" enable-background="new 828.439 774.827 750 750"
	 xml:space="preserve">
<path fill="#E5C5A8" d="M1383.52,1340.26c-2.551,3.471-5.1,6.939-7.65,10.41c-1.539,1.549-3.08,3.109-4.619,4.67
	c-1.75,1.789-3.5,3.58-5.25,5.369l-0.08,0.041c-5.811,5.17-11.621,10.34-17.43,15.5c-4.33,3.629-8.66,7.26-12.98,10.879
	c-2.17,1.551-4.33,3.09-6.5,4.641c-0.73,0.1-1.631-0.029-2.16,0.34c-10.01,7.131-20.75,13.041-31.6,18.77
	c-6.35,3.33-12.51,7.09-19.111,9.82c-4.359,1.801-9.359,2.111-14.068,3.09c-7.16,2.68-14.32,5.35-21.49,8.031
	c-5.5,1.27-11,2.539-16.5,3.809c-5.961,1.102-11.93,2.191-17.891,3.281c-26.93,0-53.859,0-80.779,0
	c-8.66-1.65-17.33-3.291-25.99-4.939c-5.961-1.65-11.92-3.301-17.881-4.951c-6-2.08-12-4.16-18-6.24c-1.549-0.5-3.1-1-4.66-1.49
	c-4.359-1.93-8.729-3.869-13.09-5.799c-5.9-2.891-11.809-5.781-17.709-8.67c-1.631-1.01-3.27-2.01-4.9-3.01
	c-2.541-1.891-4.99-3.932-7.66-5.631c-1.58-1.01-3.5-1.5-5.27-2.23c-11.75-8.93-23.5-17.859-35.25-26.789
	c-6.141-6.07-12.281-12.131-18.41-18.189c-2.561-4.061-7.891-6.201-8.35-11.73c1.209-1.451,2.639-2.76,3.6-4.361
	c19.471-32.129,46.43-55.67,81.41-70.309c14.811-6.201,30.17-10.031,45.99-12.33c0.76-0.109,1.559,0.07,2.35,0.109
	c1.369-0.1,2.74-0.199,4.109-0.299c7.551-0.5,15.111-1,23.541-1.561c0-10.111,0-19.99,0-29.861c0.27-2.5,0.539-5,0.809-7.488
	c-0.818-0.512-1.568-1.17-2.459-1.521c-33.541-13.16-54.699-37.939-67.82-70.369c-5.039-12.471-7.35-25.48-8.65-38.74
	c-4.1-1.24-8.359-2.23-10.59-6.459c-0.32,0.039-0.58-0.061-0.789-0.291c-7.811-3.32-10-10.49-10.371-17.551
	c-0.709-13.619-0.59-27.318,0-40.949c0.271-6.209,3.441-11.76,9.07-15.391v-0.01c2.791-4.67,7.801-5.67,12.42-7.32
	c-0.92-16.729-2.459-33.449-2.6-50.18c-0.141-17.539,1.461-35.049,6.369-52.08c0.211-0.719,0.092-1.539,0.121-2.309
	c2.039-5,9.6-20.91,11.34-23.871c2.301-2.84,4.6-5.67,6.891-8.51c3.559-3.16,7.129-6.311,10.689-9.471
	c4.01-3.119,8.01-6.24,12.02-9.359c0.35-0.16,0.73-0.26,1.041-0.48c10.039-7.059,68.059-18.879,75.479-16.99
	c7.08,0.881,60.381,0.021,63.57,0.701c2.34,0.469,4.689,0.93,7.031,1.4c6.299,2.41,12.609,4.809,18.91,7.219
	c4.709,2.711,9.42,5.42,14.129,8.141c7.98,7.061,15.961,14.119,23.939,21.18c3.26,4.641,6.521,9.279,9.781,13.92
	c2.529,5.43,5.059,10.859,7.59,16.291c1.91,9.139,4.109,18.238,5.68,27.43c3.32,19.309,4.039,38.789,2.359,58.299
	c-0.539,6.33-2.15,12.58-3.27,18.871c2.131,1.219,4.26,2.43,6.391,3.65l0.039,0.039c0.93,0.721,1.861,1.449,2.791,2.17
	c0.67,0.371,1.35,0.74,2.02,1.121c1.84,2.449,3.689,4.889,5.529,7.34c0.281,0.27,0.4,0.59,0.371,0.979
	c0.561,0.82,1.129,1.631,1.689,2.451c0.529,1.609,1.51,3.209,1.529,4.82c0.15,13.25,0.391,26.52,0.061,39.76
	c-0.311,12.16-11.109,22.889-21.24,24.58c-0.939,11.92-3.459,23.389-7.369,34.219c-1.281,3.73-2.75,7.41-4.41,11.051
	c-11.641,25.449-28.41,45.83-53.15,58.33c-4.439,2.639-9.051,5.029-13.811,7.15c0.01,0.43,0.021,0.85,0.031,1.27
	c0.1,4.6,0.189,9.199,0.289,13.83c0.16,7.76,0.33,15.59,0.49,23.609c3.59,0,6.141-0.119,8.67,0.029
	c3.881,0.221,7.74,0.631,11.609,0.951c0.83-0.09,1.65-0.18,2.48-0.26l-0.029,0.01c0.59,0.17,1.18,0.34,1.77,0.51
	c15.51,0.58,30.33,4.439,44.74,9.811c30.49,11.359,55.709,29.9,75.51,55.459 M1053.76,941.93c0.17-0.061,0.25-0.17,0.209-0.34
	C1053.889,941.7,1053.831,941.821,1053.76,941.93z"/>
<g>
	<path fill="none" d="M1262.92,507.879c-0.98,1.781-2.061,3.48-3.24,5.102c3.01-0.021,5.35-0.092,7.67,0.039
		c4.221,0.24,8.42,0.68,12.631,1.029c0.898-0.09,1.789-0.189,2.689-0.289l-0.031,0.01c0.641,0.189,1.281,0.369,1.922,0.561
		c16.879,0.639,33,4.83,48.68,10.67c33.17,12.359,60.609,32.529,82.16,60.34l16.939,24.67c-2.77,3.77-5.551,7.549-8.32,11.32
		c-1.68,1.689-3.35,3.379-5.029,5.08c-1.9,1.949-3.811,3.889-5.711,5.84l-0.09,0.039c-6.32,5.621-12.641,11.25-18.959,16.871
		c-4.711,3.949-9.42,7.9-14.131,11.84c-2.359,1.68-4.721,3.359-7.08,5.049c-0.789,0.111-1.77-0.039-2.35,0.371
		c-10.891,7.76-22.58,14.189-34.381,20.43c-6.91,3.619-13.609,7.721-20.789,10.68c-4.75,1.961-10.18,2.301-15.311,3.359
		c-7.789,2.91-15.58,5.83-23.379,8.74c-5.98,1.381-11.971,2.771-17.951,4.15c-6.49,1.189-12.98,2.381-19.469,3.57
		c-29.301,0-58.602,0-87.891,0c-9.43-1.789-18.85-3.58-28.27-5.381c-6.48-1.799-12.971-3.59-19.451-5.389
		c-6.529-2.26-13.059-4.531-19.59-6.791c-1.689-0.539-3.379-1.08-5.07-1.629c-4.75-2.1-9.5-4.211-14.25-6.311
		c-6.42-3.15-12.85-6.289-19.27-9.43c-1.779-1.09-3.549-2.18-5.33-3.281c-2.77-2.059-5.43-4.27-8.33-6.129
		c-1.719-1.1-3.809-1.641-5.74-2.43c-12.789-9.721-25.568-19.441-38.359-29.15c-6.68-6.6-13.359-13.199-20.039-19.791
		c-2.791-4.42-8.58-6.75-9.09-12.76c1.318-1.57,2.869-3.01,3.92-4.74c21.18-34.959,50.52-60.568,88.568-76.5
		c16.111-6.75,32.82-10.908,50.041-13.42c0.83-0.119,1.699,0.08,2.551,0.121c1.488-0.109,2.979-0.221,4.479-0.33
		c8.051-0.529,16.111-1.07,25.07-1.66c-2.949-2.131-5.539-4.051-7.609-5.811c-80.1-67.68-219.17,74.34-219.17,87.521
		c0,22.93,267.68,216.648,287.57,216.648c19.889,0,342.93-167.189,342.93-190.119S1272.401,490.59,1262.92,507.879z"/>
</g>
<g>
	<path fill="none" d="M1227.799,1246.379c-0.898,1.641-1.898,3.201-2.979,4.691c2.77-0.021,4.92-0.09,7.049,0.039
		c3.881,0.221,7.74,0.631,11.611,0.949c0.83-0.09,1.648-0.18,2.479-0.26l-0.029,0.01c0.59,0.172,1.18,0.342,1.77,0.512
		c15.51,0.58,30.33,4.439,44.74,9.809c30.49,11.361,55.711,29.9,75.51,55.461l15.57,22.68c-2.551,3.471-5.1,6.939-7.65,10.41
		c-1.539,1.551-3.08,3.109-4.619,4.67c-1.75,1.791-3.5,3.58-5.25,5.369l-0.08,0.041c-5.811,5.17-11.621,10.34-17.43,15.5
		c-4.33,3.631-8.66,7.26-12.98,10.881c-2.17,1.549-4.33,3.09-6.5,4.639c-0.73,0.1-1.631-0.029-2.16,0.34
		c-10.01,7.131-20.75,13.041-31.6,18.771c-6.35,3.328-12.51,7.09-19.111,9.818c-4.359,1.801-9.359,2.111-14.068,3.09
		c-7.16,2.682-14.32,5.352-21.49,8.031c-5.5,1.27-11,2.539-16.5,3.811c-5.961,1.1-11.93,2.189-17.891,3.279
		c-26.93,0-53.859,0-80.779,0c-8.66-1.65-17.33-3.291-25.99-4.939c-5.961-1.65-11.92-3.301-17.881-4.951c-6-2.08-12-4.16-18-6.24
		c-1.549-0.5-3.1-1-4.66-1.488c-4.359-1.932-8.729-3.871-13.09-5.801c-5.9-2.891-11.809-5.779-17.709-8.67
		c-1.631-1.01-3.27-2.01-4.9-3.01c-2.541-1.891-4.99-3.93-7.66-5.631c-1.58-1.01-3.5-1.5-5.27-2.23
		c-11.75-8.93-23.5-17.859-35.25-26.789c-6.141-6.07-12.281-12.131-18.41-18.189c-2.561-4.061-7.891-6.201-8.35-11.73
		c1.209-1.449,2.639-2.76,3.6-4.359c19.471-32.131,46.43-55.67,81.41-70.311c14.811-6.199,30.17-10.029,45.99-12.33
		c0.76-0.109,1.559,0.07,2.35,0.109c1.369-0.1,2.74-0.199,4.109-0.299c7.4-0.49,14.811-0.98,23.041-1.521
		c-2.711-1.959-5.09-3.729-7-5.34c-73.621-62.209-201.441,68.33-201.441,80.451c0,21.07,246.031,199.129,264.32,199.129
		c18.291,0,315.201-153.67,315.201-174.75C1479.799,1328.93,1236.52,1230.481,1227.799,1246.379z"/>
	<path fill="#016293" d="M1081.581,1252.331c-0.781-0.041-1.59-0.221-2.35-0.111c-15.83,2.301-31.191,6.131-45.99,12.33
		c-34.98,14.641-61.941,38.182-81.41,70.311c-0.971,1.59-2.391,2.91-3.6,4.359c0.459,5.531,5.789,7.67,8.35,11.73
		c6.139,6.061,12.279,12.131,18.41,18.189c11.75,8.932,23.5,17.861,35.25,26.791c1.77,0.73,3.689,1.219,5.27,2.23
		c2.67,1.709,5.119,3.738,7.66,5.629c1.629,1.01,3.27,2.01,4.9,3.01c5.898,2.891,11.809,5.781,17.709,8.67
		c4.371,1.932,8.73,3.871,13.09,5.801c1.551,0.5,3.109,1,4.66,1.49c6,2.08,12,4.16,18,6.24c5.961,1.65,11.92,3.299,17.881,4.949
		c8.66,1.65,17.33,3.291,25.99,4.939c26.93,0,53.859,0,80.779,0c5.959-1.1,11.93-2.189,17.891-3.279c5.5-1.27,11-2.541,16.5-3.811
		c7.16-2.68,14.33-5.35,21.488-8.029c4.711-0.98,9.711-1.291,14.07-3.09c6.6-2.73,12.76-6.49,19.111-9.82
		c10.85-5.73,21.59-11.641,31.6-18.77c0.529-0.381,1.43-0.24,2.16-0.34c2.17-1.551,4.34-3.09,6.5-4.641
		c4.33-3.631,8.66-7.26,12.979-10.881c5.811-5.17,11.621-10.34,17.432-15.5l0.08-0.039c1.75-1.791,3.5-3.58,5.25-5.371
		c1.539-1.549,3.08-3.109,4.619-4.67c2.551-3.469,5.1-6.939,7.65-10.41l-15.57-22.68c-19.801-25.559-45.029-44.1-75.51-55.459
		c-14.41-5.371-29.23-9.221-44.74-9.811c-0.59-0.17-1.18-0.34-1.77-0.51l0.029-0.01c-0.83,0.09-1.65,0.18-2.48,0.26
		c-3.869-0.33-7.729-0.73-11.609-0.949c-2.129-0.121-4.279-0.061-7.051-0.041c-16.479,22.791-52.359,29.93-57.658,59.881
		c-16.32-31.791-42.961-49.262-58.441-60.432c-8.229,0.541-15.639,1.041-23.039,1.521
		C1084.321,1252.139,1082.95,1252.241,1081.581,1252.331z"/>
</g>
<polygon fill="#016293" points="1238.549,1252.481 1221.459,1232.76 1195.62,1280.241 1205.5,1285.331 "/>
<polygon fill="#016293" points="1104.561,1255.811 1109.401,1234.241 1136.911,1277.231 1118.12,1283.85 "/>
<path opacity="0.2" enable-background="new    " d="M1109.231,1228.12c6.828,2.9,52.959,11.76,60.719,11.701
	c7.76-0.061,47.109-6.59,52.891-10.4c0-7.49-0.381-31.371-0.381-31.371l-113.229,1.131
	C1109.231,1199.18,1109.231,1218,1109.231,1228.12z"/>
<path opacity="0.2" enable-background="new    " d="M1141.03,1114.36c4.711,2.9,21.32,2.689,26.66,2.631
	c5.35-0.061,18.529,0.049,22.51-3.76c0-7.49,2.85-16.422-3.98-16.711c-3.629-0.15-17.488,1.461-20.35,1.461
	c-2.85,0-17.26-0.631-21-0.631C1141.37,1097.35,1141.03,1104.241,1141.03,1114.36z"/>
<line fill="none" x1="1129.95" y1="1266.35" x2="1118.959" y2="1287.28"/>
<polygon opacity="0.2" enable-background="new    " points="1219.639,1283.1 1238.549,1251.62 1219.639,1281.129 "/>
<polygon opacity="0.2" enable-background="new    " points="1119.7,1285.87 1105.86,1250.93 1118.959,1287.28 "/>
<ellipse fill="#BFAF55" cx="1163.161" cy="835.43" rx="33.85" ry="15.35"/>
<path fill="#A59D86" d="M1250.27,1143.45c-10.789,1.721-12.209,0.93-15.859-8.789c-0.961-2.561-2.01-5.09-2.871-7.682
	c-2.379-7.219-7.27-12.369-13.59-16.379c-0.811-0.541-1.629-1.07-2.439-1.609l0.08,0.09c-0.82-0.41-1.641-0.83-2.461-1.24
	l0.061,0.09c-0.82-0.4-1.641-0.791-2.459-1.189l-0.01,0.08c-8.842-2.32-17.781-3.91-26.98-3.281c-6.141,1-15.141,2.91-19.27,3.15
	c-4.131,0.24-5.271-2.061-8.5-2.17c-6.631-0.221-13.291,0.301-19.932,0.51c-4.99-1.699-9.479,0.949-14.199,1.619l-0.26,0.141
	l-0.24-0.17c-2.551,1.23-5.09,2.449-7.641,3.68l0.051-0.129c-0.449,0.379-0.9,0.76-1.35,1.139l0.049-0.039
	c-2.279,1.65-4.568,3.301-6.85,4.949l-0.029-0.1c-0.48,0.74-0.971,1.49-1.451,2.23l0.051-0.031
	c-2.77,6.592-5.51,13.201-8.311,19.781c-1.33,3.129-2.949,5.93-7.039,6.02c-8.391,0.189-15.689-2.35-21.73-8.209l0.061,0.049
	c-5.27-1.389-9.381-4.34-12.25-8.949l-0.18-0.18c-2.361-3.25-4.721-6.51-7.09-9.76c-0.25-0.711-0.49-1.422-0.74-2.131
	c-1.521-4.369-3.5-8.631-4.49-13.109c-3.43-15.41-3.631-31.111-3.83-46.811c-0.1-7.57-0.439-15.17-1.311-22.68
	c-0.6-5.141-2.311-10.15-3.52-15.211c-0.689,0.02-1.391,0.051-2.08,0.07c-0.439,4.961-1.23,9.92-1.23,14.881
	c0,9.51,0.451,19.02,0.721,28.529c0.02,12.891,0.039,25.789,0.061,38.689c-0.031,1.061-0.051,2.121-0.08,3.18
	c1.309,13.262,3.609,26.271,8.648,38.74c13.121,32.43,34.281,57.211,67.82,70.371c0.881,0.35,1.641,1,2.461,1.52
	c4.01,0.959,7.99,2.051,12.039,2.85c13.82,2.73,27.58,6.051,41.531,7.801c11.189,1.41,22.068-2.73,32.969-5.031
	c8.41-1.77,16.68-4.189,25-6.318c0.26-0.131,0.531-0.17,0.82-0.09c1.041-0.83,1.961-1.98,3.16-2.432
	c30.699-11.689,50.57-34.08,63.811-63.029c6.559-14.35,10.09-29.439,11.01-45.15c0.029-2.74,0.049-5.469,0.07-8.209
	c-0.041-14.391-0.15-28.771-0.09-43.16c0.049-11.451,0.299-22.9,0.469-34.35c-0.98,0.779-1.949,1.559-2.93,2.328
	c-0.5,1.23-1.25,2.41-1.449,3.691c-1.24,7.77-2.361,15.549-3.521,23.33c-0.02,0.809-0.039,1.619-0.068,2.43
	c0.029,10.311,0.469,20.641-0.07,30.92c-0.35,6.65-2.141,13.23-3.291,19.84c-0.139,1.1-0.27,2.199-0.41,3.301
	c-0.229,0.449-0.469,0.889-0.709,1.34l0.141,0.039c-1.33,7.26-3.451,14.18-8.471,19.9l0.08,0.01c-0.74,0.83-1.471,1.67-2.211,2.5
	l-0.039-0.029c-5.4,8.51-14.35,12.049-22.961,16.07c-0.189,0.229-0.43,0.289-0.709,0.189
	C1252.901,1142.401,1251.59,1142.93,1250.27,1143.45z M1116.879,1174.79h0.07c-2.76-5.189-5.859-10.25-8.1-15.65
	c-0.961-2.309-0.131-5.34-0.119-8.049c0.049-0.4,0.109-0.801,0.158-1.201c1.041-3.568,2.08-7.129,3.121-10.699
	c0.459-0.74,0.92-1.471,1.379-2.199c2.541-8.18,9.951-13.24,19.221-13.031c9.541,0.221,19.121,0.941,28.43-1.969
	c1.541-0.781,4.66-5,5.23-5.291c3.791,2.641,9.01,5.85,13.85,6.961c5.111-0.121,10.24-0.541,15.34-0.281
	c6.67,0.34,13.441,0.811,18.381,6.33c11.59,12.92,14.641,29.801,0.84,45.09l0.061-0.01c-2.051,2.281-4.102,4.561-6.16,6.84
	c-4.42,2.65-8.58,5.99-13.34,7.75c-4.201,1.561-9.061,1.33-11.59-3.84c-0.682-0.359-1.42-0.639-2.031-1.1
	c-10.58-7.881-23.24-7.42-33.129,1.221c-0.861,0.75-1.791,1.41-2.691,2.109l0.012-0.061c-1.66,0.711-3.301,1.971-4.99,2.041
	c-6.531,0.279-12.041-2.17-16.451-6.971c-0.439-0.391-0.879-0.789-1.32-1.18C1120.981,1179.34,1118.93,1177.061,1116.879,1174.79z"
	/>
<path fill="#CEBF59" d="M1034.62,912.25c0.211-0.721,0.09-1.541,0.121-2.311c2.039-5,4.068-9.99,6.109-14.98
	c1.74-2.959,3.49-5.92,5.23-8.879c1.859-2.291,3.719-4.59,5.57-6.881c0,0,0-0.01,0.01-0.01c0.529-0.641,1.068-1.27,1.619-1.891
	c3.461-3.068,6.92-6.129,10.391-9.199c2.939-2.291,5.879-4.58,8.83-6.869c32.689-20.471,79.109-24.25,105.229-24.592
	c3.48,0.432,6.951,0.861,10.432,1.291c6.02,0.66,12.039,1.32,18.059,1.98c3.191,0.689,6.381,1.379,9.57,2.059
	c2.34,0.471,4.689,0.932,7.031,1.4c6.299,2.41,12.609,4.811,18.91,7.221c4.709,2.709,9.42,5.42,14.129,8.139
	c7.98,7.061,15.961,14.121,23.939,21.182c3.26,4.639,6.521,9.279,9.781,13.92c2.529,5.43,5.059,10.859,7.59,16.289
	c1.91,9.141,4.109,18.24,5.68,27.43c3.32,19.311,4.039,38.791,2.359,58.301c-0.539,6.33-2.15,12.58-3.27,18.869
	c-0.381,0.441-0.75,0.881-1.131,1.311c-0.979,0.779-1.949,1.561-2.93,2.33c-0.65-1.391,2.441-3.51-0.879-4.381
	c-0.471-0.92-0.951-1.83-1.42-2.75c-2.471-22.059-6.311-43.789-15.711-64.189c-0.641-1.391-2.189-3.959-2.189-3.959
	c-0.83-1.58-1.65-3.15-2.48-4.73l0.08,0.1c-0.439-0.801-0.869-1.6-1.311-2.4c0,0-3.99-5.229-6-7.869
	c-2.33-2.07-25.648-26.791-25.648-26.791c-1.631-1.83-3.271-3.67-4.262-4.779c-7.629,0-14.398,0-21.17,0
	c-3.189,0.039-6.379,0.08-9.58,0.119c-15.42,0-30.83,0-46.25-0.01c-2.398-0.039-4.789-0.07-7.189-0.109
	c-9.02-0.461-18.061-0.77-27.07-1.439c-6.629-0.5-13.24-1.35-19.818-2.26c-6.381-0.881-28.342,21.6-35.092,27.51
	c-2.17,1.9-4.209,3.93-6.309,5.9l0.18,0.439l-0.221-0.42c-0.99,1.299-1.969,2.609-2.959,3.91c-2.881,3.779-5.76,7.559-8.631,11.34
	c-6.539,10.059-8.699,21.49-10.52,33.01c-1.6,10.15-2.721,20.391-4.689,30.471c-0.82,4.189-3.291,8.068-5.01,12.09
	c-0.691,0.02-1.391,0.049-2.08,0.068c-0.271-0.908-0.541-1.809-0.811-2.719c-0.92-16.73-2.461-33.451-2.6-50.18
	C1028.1,946.79,1029.709,929.28,1034.62,912.25z"/>
<g>
	<path fill="none" d="M1213.84,1129.709c-4.951-5.51-11.711-5.979-18.381-6.33c-5.09-0.26-10.219,0.16-15.34,0.281
		c-4.84-1.1-10.07-3.621-13.85-6.961c-0.57,0.291-3.689,4.51-5.23,5.291c-9.32,2.91-18.889,2.199-28.43,1.969
		c-9.26-0.209-16.68,4.852-19.221,13.031c-0.459,0.729-0.92,1.469-1.379,2.199c-1.041,3.57-2.08,7.131-3.121,10.699
		c-0.049,0.4-0.109,0.801-0.158,1.201c0,0.49-0.041,1-0.08,1.5c12.289,16.4,33.25,25.91,57.148,26.27c0.441,0,0.871,0,1.311,0.029
		c0.02,0,0.041,0,0.07,0c23.25,0,43.85-8.648,56.59-23.85C1224.379,1145.981,1220.549,1137.18,1213.84,1129.709z"/>
	<path fill="none" d="M1104.17,1118.331l-0.051,0.029c0.48-0.74,0.971-1.49,1.451-2.23l0.029,0.102
		c2.279-1.65,4.57-3.301,6.85-4.951l-0.049,0.041c0.449-0.381,0.898-0.76,1.35-1.141l-0.051,0.131
		c2.551-1.23,5.09-2.451,7.641-3.682l0.24,0.17l0.26-0.139c4.719-0.67,9.199-3.32,14.199-1.621c6.65-0.209,13.301-0.729,19.93-0.51
		c3.221,0.109,4.371,2.41,8.5,2.17c4.131-0.24,13.131-2.15,19.271-3.15c9.209-0.619,18.139,0.971,26.979,3.281l0.01-0.08
		c0.82,0.4,1.631,0.789,2.461,1.189l-0.061-0.09c0.82,0.41,1.641,0.83,2.461,1.24l-0.08-0.09c0.811,0.529,1.629,1.07,2.439,1.609
		c6.32,4.01,11.211,9.15,13.59,16.381c0.85,2.59,1.91,5.119,2.871,7.68c0.049,0.141,0.1,0.26,0.148,0.391
		c1.721-5.67,2.66-11.791,2.66-18.352c0-38.26-31.369-69.27-70.059-69.27c-38.691,0-70.061,31.01-70.061,69.27
		c0,5.111,0.58,9.961,1.639,14.541C1100.561,1126.94,1102.36,1122.629,1104.17,1118.331z"/>
	<path fill="#B3AB8F" d="M1167.1,1178.889c-0.439-0.029-0.869-0.02-1.311-0.029C1166.231,1178.87,1166.661,1178.889,1167.1,1178.889
		z"/>
	<path fill="#B3AB8F" d="M1231.54,1126.981c-2.379-7.221-7.27-12.371-13.59-16.381c-0.811-0.541-1.629-1.07-2.439-1.609l0.08,0.09
		c-0.82-0.41-1.641-0.83-2.461-1.24l0.061,0.09c-0.82-0.4-1.641-0.791-2.459-1.189l-0.01,0.08c-8.842-2.32-17.781-3.91-26.98-3.281
		c-6.141,1-15.141,2.91-19.27,3.15c-4.131,0.24-5.271-2.061-8.5-2.17c-6.631-0.221-13.291,0.301-19.932,0.51
		c-4.99-1.699-9.479,0.949-14.199,1.621l-0.26,0.139l-0.24-0.17c-2.551,1.23-5.09,2.451-7.641,3.68l0.051-0.129
		c-0.449,0.379-0.9,0.76-1.35,1.139l0.049-0.039c-2.279,1.65-4.568,3.301-6.85,4.949l-0.029-0.1c-0.48,0.74-0.971,1.49-1.451,2.23
		l0.051-0.029c-1.811,4.299-3.609,8.609-5.42,12.92c1.859,8.01,5.26,15.17,9.891,21.35c0.039-0.51,0.068-1.01,0.08-1.5
		c0.049-0.4,0.109-0.801,0.16-1.201c1.039-3.568,2.078-7.129,3.119-10.699c0.459-0.74,0.92-1.471,1.381-2.199
		c2.539-8.182,9.949-13.24,19.219-13.031c9.541,0.221,19.121,0.941,28.43-1.969c1.541-0.781,4.66-5,5.23-5.291
		c3.791,3.34,9.01,5.85,13.85,6.961c5.111-0.121,10.24-0.541,15.34-0.281c6.67,0.34,13.441,0.811,18.381,6.33
		c6.709,7.471,10.551,16.281,9.92,25.33c4.83-5.76,8.52-12.459,10.801-19.98c-0.051-0.139-0.102-0.25-0.15-0.389
		C1233.45,1132.1,1232.401,1129.571,1231.54,1126.981z"/>
</g>
<path fill="none" stroke="#847E6A" stroke-width="12" stroke-linecap="round" stroke-miterlimit="10" d="M1208.01,1005.77
	c0,0,21.08-4.82,33.41,0.15c12.33,4.969,21.91,10.949,25.039,15.199"/>
<ellipse fill="#016293" cx="1221.459" cy="1050.56" rx="16.441" ry="11.431"/>
<ellipse fill="#016293" cx="1106.78" cy="1050.56" rx="16.439" ry="11.431"/>
<path fill="none" stroke="#847E6A" stroke-width="12" stroke-linecap="round" stroke-miterlimit="10" d="M1066.76,1019.081
	c0,0,12.619-12.701,27.34-14.811c14.73-2.109,26.689-0.75,31.619,1.811"/>
<path fill="#4A322D" d="M1207.19,1147.44c0.359-0.811,0.711-1.631,1.07-2.439c0.58-2.621,1.17-5.23,1.73-7.85
	c1.389-6.49-0.09-8.291-6.871-8.381c-0.58-0.01-1.16,0.07-1.74,0.1c-14.609-0.129-58.449-0.02-73.559,0.02
	c-0.422-0.129-0.83-0.26-1.25-0.389c-5.33,1.469-6.5,2.9-5.012,8.08c1.58,5.49,3.861,10.779,5.84,16.16
	c0.621,0.939,2.49,4.129,3.121,5.068c2.551,2.121,3.619,5.141,5.449,5.141c9.211,13.641,45.5,9.871,59.66-1.049
	C1199.481,1157.081,1203.331,1152.26,1207.19,1147.44z"/>
<path fill="#EB536F" d="M1144.43,1168.76c0.789,0.369,1.59,0.75,2.381,1.119c9.629,2.932,19.439,5.561,29.398,2.311
	c6.26-2.039,12.102-5.34,18.131-8.07l0.051-0.049c0.408-0.721,0.818-1.451,1.229-2.17c-7.59-6.801-16.26-8.65-26.15-6.041
	c-2.479,0.65-5.439,0.721-7.889,0.041c-9.471-2.611-17.701-1.021-24.67,6.01c0.17,1.07,0.33,2.139,0.5,3.209l-0.031-0.029
	C1139.741,1166.311,1142.081,1167.54,1144.43,1168.76z"/>
<g id="Laptop">
	<path fill="#282828" d="M1415.639,1491.5H918.7v-188.689c0-9.451,9.461-17.111,21.141-17.111h454.66
		c11.68,0,21.139,7.66,21.139,17.111V1491.5z"/>
	<circle fill="#FFFFFF" cx="1167.17" cy="1432.281" r="34.22"/>
</g>
<path fill="#FEFFFF" d="M1127.821,1128.889c1.18,7.881,5.129,11.541,12.818,11.57c16,0.061,31.99,0.061,47.99,0
	c7.75-0.029,11.49-3.529,12.75-11.58c-0.379-0.049-0.76-0.1-1.139-0.17C1176.11,1128.77,1151.959,1128.831,1127.821,1128.889z"/>
<rect id="_x3C_Slice_x3E__1_" x="828.43" y="775.43" display="none" fill="none" width="751" height="747"/>
</svg>
