<?xml version="1.0" encoding="utf-8"?>
<!-- Generator: Adobe Illustrator 16.0.0, SVG Export Plug-In . SVG Version: 6.00 Build 0)  -->
<!DOCTYPE svg PUBLIC "-//W3C//DTD SVG 1.1//EN" "http://www.w3.org/Graphics/SVG/1.1/DTD/svg11.dtd">
<svg version="1.1" id="Layer_1" xmlns="http://www.w3.org/2000/svg" xmlns:xlink="http://www.w3.org/1999/xlink" x="0px" y="0px"
	 width="750px" height="750px" viewBox="828.439 1666.854 750 750" enable-background="new 828.439 1666.854 750 750"
	 xml:space="preserve">
<line fill="none" stroke="#000000" stroke-width="3" stroke-miterlimit="10" x1="1352.111" y1="1801.959" x2="1429.439" y2="1852.2"/>
<line fill="none" stroke="#000000" stroke-width="3" stroke-miterlimit="10" x1="1429.439" y1="1852.2" x2="1359.439" y2="1933.53"/>
<line fill="none" stroke="#000000" stroke-width="3" stroke-miterlimit="10" x1="1426.33" y1="1852.2" x2="1490.49" y2="1812.459"/>
<line fill="none" stroke="#000000" stroke-width="3" stroke-miterlimit="10" x1="1312.111" y1="1852.2" x2="1426.33" y2="1852.2"/>
<line fill="none" stroke="#016193" stroke-width="3" stroke-miterlimit="10" x1="1359.439" y1="1933.53" x2="1312.111" y2="1852.2"/>
<circle fill="#016293" cx="1359.439" cy="1933.53" r="10.5"/>
<g>
	
		<line fill="none" stroke="#016193" stroke-width="4" stroke-miterlimit="10" x1="1312.111" y1="1852.2" x2="1318.16" y2="1855.719"/>
	
		<line fill="none" stroke="#016193" stroke-width="4" stroke-miterlimit="10" stroke-dasharray="13.4414,13.4414" x1="1329.781" y1="1862.469" x2="1440.179" y2="1926.639"/>
	
		<line fill="none" stroke="#016193" stroke-width="4" stroke-miterlimit="10" x1="1445.99" y1="1930.02" x2="1452.05" y2="1933.53"/>
</g>
<g>
	
		<line fill="none" stroke="#016193" stroke-width="4" stroke-miterlimit="10" x1="1452.05" y1="1933.53" x2="1447.81" y2="1927.959"/>
	
		<line fill="none" stroke="#016193" stroke-width="4" stroke-miterlimit="10" stroke-dasharray="13.7473,13.7473" x1="1439.5" y1="1917.01" x2="1360.5" y2="1813.01"/>
	
		<line fill="none" stroke="#016193" stroke-width="4" stroke-miterlimit="10" x1="1356.339" y1="1807.54" x2="1352.111" y2="1801.959"/>
</g>
<circle fill="#016293" cx="1490.49" cy="1812.46" r="7.95"/>
<line fill="none" stroke="#016193" stroke-width="3" stroke-miterlimit="10" x1="1452.05" y1="1933.53" x2="1490.49" y2="1812.459"/>
<circle fill="#A59D86" cx="1452.05" cy="1933.53" r="10.5"/>
<line fill="none" stroke="#016193" stroke-width="3" stroke-miterlimit="10" x1="1352.111" y1="1801.959" x2="1490.49" y2="1812.459"/>
<circle fill="#A59D86" cx="1352.111" cy="1801.959" r="10.5"/>
<circle fill="#A59D86" cx="1312.111" cy="1852.2" r="10.5"/>
<line fill="none" stroke="#000000" stroke-width="3" stroke-miterlimit="10" x1="1452.05" y1="1933.53" x2="1426.33" y2="1853.54"/>
<circle fill="#016293" cx="1426.33" cy="1852.201" r="17.88"/>
<path fill="#E5C5A8" d="M1286.939,2300.959c-2.549,3.471-5.1,6.941-7.648,10.41c-1.541,1.551-3.08,3.111-4.621,4.67
	c-1.75,1.791-3.5,3.58-5.25,5.371l-0.08,0.039c-5.809,5.17-11.619,10.34-17.43,15.5c-4.33,3.631-8.66,7.26-12.98,10.881
	c-2.17,1.549-4.34,3.09-6.5,4.639c-0.729,0.102-1.629-0.029-2.16,0.34c-10.01,7.131-20.75,13.041-31.6,18.771
	c-6.35,3.33-12.51,7.09-19.109,9.82c-4.359,1.799-9.359,2.109-14.07,3.09c-7.16,2.68-14.32,5.35-21.49,8.029
	c-5.5,1.27-11,2.541-16.5,3.811c-5.959,1.1-11.93,2.189-17.889,3.279c-26.932,0-53.861,0-80.781,0
	c-8.66-1.65-17.33-3.289-25.99-4.939c-5.959-1.65-11.92-3.301-17.879-4.949c-6-2.08-12-4.16-18-6.24c-1.551-0.5-3.1-1-4.66-1.49
	c-4.361-1.93-8.73-3.871-13.09-5.801c-5.9-2.889-11.811-5.779-17.711-8.67c-1.629-1.01-3.27-2.01-4.9-3.01
	c-2.539-1.891-4.99-3.93-7.66-5.629c-1.58-1.012-3.5-1.5-5.27-2.23c-11.75-8.93-23.5-17.861-35.25-26.791
	c-6.139-6.07-12.279-12.129-18.41-18.189c-2.559-4.061-7.889-6.199-8.35-11.73c1.211-1.449,2.641-2.76,3.6-4.359
	c19.471-32.131,46.43-55.67,81.41-70.311c14.811-6.199,30.17-10.029,45.99-12.33c0.76-0.109,1.561,0.07,2.35,0.111
	c1.371-0.102,2.74-0.201,4.111-0.301c7.549-0.5,15.109-1,23.539-1.561c0-10.109,0-19.99,0-29.859c0.27-2.5,0.541-5,0.811-7.49
	c-0.82-0.51-1.57-1.17-2.461-1.52c-33.539-13.16-54.699-37.941-67.82-70.371c-5.039-12.469-7.35-25.48-8.648-38.74
	c-4.102-1.24-8.361-2.229-10.592-6.459c-0.318,0.039-0.578-0.061-0.789-0.291c-7.811-3.32-10-10.49-10.369-17.549
	c-0.711-13.621-0.592-27.32,0-40.951c0.27-6.209,3.439-11.76,9.068-15.389v-0.012c2.791-4.67,7.801-5.67,12.42-7.318
	c-0.92-16.73-2.459-33.451-2.6-50.182c-0.139-17.539,1.461-35.049,6.371-52.078c0.209-0.721,0.09-1.541,0.119-2.311
	c2.041-5,9.6-20.91,11.34-23.871c2.301-2.84,4.6-5.67,6.891-8.51c3.561-3.16,7.129-6.311,10.689-9.469
	c4.01-3.121,8.01-6.24,12.02-9.361c0.352-0.16,0.73-0.26,1.041-0.479c10.039-7.061,68.061-18.881,75.48-16.99
	c7.08,0.879,60.379,0.02,63.57,0.699c2.34,0.471,4.689,0.93,7.029,1.4c6.301,2.41,12.609,4.811,18.91,7.219
	c4.709,2.711,9.42,5.422,14.129,8.141c7.98,7.061,15.961,14.121,23.941,21.18c3.26,4.641,6.52,9.281,9.779,13.92
	c2.529,5.432,5.061,10.861,7.59,16.291c1.91,9.141,4.109,18.24,5.68,27.43c3.32,19.311,4.041,38.791,2.361,58.301
	c-0.541,6.33-2.15,12.58-3.271,18.869c2.131,1.221,4.26,2.43,6.391,3.65l0.041,0.039c0.93,0.721,1.859,1.451,2.789,2.172
	c0.67,0.369,1.35,0.738,2.02,1.119c1.84,2.449,3.691,4.891,5.531,7.34c0.279,0.27,0.398,0.59,0.369,0.98
	c0.561,0.82,1.131,1.629,1.689,2.449c0.531,1.609,1.51,3.211,1.531,4.82c0.15,13.25,0.389,26.52,0.059,39.76
	c-0.309,12.16-11.109,22.891-21.238,24.58c-0.941,11.92-3.461,23.391-7.371,34.221c-1.279,3.729-2.75,7.41-4.41,11.049
	c-11.639,25.451-28.41,45.83-53.15,58.33c-4.439,2.641-9.049,5.031-13.809,7.15c0.01,0.43,0.02,0.85,0.029,1.27
	c0.1,4.602,0.189,9.201,0.291,13.83c0.158,7.76,0.328,15.59,0.488,23.611c3.59,0,6.141-0.121,8.67,0.029
	c3.881,0.221,7.74,0.631,11.611,0.949c0.83-0.09,1.65-0.18,2.48-0.26l-0.031,0.01c0.59,0.17,1.18,0.342,1.77,0.512
	c15.512,0.58,30.33,4.439,44.74,9.809c30.49,11.361,55.711,29.9,75.51,55.461 M957.169,1902.629c0.17-0.059,0.25-0.17,0.211-0.34
	C957.3,1902.411,957.24,1902.52,957.169,1902.629z"/>
<g>
	<path fill="none" d="M1131.21,2207.081c-0.9,1.639-1.9,3.199-2.98,4.689c2.77-0.02,4.92-0.09,7.051,0.041
		c3.879,0.219,7.738,0.629,11.609,0.949c0.83-0.09,1.65-0.18,2.48-0.26l-0.031,0.01c0.59,0.17,1.18,0.34,1.771,0.51
		c15.51,0.58,30.328,4.439,44.738,9.811c30.49,11.359,55.711,29.9,75.512,55.459l15.568,22.68c-2.549,3.471-5.1,6.941-7.648,10.41
		c-1.541,1.551-3.08,3.111-4.621,4.67c-1.75,1.791-3.5,3.58-5.25,5.371l-0.08,0.039c-5.811,5.17-11.619,10.34-17.43,15.5
		c-4.33,3.631-8.66,7.26-12.98,10.881c-2.17,1.549-4.34,3.09-6.5,4.639c-0.73,0.102-1.629-0.029-2.16,0.342
		c-10.01,7.129-20.75,13.039-31.6,18.77c-6.35,3.33-12.51,7.09-19.109,9.82c-4.361,1.799-9.361,2.109-14.07,3.09
		c-7.16,2.68-14.32,5.35-21.49,8.029c-5.5,1.27-11,2.541-16.5,3.811c-5.959,1.1-11.93,2.189-17.891,3.279
		c-26.93,0-53.859,0-80.779,0c-8.66-1.648-17.33-3.289-25.99-4.939c-5.959-1.65-11.92-3.301-17.879-4.949c-6-2.08-12-4.16-18-6.24
		c-1.551-0.5-3.102-1-4.66-1.49c-4.361-1.93-8.73-3.871-13.09-5.801c-5.9-2.889-11.811-5.779-17.711-8.67
		c-1.631-1.01-3.27-2.01-4.9-3.01c-2.539-1.889-4.99-3.93-7.66-5.629c-1.58-1.01-3.5-1.5-5.27-2.23
		c-11.75-8.93-23.5-17.859-35.25-26.791c-6.141-6.068-12.279-12.129-18.41-18.189c-2.561-4.061-7.891-6.199-8.35-11.73
		c1.211-1.449,2.641-2.76,3.6-4.359c19.471-32.129,46.43-55.67,81.41-70.311c14.811-6.199,30.17-10.029,45.99-12.33
		c0.76-0.109,1.561,0.07,2.35,0.111c1.371-0.102,2.74-0.201,4.109-0.301c7.4-0.49,14.811-0.98,23.041-1.52
		c-2.711-1.961-5.09-3.73-7-5.34c-73.621-62.211-201.439,68.33-201.439,80.449c0,21.07,246.029,199.131,264.32,199.131
		c18.289,0,315.199-153.67,315.199-174.75C1383.21,2289.629,1139.929,2191.18,1131.21,2207.081z"/>
	<path fill="#016293" d="M984.99,2213.04c-0.779-0.039-1.59-0.219-2.35-0.109c-15.83,2.301-31.189,6.129-45.99,12.33
		c-34.98,14.641-61.939,38.18-81.41,70.311c-0.971,1.59-2.391,2.91-3.6,4.359c0.459,5.529,5.789,7.67,8.35,11.73
		c6.141,6.061,12.279,12.129,18.41,18.189c11.75,8.93,23.5,17.859,35.25,26.791c1.77,0.729,3.689,1.219,5.27,2.229
		c2.67,1.711,5.121,3.74,7.66,5.631c1.631,1.01,3.27,2.01,4.9,3.01c5.9,2.891,11.811,5.779,17.709,8.67
		c4.371,1.93,8.73,3.869,13.092,5.801c1.549,0.5,3.109,1,4.658,1.488c6,2.08,12,4.16,18,6.24c5.961,1.65,11.922,3.301,17.881,4.951
		c8.66,1.648,17.33,3.289,25.99,4.939c26.93,0,53.859,0,80.779,0c5.961-1.1,11.93-2.189,17.891-3.279c5.5-1.271,11-2.541,16.5-3.811
		c7.16-2.68,14.33-5.35,21.49-8.031c4.709-0.979,9.709-1.289,14.07-3.09c6.6-2.729,12.76-6.49,19.109-9.82
		c10.85-5.729,21.59-11.639,31.6-18.77c0.531-0.379,1.43-0.24,2.16-0.34c2.17-1.551,4.34-3.09,6.5-4.641
		c4.33-3.629,8.66-7.26,12.98-10.879c5.811-5.17,11.619-10.34,17.43-15.5l0.08-0.041c1.75-1.789,3.5-3.58,5.25-5.369
		c1.539-1.551,3.08-3.109,4.619-4.67c2.551-3.471,5.102-6.939,7.65-10.41l-15.57-22.68c-19.799-25.561-45.029-44.1-75.51-55.461
		c-14.41-5.369-29.229-9.219-44.74-9.809c-0.59-0.17-1.18-0.34-1.77-0.51l0.031-0.012c-0.83,0.092-1.65,0.182-2.48,0.262
		c-3.871-0.33-7.73-0.73-11.611-0.951c-2.129-0.119-4.279-0.061-7.049-0.039c-16.471,22.789-52.359,29.93-57.66,59.879
		c-16.32-31.789-42.961-49.26-58.439-60.43c-8.23,0.541-15.641,1.041-23.041,1.52C987.73,2212.84,986.359,2212.94,984.99,2213.04z"
		/>
</g>
<polygon fill="#016293" points="1141.96,2213.18 1124.871,2193.459 1099.031,2240.94 1108.919,2246.03 "/>
<polygon fill="#016293" points="1007.97,2216.52 1012.81,2194.94 1040.32,2237.93 1021.531,2244.561 "/>
<path opacity="0.2" enable-background="new    " d="M1012.64,2188.821c6.83,2.898,52.959,11.76,60.721,11.699
	c7.76-0.061,47.109-6.59,52.889-10.4c0-7.49-0.379-31.369-0.379-31.369l-113.23,1.129
	C1012.64,2159.889,1012.64,2178.7,1012.64,2188.821z"/>
<path opacity="0.2" enable-background="new    " d="M1044.439,2075.061c4.711,2.898,21.32,2.689,26.66,2.629
	c5.352-0.061,18.531,0.051,22.512-3.76c0-7.49,2.859-16.42-3.98-16.711c-3.631-0.148-17.49,1.461-20.34,1.461s-17.26-0.631-21-0.631
	C1044.781,2058.049,1044.439,2064.94,1044.439,2075.061z"/>
<line fill="none" x1="1033.359" y1="2227.061" x2="1022.371" y2="2247.981"/>
<polygon opacity="0.2" enable-background="new    " points="1123.05,2243.799 1141.96,2212.321 1123.05,2241.831 "/>
<polygon opacity="0.2" enable-background="new    " points="1023.109,2246.571 1009.269,2211.629 1022.371,2247.981 "/>
<ellipse fill="#BFAF55" cx="1066.57" cy="1796.13" rx="33.85" ry="15.351"/>
<path fill="#A59D86" d="M1153.679,2104.161c-10.789,1.719-12.209,0.93-15.859-8.791c-0.959-2.561-2.01-5.09-2.869-7.68
	c-2.381-7.221-7.271-12.369-13.59-16.379c-0.811-0.541-1.631-1.07-2.441-1.611l0.08,0.09c-0.82-0.41-1.639-0.83-2.459-1.24
	l0.059,0.092c-0.818-0.4-1.639-0.791-2.459-1.191l-0.01,0.08c-8.84-2.32-17.781-3.91-26.98-3.279c-6.141,1-15.141,2.91-19.27,3.15
	c-4.131,0.24-5.27-2.061-8.5-2.17c-6.631-0.221-13.291,0.299-19.93,0.51c-4.99-1.701-9.48,0.949-14.201,1.619l-0.26,0.141
	l-0.24-0.17c-2.549,1.23-5.09,2.449-7.639,3.68l0.049-0.129c-0.449,0.379-0.9,0.76-1.35,1.139l0.051-0.039
	c-2.281,1.648-4.57,3.299-6.852,4.949l-0.029-0.1c-0.48,0.74-0.971,1.49-1.449,2.23l0.049-0.031
	c-2.77,6.59-5.51,13.201-8.311,19.781c-1.328,3.129-2.949,5.93-7.039,6.02c-8.391,0.189-15.689-2.35-21.73-8.211l0.061,0.051
	c-5.27-1.391-9.381-4.34-12.25-8.949l-0.18-0.182c-2.359-3.25-4.721-6.51-7.09-9.76c-0.25-0.709-0.49-1.42-0.74-2.129
	c-1.52-4.371-3.5-8.631-4.49-13.111c-3.43-15.41-3.631-31.109-3.83-46.809c-0.1-7.57-0.439-15.17-1.311-22.682
	c-0.6-5.139-2.309-10.148-3.52-15.209c-0.689,0.02-1.391,0.051-2.08,0.07c-0.439,4.959-1.23,9.92-1.23,14.879
	c0,9.51,0.451,19.021,0.721,28.531c0.02,12.889,0.039,25.789,0.061,38.689c-0.031,1.061-0.051,2.121-0.08,3.18
	c1.309,13.26,3.609,26.27,8.65,38.74c13.119,32.43,34.279,57.211,67.818,70.371c0.881,0.35,1.641,1,2.461,1.52
	c4.01,0.959,7.99,2.049,12.039,2.85c13.82,2.73,27.58,6.051,41.531,7.801c11.189,1.41,22.07-2.73,32.969-5.031
	c8.41-1.77,16.682-4.189,25-6.32c0.26-0.129,0.531-0.17,0.82-0.09c1.041-0.83,1.961-1.979,3.16-2.43
	c30.699-11.689,50.57-34.08,63.811-63.029c6.561-14.35,10.09-29.439,11.01-45.15c0.029-2.74,0.051-5.471,0.07-8.209
	c-0.041-14.391-0.15-28.771-0.09-43.16c0.049-11.451,0.299-22.9,0.469-34.352c-0.979,0.781-1.949,1.561-2.93,2.33
	c-0.5,1.23-1.25,2.41-1.449,3.691c-1.24,7.77-2.361,15.549-3.52,23.33c-0.021,0.809-0.041,1.619-0.07,2.43
	c0.029,10.309,0.469,20.639-0.07,30.92c-0.35,6.65-2.141,13.23-3.291,19.84c-0.139,1.1-0.27,2.199-0.41,3.301
	c-0.229,0.449-0.469,0.889-0.709,1.34l0.141,0.039c-1.33,7.26-3.451,14.18-8.471,19.9l0.08,0.01c-0.74,0.83-1.471,1.67-2.211,2.5
	l-0.039-0.029c-5.4,8.51-14.35,12.049-22.961,16.07c-0.189,0.229-0.43,0.289-0.709,0.189
	C1156.31,2103.1,1155,2103.629,1153.679,2104.161z M1020.291,2135.491h0.068c-2.76-5.191-5.859-10.25-8.1-15.65
	c-0.959-2.311-0.129-5.34-0.119-8.051c0.049-0.398,0.109-0.799,0.16-1.199c1.039-3.57,2.08-7.131,3.119-10.699
	c0.461-0.74,0.92-1.471,1.381-2.201c2.539-8.18,9.949-13.24,19.219-13.029c9.541,0.219,19.121,0.939,28.432-1.971
	c1.539-0.779,4.66-5,5.229-5.289c3.791,2.639,9.01,5.85,13.852,6.959c5.109-0.119,10.238-0.539,15.34-0.279
	c6.67,0.34,13.439,0.811,18.379,6.33c11.59,12.92,14.641,29.799,0.84,45.09l0.061-0.01c-2.051,2.279-4.1,4.561-6.16,6.84
	c-4.42,2.65-8.58,5.99-13.34,7.75c-4.199,1.561-9.061,1.33-11.59-3.84c-0.68-0.361-1.42-0.641-2.029-1.1
	c-10.58-7.881-23.24-7.42-33.131,1.219c-0.859,0.75-1.791,1.41-2.689,2.111l0.01-0.061c-1.66,0.709-3.301,1.969-4.99,2.039
	c-6.529,0.281-12.041-2.17-16.449-6.969c-0.441-0.391-0.881-0.791-1.32-1.18C1024.39,2140.04,1022.339,2137.77,1020.291,2135.491z"
	/>
<path fill="#CEBF59" d="M938.031,1872.959c0.209-0.719,0.09-1.539,0.119-2.309c2.039-5,4.07-9.99,6.109-14.98
	c1.74-2.961,3.49-5.92,5.23-8.881c1.859-2.289,3.721-4.59,5.57-6.879c0,0,0-0.01,0.01-0.01c0.529-0.641,1.07-1.271,1.619-1.891
	c3.461-3.07,6.92-6.131,10.391-9.201c2.939-2.289,5.881-4.578,8.83-6.869c32.689-20.471,79.109-24.25,105.23-24.59
	c3.48,0.43,6.949,0.859,10.43,1.289c6.02,0.66,12.041,1.32,18.061,1.98c3.189,0.689,6.379,1.381,9.57,2.061
	c2.34,0.471,4.689,0.93,7.029,1.4c6.301,2.41,12.609,4.811,18.91,7.219c4.709,2.711,9.42,5.42,14.129,8.141
	c7.98,7.061,15.961,14.121,23.941,21.18c3.26,4.641,6.52,9.281,9.779,13.92c2.529,5.432,5.061,10.861,7.59,16.291
	c1.91,9.141,4.109,18.24,5.68,27.43c3.32,19.311,4.041,38.791,2.361,58.301c-0.541,6.33-2.15,12.58-3.271,18.869
	c-0.379,0.439-0.75,0.881-1.129,1.311c-0.98,0.779-1.951,1.561-2.93,2.33c-0.65-1.391,2.439-3.51-0.881-4.381
	c-0.471-0.92-0.949-1.83-1.42-2.75c-2.471-22.061-6.311-43.789-15.709-64.189c-0.641-1.391-2.191-3.961-2.191-3.961
	c-0.83-1.58-1.65-3.148-2.479-4.729l0.078,0.1c-0.439-0.801-0.869-1.6-1.309-2.4c0,0-3.99-5.23-6-7.869
	c-2.33-2.07-25.65-26.791-25.65-26.791c-1.631-1.83-3.27-3.67-4.26-4.779c-7.631,0-14.4,0-21.17,0
	c-3.191,0.039-6.381,0.08-9.58,0.119c-15.42,0-30.83,0-46.25-0.01c-2.4-0.039-4.791-0.07-7.189-0.109
	c-9.021-0.461-18.061-0.771-27.07-1.441c-6.631-0.5-13.24-1.35-19.82-2.26c-6.381-0.879-28.34,21.602-35.09,27.51
	c-2.17,1.9-4.211,3.932-6.311,5.9l0.18,0.441l-0.219-0.422c-0.99,1.301-1.971,2.611-2.961,3.91c-2.881,3.781-5.76,7.561-8.631,11.34
	c-6.539,10.061-8.699,21.49-10.52,33.012c-1.6,10.148-2.719,20.389-4.689,30.469c-0.82,4.189-3.291,8.07-5.01,12.09
	c-0.689,0.021-1.391,0.051-2.08,0.07c-0.27-0.91-0.541-1.811-0.811-2.721c-0.92-16.729-2.459-33.449-2.6-50.18
	C931.519,1907.491,933.121,1889.981,938.031,1872.959z"/>
<g>
	<path fill="none" d="M1007.58,2079.03l-0.049,0.031c0.479-0.74,0.969-1.49,1.449-2.23l0.029,0.1c2.281-1.65,4.57-3.301,6.852-4.949
		l-0.051,0.039c0.449-0.379,0.9-0.76,1.35-1.139l-0.049,0.129c2.549-1.23,5.09-2.449,7.639-3.68l0.24,0.17l0.26-0.141
		c4.721-0.67,9.201-3.32,14.201-1.619c6.648-0.211,13.299-0.73,19.93-0.51c3.219,0.109,4.369,2.41,8.5,2.17
		c4.129-0.24,13.129-2.15,19.27-3.15c9.211-0.621,18.141,0.971,26.98,3.279l0.01-0.08c0.82,0.4,1.629,0.791,2.459,1.191
		l-0.059-0.092c0.818,0.41,1.639,0.83,2.459,1.24l-0.08-0.09c0.811,0.531,1.631,1.07,2.439,1.611
		c6.32,4.01,11.211,9.148,13.592,16.379c0.85,2.59,1.908,5.121,2.869,7.68c0.051,0.141,0.1,0.26,0.15,0.391
		c1.719-5.67,2.66-11.791,2.66-18.35c0-38.262-31.371-69.271-70.061-69.271s-70.061,31.01-70.061,69.271
		c0,5.109,0.58,9.959,1.641,14.539C1003.97,2087.639,1005.769,2083.34,1007.58,2079.03z"/>
	<path fill="none" d="M1117.25,2090.411c-4.949-5.51-11.709-5.98-18.379-6.33c-5.09-0.26-10.221,0.16-15.34,0.279
		c-4.842-1.1-10.07-3.619-13.852-6.959c-0.568,0.289-3.689,4.51-5.229,5.289c-9.32,2.91-18.891,2.199-28.432,1.971
		c-9.26-0.211-16.68,4.85-19.219,13.029c-0.461,0.73-0.92,1.471-1.381,2.199c-1.039,3.57-2.08,7.131-3.119,10.701
		c-0.051,0.4-0.111,0.799-0.16,1.199c0,0.49-0.041,1-0.08,1.5c12.289,16.4,33.25,25.91,57.15,26.27c0.439,0,0.869,0,1.309,0.031
		c0.021,0,0.041,0,0.07,0c23.25,0,43.85-8.65,56.59-23.85C1127.8,2106.69,1123.96,2097.879,1117.25,2090.411z"/>
	<path fill="#B3AB8F" d="M1134.951,2087.68c-2.381-7.221-7.271-12.371-13.59-16.381c-0.811-0.539-1.631-1.068-2.441-1.609l0.08,0.09
		c-0.82-0.41-1.639-0.83-2.459-1.24l0.059,0.09c-0.818-0.398-1.639-0.789-2.459-1.189l-0.01,0.08
		c-8.84-2.32-17.781-3.91-26.98-3.279c-6.141,1-15.141,2.91-19.27,3.15c-4.131,0.238-5.27-2.061-8.5-2.17
		c-6.631-0.221-13.291,0.299-19.93,0.51c-4.99-1.701-9.48,0.949-14.201,1.619l-0.26,0.141l-0.24-0.17
		c-2.549,1.23-5.09,2.449-7.639,3.68l0.049-0.131c-0.449,0.381-0.9,0.762-1.35,1.141l0.051-0.039
		c-2.281,1.648-4.57,3.299-6.852,4.949l-0.029-0.1c-0.48,0.74-0.971,1.49-1.449,2.229l0.049-0.029
		c-1.811,4.301-3.609,8.609-5.42,12.92c1.859,8.01,5.26,15.17,9.891,21.35c0.039-0.51,0.07-1.01,0.08-1.5
		c0.049-0.398,0.109-0.799,0.16-1.199c1.039-3.57,2.08-7.131,3.119-10.699c0.461-0.74,0.92-1.471,1.381-2.201
		c2.539-8.18,9.949-13.24,19.219-13.029c9.541,0.219,19.121,0.939,28.432-1.971c1.539-0.779,4.658-5,5.229-5.289
		c3.791,3.34,9.01,5.85,13.85,6.959c5.111-0.119,10.24-0.539,15.342-0.279c6.67,0.34,13.439,0.811,18.379,6.33
		c6.711,7.469,10.551,16.279,9.92,25.33c4.83-5.76,8.52-12.461,10.801-19.98c-0.051-0.141-0.1-0.25-0.15-0.391
		C1136.861,2092.799,1135.81,2090.28,1134.951,2087.68z"/>
	<path fill="#B3AB8F" d="M1070.509,2139.59c-0.439-0.029-0.869-0.02-1.309-0.029C1069.64,2139.571,1070.07,2139.59,1070.509,2139.59
		z"/>
</g>
<path fill="none" stroke="#847E6A" stroke-width="12" stroke-linecap="round" stroke-miterlimit="10" d="M1111.419,1966.481
	c0,0,21.08-4.82,33.41,0.148c12.33,4.971,21.91,10.951,25.041,15.201"/>
<ellipse fill="#016293" cx="1136.8" cy="1999.831" rx="16.439" ry="11.43"/>
<ellipse fill="#016293" cx="1022.109" cy="1999.831" rx="16.441" ry="11.43"/>
<path fill="none" stroke="#847E6A" stroke-width="12" stroke-linecap="round" stroke-miterlimit="10" d="M970.169,1979.78
	c0,0,12.621-12.699,27.34-14.811c14.73-2.109,26.691-0.75,31.621,1.811"/>
<path fill="#4A322D" d="M1110.599,2108.151c0.361-0.811,0.711-1.631,1.07-2.441c0.58-2.619,1.17-5.229,1.73-7.85
	c1.391-6.49-0.09-8.289-6.869-8.379c-0.58-0.012-1.16,0.068-1.74,0.1c-14.611-0.131-58.451-0.02-73.561,0.02
	c-0.42-0.129-0.83-0.26-1.25-0.391c-5.33,1.471-6.5,2.9-5.01,8.08c1.58,5.49,3.859,10.781,5.84,16.16
	c0.619,0.941,2.49,4.131,3.119,5.07c2.551,2.121,3.621,5.141,5.451,5.141c9.209,13.639,45.5,9.869,59.66-1.051
	C1102.89,2117.78,1106.75,2112.959,1110.599,2108.151z"/>
<path fill="#EB536F" d="M1047.839,2129.459c0.791,0.371,1.59,0.75,2.381,1.121c9.629,2.93,19.439,5.561,29.4,2.311
	c6.26-2.041,12.1-5.342,18.129-8.07l0.051-0.051c0.41-0.721,0.82-1.449,1.23-2.17c-7.592-6.801-16.262-8.65-26.15-6.039
	c-2.48,0.648-5.441,0.719-7.891,0.039c-9.471-2.609-17.699-1.02-24.67,6.01c0.17,1.07,0.33,2.141,0.5,3.211l-0.029-0.031
	C1043.15,2127.01,1045.49,2128.241,1047.839,2129.459z"/>
<path fill="#FEFFFF" d="M1031.23,2089.6c1.18,7.881,5.129,11.541,12.82,11.57c16,0.061,31.99,0.061,47.99,0
	c7.75-0.029,11.49-3.529,12.75-11.58c-0.381-0.051-0.76-0.1-1.141-0.17C1079.519,2089.469,1055.371,2089.54,1031.23,2089.6z"/>
<path fill="none" stroke="#000000" stroke-width="7" stroke-miterlimit="10" d="M1549.719,1871.17
	c0,81.15-69.735,146.93-155.77,146.93c-42.036,0-80.187-15.709-108.213-41.24c-8.064-7.34-53.979,17.08-100.601,65.27
	c-46.621,48.191,69.48-104.59,65.771-112.689c-8.188-17.859-12.728-37.561-12.728-58.26c0-81.15,69.747-146.93,155.77-146.93
	C1479.975,1724.25,1549.719,1790.03,1549.719,1871.17z"/>
<rect id="_x3C_Slice_x3E__2_" x="828.43" y="1669.43" display="none" fill="none" width="748" height="751"/>
</svg>
