<?xml version="1.0" encoding="utf-8"?>
<!-- Generator: Adobe Illustrator 16.0.0, SVG Export Plug-In . SVG Version: 6.00 Build 0)  -->
<!DOCTYPE svg PUBLIC "-//W3C//DTD SVG 1.1//EN" "http://www.w3.org/Graphics/SVG/1.1/DTD/svg11.dtd">
<svg version="1.1" id="Layer_1" xmlns="http://www.w3.org/2000/svg" xmlns:xlink="http://www.w3.org/1999/xlink" x="0px" y="0px"
	 width="750px" height="750px" viewBox="828.439 -1.856 750 750" enable-background="new 828.439 -1.856 750 750"
	 xml:space="preserve">
<path fill="#E5C5A8" d="M1432.34,610.03c-2.77,3.77-5.551,7.551-8.32,11.32c-1.68,1.689-3.35,3.381-5.029,5.08
	c-1.9,1.949-3.811,3.891-5.711,5.84l-0.09,0.041c-6.32,5.619-12.641,11.25-18.959,16.869c-4.711,3.949-9.42,7.9-14.131,11.84
	c-2.359,1.68-4.721,3.359-7.08,5.051c-0.789,0.109-1.77-0.041-2.35,0.369c-10.891,7.76-22.58,14.189-34.381,20.43
	c-6.91,3.621-13.609,7.721-20.789,10.68c-4.75,1.961-10.18,2.301-15.311,3.361c-7.789,2.91-15.58,5.83-23.379,8.74
	c-5.98,1.379-11.971,2.77-17.951,4.148c-6.49,1.191-12.98,2.381-19.469,3.57c-29.301,0-58.602,0-87.891,0
	c-9.43-1.789-18.85-3.58-28.27-5.379c-6.48-1.801-12.971-3.59-19.451-5.391c-6.529-2.26-13.061-4.529-19.59-6.789
	c-1.689-0.541-3.379-1.08-5.07-1.631c-4.75-2.1-9.5-4.211-14.25-6.311c-6.42-3.15-12.85-6.289-19.27-9.43
	c-1.779-1.09-3.551-2.18-5.33-3.279c-2.77-2.061-5.43-4.271-8.33-6.131c-1.719-1.1-3.811-1.641-5.74-2.43
	c-12.789-9.721-25.57-19.439-38.359-29.15c-6.68-6.6-13.359-13.199-20.039-19.789c-2.791-4.42-8.58-6.75-9.092-12.76
	c1.32-1.57,2.871-3.012,3.92-4.74c21.182-34.961,50.521-60.57,88.57-76.5c16.111-6.75,32.82-10.91,50.041-13.42
	c0.83-0.121,1.699,0.08,2.549,0.119c1.49-0.109,2.98-0.221,4.48-0.33c8.221-0.539,16.43-1.09,25.611-1.689c0-11,0-21.75,0-32.49
	c0.299-2.721,0.59-5.439,0.889-8.15c-0.889-0.561-1.709-1.27-2.67-1.65c-36.49-14.318-59.51-41.27-73.779-76.559
	c-5.49-13.57-7.99-27.73-9.42-42.151c-4.461-1.35-9.09-2.42-11.521-7.03c-0.35,0.05-0.629-0.06-0.859-0.32
	c-8.5-3.61-10.879-11.41-11.279-19.1c-0.781-14.82-0.641-29.72,0-44.55c0.289-6.76,3.74-12.79,9.869-16.74v-0.01
	c3.041-5.08,8.49-6.17,13.51-7.97c-1-18.2-2.68-36.39-2.83-54.6c-0.16-19.09,1.59-38.13,6.932-56.66c0.229-0.79,0.1-1.68,0.139-2.52
	c2.211-5.43,10.441-22.74,12.34-25.96c2.5-3.09,5-6.17,7.5-9.26c3.881-3.44,7.76-6.87,11.631-10.31
	c4.359-3.4,8.721-6.79,13.08-10.18c0.379-0.17,0.799-0.29,1.129-0.52c10.932-7.68,74.051-20.54,82.121-18.48
	c7.699,0.95,65.689,0.02,69.16,0.77c2.549,0.51,5.1,1.01,7.65,1.52c6.859,2.62,13.709,5.23,20.568,7.85
	c5.131,2.95,10.25,5.9,15.381,8.85c8.68,7.68,17.369,15.36,26.051,23.04c3.549,5.05,7.1,10.1,10.639,15.14
	c2.75,5.91,5.51,11.81,8.26,17.72c2.08,9.95,4.471,19.84,6.182,29.85c3.609,21.01,4.398,42.21,2.568,63.43
	c-0.59,6.89-2.34,13.69-3.549,20.53c2.32,1.33,4.639,2.65,6.959,3.97l0.051,0.05c1.01,0.79,2.029,1.57,3.039,2.36
	c0.73,0.4,1.461,0.81,2.201,1.21c2.01,2.66,4.01,5.33,6.02,7.99c0.301,0.29,0.439,0.65,0.41,1.06c0.609,0.89,1.221,1.78,1.84,2.67
	c0.58,1.75,1.641,3.49,1.66,5.25c0.16,14.42,0.43,28.85,0.061,43.26c-0.33,13.23-12.08,24.9-23.111,26.75
	c-1.02,12.96-3.77,25.45-8.02,37.229c-1.391,4.061-2.99,8.061-4.799,12.021c-12.66,27.689-30.9,49.859-57.83,63.459
	c-4.83,2.871-9.852,5.471-15.031,7.779c0.01,0.461,0.02,0.92,0.031,1.391c0.1,5,0.209,10.01,0.309,15.051
	c0.182,8.439,0.352,16.959,0.541,25.689c3.91,0,6.68-0.131,9.43,0.029c4.221,0.24,8.42,0.682,12.631,1.031
	c0.898-0.09,1.789-0.191,2.689-0.291l-0.031,0.01c0.641,0.191,1.281,0.371,1.922,0.561c16.879,0.641,33,4.83,48.68,10.67
	c33.17,12.359,60.609,32.531,82.16,60.34 M1073.561,176.65c0.189-0.07,0.279-0.18,0.229-0.37
	C1073.7,176.4,1073.629,176.53,1073.561,176.65z"/>
<g>
	<path fill="none" d="M1262.92,507.879c-0.98,1.781-2.061,3.48-3.24,5.102c3.01-0.021,5.35-0.092,7.67,0.039
		c4.221,0.24,8.42,0.68,12.631,1.029c0.898-0.09,1.789-0.189,2.689-0.289l-0.031,0.01c0.641,0.189,1.281,0.369,1.922,0.561
		c16.879,0.639,33,4.83,48.68,10.67c33.17,12.359,60.609,32.529,82.16,60.34l16.939,24.67c-2.77,3.77-5.551,7.549-8.32,11.32
		c-1.68,1.689-3.35,3.379-5.029,5.08c-1.9,1.949-3.811,3.889-5.711,5.84l-0.09,0.039c-6.32,5.621-12.641,11.25-18.959,16.871
		c-4.711,3.949-9.42,7.9-14.131,11.84c-2.359,1.68-4.721,3.359-7.08,5.049c-0.789,0.111-1.77-0.039-2.35,0.371
		c-10.891,7.76-22.58,14.189-34.381,20.43c-6.91,3.619-13.609,7.721-20.789,10.68c-4.75,1.961-10.18,2.301-15.311,3.359
		c-7.789,2.91-15.58,5.83-23.379,8.74c-5.98,1.381-11.971,2.771-17.951,4.15c-6.49,1.189-12.98,2.381-19.469,3.57
		c-29.301,0-58.602,0-87.891,0c-9.43-1.789-18.85-3.58-28.27-5.381c-6.48-1.799-12.971-3.59-19.451-5.389
		c-6.529-2.26-13.059-4.531-19.59-6.791c-1.689-0.539-3.379-1.08-5.07-1.629c-4.75-2.1-9.5-4.211-14.25-6.311
		c-6.42-3.15-12.85-6.289-19.27-9.43c-1.779-1.09-3.549-2.18-5.33-3.281c-2.77-2.059-5.43-4.27-8.33-6.129
		c-1.719-1.1-3.809-1.641-5.74-2.43c-12.789-9.721-25.568-19.441-38.359-29.15c-6.68-6.6-13.359-13.199-20.039-19.791
		c-2.791-4.42-8.58-6.75-9.09-12.76c1.318-1.57,2.869-3.01,3.92-4.74c21.18-34.959,50.52-60.568,88.568-76.5
		c16.111-6.75,32.82-10.908,50.041-13.42c0.83-0.119,1.699,0.08,2.551,0.121c1.488-0.109,2.979-0.221,4.479-0.33
		c8.051-0.529,16.111-1.07,25.07-1.66c-2.949-2.131-5.539-4.051-7.609-5.811c-80.1-67.68-219.17,74.34-219.17,87.521
		c0,22.93,267.68,216.648,287.57,216.648c19.889,0,342.93-167.189,342.93-190.119S1272.401,490.59,1262.92,507.879z"/>
	<path fill="#016293" d="M1103.821,514.37c-0.852-0.049-1.73-0.24-2.551-0.119c-17.221,2.5-33.93,6.67-50.041,13.42
		c-38.049,15.93-67.389,41.539-88.568,76.5c-1.051,1.73-2.602,3.17-3.92,4.74c0.51,6.01,6.299,8.34,9.09,12.76
		c6.68,6.6,13.359,13.199,20.039,19.789c12.791,9.721,25.57,19.441,38.359,29.15c1.932,0.791,4.021,1.33,5.74,2.43
		c2.9,1.85,5.57,4.07,8.33,6.131c1.781,1.09,3.551,2.18,5.33,3.279c6.42,3.15,12.85,6.291,19.27,9.43
		c4.75,2.102,9.5,4.211,14.25,6.311c1.691,0.541,3.381,1.08,5.07,1.631c6.531,2.27,13.061,4.529,19.59,6.789
		c6.48,1.791,12.971,3.59,19.451,5.391c9.42,1.789,18.85,3.58,28.27,5.379c29.301,0,58.59,0,87.891,0
		c6.49-1.189,12.979-2.379,19.469-3.57c5.98-1.379,11.971-2.76,17.951-4.148c7.789-2.91,15.59-5.83,23.379-8.74
		c5.131-1.061,10.561-1.4,15.311-3.361c7.18-2.969,13.881-7.059,20.789-10.68c11.801-6.24,23.5-12.67,34.381-20.43
		c0.57-0.41,1.551-0.26,2.35-0.369c2.361-1.68,4.721-3.361,7.08-5.051c4.711-3.949,9.42-7.9,14.131-11.84
		c6.32-5.619,12.639-11.25,18.959-16.869l0.09-0.041c1.9-1.949,3.811-3.891,5.711-5.84c1.68-1.689,3.35-3.381,5.029-5.08
		c2.77-3.77,5.551-7.551,8.32-11.32l-16.939-24.67c-21.541-27.811-48.99-47.98-82.16-60.34c-15.68-5.84-31.801-10.039-48.68-10.67
		c-0.641-0.189-1.281-0.369-1.92-0.561l0.029-0.01c-0.9,0.1-1.801,0.191-2.689,0.291c-4.211-0.35-8.42-0.791-12.631-1.031
		c-2.32-0.129-4.66-0.059-7.67-0.039c-17.92,24.789-56.971,32.57-62.73,65.15c-17.75-34.59-46.74-53.59-63.58-65.75
		c-8.959,0.59-17.02,1.129-25.068,1.66C1106.811,514.151,1105.321,514.26,1103.821,514.37z"/>
</g>
<polygon fill="#016293" points="1274.61,514.53 1256.02,493.071 1227.901,544.731 1238.661,550.27 "/>
<polygon fill="#016293" points="1128.831,518.151 1134.09,494.68 1164.03,541.45 1143.581,548.661 "/>
<path opacity="0.2" enable-background="new    " d="M1133.911,488.02c7.43,3.15,57.619,12.801,66.059,12.73
	c8.441-0.061,51.25-7.17,57.541-11.311c0-8.15-0.41-34.131-0.41-34.131l-123.199,1.23
	C1133.911,456.54,1133.911,477.01,1133.911,488.02z"/>
<path opacity="0.2" enable-background="new    " d="M1168.51,364.25c5.119,3.15,23.189,2.93,29.01,2.87s20.16,0.05,24.49-4.09
	c0-8.15,3.109-17.86-4.33-18.18c-3.949-0.17-19.029,1.59-22.141,1.59c-3.1,0-18.779-0.69-22.85-0.69
	C1168.879,345.75,1168.51,353.24,1168.51,364.25z"/>
<line fill="none" x1="1156.459" y1="529.62" x2="1144.5" y2="552.379"/>
<polygon opacity="0.2" enable-background="new    " points="1254.04,547.84 1274.61,513.581 1254.04,545.69 "/>
<polygon opacity="0.2" enable-background="new    " points="1145.299,550.85 1130.25,512.831 1144.5,552.379 "/>
<ellipse fill="#BFAF55" cx="1192.581" cy="60.78" rx="36.83" ry="16.7"/>
<path fill="#A59D86" d="M1287.36,395.9c-11.74,1.87-13.289,1.011-17.26-9.569c-1.041-2.781-2.189-5.541-3.119-8.351
	c-2.592-7.86-7.91-13.46-14.781-17.82c-0.891-0.58-1.77-1.17-2.66-1.75l0.08,0.1c-0.891-0.45-1.779-0.9-2.67-1.35l0.07,0.09
	c-0.891-0.43-1.779-0.86-2.67-1.3l-0.01,0.09c-9.621-2.52-19.34-4.25-29.361-3.57c-6.68,1.09-16.479,3.16-20.969,3.43
	s-5.74-2.25-9.24-2.36c-7.211-0.24-14.461,0.33-21.689,0.56c-5.432-1.85-10.311,1.03-15.451,1.76l-0.279,0.15l-0.26-0.18
	c-2.77,1.33-5.541,2.67-8.311,4l0.061-0.15c-0.49,0.41-0.98,0.83-1.471,1.25l0.061-0.04c-2.48,1.8-4.971,3.59-7.461,5.39
	l-0.029-0.11c-0.529,0.81-1.051,1.62-1.58,2.43l0.051-0.03c-3.01,7.17-6,14.36-9.041,21.521c-1.449,3.41-3.209,6.449-7.66,6.549
	c-9.129,0.201-17.08-2.559-23.65-8.93l0.07,0.051c-5.729-1.52-10.199-4.721-13.32-9.73l-0.189-0.19
	c-2.57-3.54-5.139-7.08-7.709-10.62c-0.271-0.77-0.531-1.54-0.801-2.31c-1.66-4.75-3.801-9.39-4.891-14.27
	c-3.729-16.77-3.939-33.85-4.17-50.93c-0.109-8.23-0.479-16.5-1.43-24.67c-0.65-5.59-2.51-11.04-3.83-16.55
	c-0.75,0.03-1.51,0.05-2.27,0.08c-0.48,5.4-1.34,10.79-1.34,16.19c0,10.34,0.49,20.69,0.779,31.04
	c0.021,14.03,0.041,28.06,0.061,42.09c-0.029,1.15-0.061,2.31-0.09,3.46c1.42,14.42,3.93,28.58,9.42,42.15
	c14.27,35.289,37.291,62.24,73.779,76.559c0.961,0.381,1.791,1.092,2.67,1.65c4.361,1.041,8.701,2.23,13.092,3.1
	c15.039,2.971,30,6.58,45.189,8.49c12.18,1.531,24.01-2.969,35.869-5.469c9.15-1.93,18.141-4.561,27.211-6.881
	c0.279-0.141,0.58-0.18,0.889-0.1c1.141-0.9,2.141-2.15,3.432-2.641c33.398-12.719,55.02-37.08,69.42-68.57
	c7.139-15.609,10.979-32.029,11.979-49.119c0.031-2.98,0.051-5.96,0.08-8.93c-0.039-15.65-0.17-31.3-0.1-46.95
	c0.051-12.46,0.33-24.92,0.51-37.38c-1.059,0.85-2.119,1.69-3.189,2.54c-0.539,1.33-1.359,2.63-1.58,4.01
	c-1.35,8.45-2.561,16.92-3.82,25.39c-0.02,0.88-0.049,1.76-0.07,2.65c0.031,11.22,0.512,22.46-0.078,33.64
	c-0.381,7.24-2.33,14.39-3.58,21.59c-0.15,1.2-0.301,2.39-0.451,3.59c-0.26,0.49-0.51,0.97-0.77,1.46l0.15,0.04
	c-1.439,7.89-3.76,15.43-9.221,21.65l0.09,0.02c-0.799,0.91-1.6,1.82-2.4,2.72l-0.039-0.04c-5.881,9.25-15.609,13.119-24.98,17.48
	c-0.209,0.25-0.469,0.319-0.779,0.209C1290.219,394.76,1288.79,395.331,1287.36,395.9z M1142.231,430h0.068
	c-3-5.65-6.369-11.15-8.809-17.031c-1.041-2.51-0.141-5.809-0.131-8.76c0.061-0.43,0.119-0.869,0.17-1.299
	c1.131-3.881,2.26-7.761,3.4-11.641c0.5-0.8,1.01-1.6,1.51-2.4c2.76-8.899,10.83-14.41,20.91-14.169
	c10.381,0.24,20.801,1.02,30.939-2.15c1.68-0.85,5.07-5.44,5.689-5.76c4.121,2.87,9.811,6.37,15.07,7.57
	c5.561-0.13,11.141-0.59,16.68-0.31c7.262,0.37,14.621,0.89,20,6.88c12.611,14.05,15.932,32.42,0.91,49.061l0.07-0.01
	c-2.23,2.479-4.459,4.959-6.699,7.439c-4.811,2.889-9.33,6.52-14.51,8.439c-4.57,1.699-9.85,1.439-12.611-4.17
	c-0.738-0.4-1.549-0.699-2.209-1.199c-11.51-8.58-25.279-8.07-36.041,1.33c-0.93,0.818-1.949,1.539-2.93,2.299l0.01-0.061
	c-1.809,0.781-3.59,2.15-5.43,2.221c-7.1,0.311-13.1-2.359-17.9-7.58c-0.479-0.43-0.959-0.859-1.439-1.289
	C1146.7,434.95,1144.459,432.469,1142.231,430z"/>
<path fill="#CEBF59" d="M1052.731,144.36c0.229-0.79,0.1-1.68,0.139-2.52c2.211-5.43,4.43-10.87,6.65-16.3
	c1.9-3.22,3.791-6.44,5.689-9.66c2.021-2.5,4.041-4.99,6.061-7.49c0,0,0-0.01,0.01-0.01c0.57-0.7,1.17-1.38,1.76-2.06
	c3.771-3.34,7.531-6.67,11.301-10.01c3.199-2.49,6.4-4.98,9.6-7.48c35.57-22.27,86.07-26.38,114.49-26.76
	c3.779,0.47,7.561,0.94,11.34,1.4c6.551,0.72,13.1,1.44,19.65,2.15c3.469,0.75,6.939,1.5,10.41,2.25c2.549,0.51,5.1,1.01,7.65,1.52
	c6.859,2.62,13.709,5.23,20.568,7.85c5.131,2.95,10.25,5.9,15.381,8.85c8.68,7.68,17.369,15.36,26.051,23.04
	c3.549,5.05,7.1,10.1,10.639,15.14c2.75,5.91,5.51,11.81,8.26,17.72c2.08,9.95,4.471,19.84,6.182,29.85
	c3.609,21.01,4.398,42.21,2.568,63.43c-0.59,6.89-2.34,13.69-3.549,20.53c-0.41,0.48-0.82,0.95-1.23,1.43
	c-1.061,0.85-2.119,1.69-3.189,2.54c-0.701-1.51,2.65-3.82-0.961-4.76c-0.51-1-1.029-1.99-1.539-2.99
	c-2.689-24-6.871-47.65-17.1-69.84c-0.701-1.51-2.391-4.31-2.391-4.31c-0.9-1.71-1.801-3.43-2.699-5.14l0.078,0.11
	c-0.469-0.87-0.949-1.74-1.42-2.61c0,0-4.34-5.69-6.52-8.56c-2.529-2.25-27.91-29.15-27.91-29.15c-1.779-2-3.561-3.99-4.629-5.2
	c-8.311,0-15.67,0-23.041,0c-3.469,0.04-6.949,0.09-10.42,0.13c-16.77,0-33.551-0.01-50.32-0.01c-2.609-0.04-5.209-0.08-7.82-0.12
	c-9.818-0.51-19.648-0.84-29.459-1.57c-7.211-0.54-14.4-1.47-21.561-2.46c-6.939-0.96-30.83,23.5-38.17,29.93
	c-2.359,2.07-4.58,4.28-6.869,6.42l0.199,0.47l-0.24-0.46c-1.07,1.42-2.15,2.84-3.219,4.26c-3.131,4.11-6.262,8.23-9.391,12.34
	c-7.121,10.94-9.471,23.38-11.449,35.91c-1.75,11.05-2.961,22.19-5.111,33.15c-0.889,4.56-3.58,8.78-5.449,13.16
	c-0.75,0.03-1.51,0.05-2.27,0.08c-0.301-0.98-0.59-1.97-0.881-2.95c-1-18.2-2.68-36.39-2.83-54.6
	C1045.651,181.93,1047.401,162.89,1052.731,144.36z"/>
<g>
	<path fill="none" d="M1137.43,360.9c-0.02,0.01-0.041,0.03-0.051,0.04l0,0L1137.43,360.9z"/>
	<path fill="none" d="M1247.719,380.95c-5.379-6-12.75-6.51-20-6.88c-5.539-0.29-11.119,0.18-16.68,0.31
		c-5.26-1.2-10.949-3.94-15.07-7.57c-0.619,0.32-4.02,4.91-5.689,5.76c-10.141,3.17-20.549,2.39-30.939,2.15
		c-10.08-0.23-18.141,5.271-20.91,14.17c-0.5,0.8-1,1.601-1.51,2.399c-1.131,3.881-2.26,7.76-3.4,11.641
		c-0.061,0.43-0.119,0.869-0.17,1.301c0,0.539-0.041,1.078-0.08,1.629c13.381,17.84,36.189,28.199,62.189,28.58
		c0.471,0,0.941,0,1.41,0.029c0.02,0,0.051,0,0.07,0c25.301,0,47.711-9.41,61.57-25.949
		C1259.2,398.661,1255.02,389.081,1247.719,380.95z"/>
	<path fill="none" d="M1128.411,368.57l-0.051,0.03c0.529-0.81,1.051-1.62,1.58-2.43l0.029,0.11c2.471-1.78,4.932-3.57,7.4-5.35
		c0.49-0.41,0.98-0.83,1.471-1.24l-0.061,0.15c2.77-1.34,5.541-2.67,8.311-4l0.26,0.18l0.279-0.15
		c5.131-0.73,10.01-3.62,15.451-1.76c7.229-0.23,14.469-0.8,21.689-0.56c3.51,0.12,4.75,2.63,9.24,2.36s14.289-2.33,20.969-3.43
		c10.021-0.68,19.74,1.05,29.361,3.57l0.01-0.09c0.891,0.43,1.779,0.86,2.67,1.3l-0.07-0.09c0.891,0.45,1.781,0.9,2.67,1.35
		l-0.08-0.1c0.891,0.58,1.771,1.16,2.66,1.75c6.871,4.36,12.189,9.96,14.781,17.82c0.93,2.82,2.08,5.57,3.119,8.35
		c0.061,0.15,0.109,0.289,0.16,0.43c1.869-6.17,2.9-12.83,2.9-19.97c0-41.62-34.131-75.37-76.221-75.37s-76.219,33.74-76.219,75.37
		c0,5.56,0.629,10.84,1.789,15.82C1124.481,377.94,1126.44,373.25,1128.411,368.57z"/>
	<path fill="#B3AB8F" d="M1196.87,434.459c-0.469-0.029-0.939-0.029-1.41-0.029C1195.94,434.44,1196.401,434.459,1196.87,434.459z"
		/>
	<path fill="#B3AB8F" d="M1266.991,377.98c-2.59-7.86-7.91-13.46-14.781-17.82c-0.889-0.58-1.77-1.17-2.66-1.75l0.08,0.1
		c-0.889-0.45-1.779-0.9-2.67-1.35l0.07,0.09c-0.891-0.43-1.779-0.86-2.67-1.3l-0.01,0.09c-9.621-2.52-19.34-4.25-29.359-3.57
		c-6.682,1.09-16.48,3.16-20.971,3.43s-5.74-2.25-9.24-2.36c-7.209-0.24-14.459,0.33-21.689,0.56
		c-5.43-1.85-10.311,1.03-15.451,1.76l-0.279,0.15l-0.26-0.18c-2.77,1.33-5.541,2.67-8.311,4l0.061-0.15
		c-0.49,0.41-0.98,0.83-1.471,1.24c0.021-0.01,0.041-0.03,0.051-0.04l-0.061,0.04l0,0c-2.469,1.78-4.93,3.57-7.4,5.35l-0.029-0.11
		c-0.529,0.81-1.051,1.62-1.58,2.43l0.051-0.03c-1.971,4.68-3.932,9.37-5.891,14.05c2.02,8.721,5.721,16.5,10.76,23.23
		c0.041-0.551,0.08-1.1,0.08-1.631c0.061-0.43,0.119-0.869,0.17-1.299c1.131-3.881,2.26-7.761,3.4-11.641c0.5-0.8,1.01-1.6,1.51-2.4
		c2.76-8.899,10.83-14.41,20.91-14.169c10.381,0.24,20.801,1.02,30.939-2.15c1.68-0.85,5.07-5.44,5.689-5.76
		c4.121,3.63,9.811,6.37,15.07,7.57c5.561-0.13,11.141-0.59,16.68-0.31c7.262,0.37,14.621,0.89,20,6.88
		c7.301,8.13,11.471,17.709,10.801,27.561c5.25-6.26,9.26-13.551,11.75-21.74c-0.051-0.141-0.109-0.28-0.16-0.431
		C1269.061,383.549,1267.92,380.799,1266.991,377.98z"/>
</g>
<path fill="none" stroke="#847E6A" stroke-width="12" stroke-linecap="round" stroke-miterlimit="10" d="M1241.379,246.11
	c0,0,22.941-5.24,36.352,0.16c13.42,5.4,23.84,11.91,27.238,16.54"/>
<path fill="#016293" d="M1119.639,282.33c-8.629,2.98-14.729,9.64-14.85,17.4c11.76-6.9,26.33-10.67,36.91-6.24
	c10.58,4.43,12.07,5.67,19.221,9.04c-0.52-2.28-1.189-9.16-8.33-15.6C1145.44,280.48,1131.299,279.13,1119.639,282.33z"/>
<ellipse fill="#016293" cx="1256.02" cy="294.59" rx="17.891" ry="17.69"/>
<path fill="none" stroke="#847E6A" stroke-width="12" stroke-linecap="round" stroke-miterlimit="10" d="M1087.709,260.58
	c0,0,13.73-13.82,29.75-16.11c16.021-2.29,29.031-0.82,34.41,1.97"/>
<path fill="#4A322D" d="M1240.491,400.25c0.389-0.891,0.779-1.77,1.17-2.66c0.629-2.85,1.27-5.69,1.879-8.541
	c1.51-7.069-0.1-9.02-7.469-9.119c-0.631-0.01-1.26,0.07-1.891,0.109c-15.9-0.14-63.6-0.02-80.041,0.021
	c-0.449-0.14-0.908-0.28-1.359-0.42c-5.799,1.6-7.07,3.149-5.449,8.79c1.719,5.97,4.199,11.73,6.35,17.58
	c0.68,1.029,2.709,4.49,3.391,5.51c2.77,2.301,3.939,5.59,5.93,5.59c10.02,14.84,49.5,10.73,64.91-1.141
	C1232.1,410.731,1236.299,405.491,1240.491,400.25z"/>
<path fill="#EB536F" d="M1172.209,423.44c0.861,0.41,1.73,0.811,2.59,1.221c10.48,3.18,21.16,6.049,31.99,2.52
	c6.811-2.221,13.17-5.811,19.73-8.779l0.061-0.061c0.449-0.791,0.889-1.57,1.34-2.359c-8.25-7.4-17.689-9.41-28.451-6.57
	c-2.689,0.709-5.91,0.779-8.58,0.039c-10.299-2.84-19.25-1.109-26.84,6.541c0.182,1.16,0.361,2.33,0.551,3.49l-0.029-0.031
	C1167.1,420.78,1169.661,422.11,1172.209,423.44z"/>
<path fill="#FEFFFF" d="M1154.139,380.07c1.281,8.58,5.58,12.55,13.951,12.591c17.4,0.06,34.811,0.069,52.209,0
	c8.432-0.031,12.51-3.841,13.881-12.601c-0.41-0.05-0.83-0.11-1.24-0.181C1206.67,379.93,1180.401,380,1154.139,380.07z"/>
<rect id="_x3C_Slice_x3E_" x="829.43" y="-6.57" display="none" fill="none" width="750" height="754"/>
</svg>
