<?xml version="1.0" encoding="utf-8"?>
<!-- Generator: Adobe Illustrator 16.0.0, SVG Export Plug-In . SVG Version: 6.00 Build 0)  -->
<!DOCTYPE svg PUBLIC "-//W3C//DTD SVG 1.1//EN" "http://www.w3.org/Graphics/SVG/1.1/DTD/svg11.dtd">
<svg version="1.1" id="Layer_1" xmlns="http://www.w3.org/2000/svg" xmlns:xlink="http://www.w3.org/1999/xlink" x="0px" y="0px"
	 width="750px" height="750px" viewBox="2.93 -1.857 750 750" enable-background="new 2.93 -1.857 750 750" xml:space="preserve">
<path fill="#E5C5A8" d="M313.08,451.04c-1.92-8.379-4.09-43.08-6.38-51.289c-1.66-2.08-3.03-4.771-4.38-7.17
	c-1.4-2.08-0.75-1.11-2.44-3.721c-2.42-3.74-0.57-1.76,0.84-4.99l-0.01,0.021c4.8-11.26,2.18-27.95-6.29-36.69
	c-8.78-9.06-21.82-19.42-34.8-20.67c-30.96-2.97-63.26-7.87-92.45,5.2c-1.49,4.48-15.25,2.13-16.85,8.19
	c1.13-4.29-4.57,0.28-6.45,1.06c-3.46,1.44-6.93,2.89-10.39,4.33c-6.9,2.88-25.35,18.66-32.25,21.54
	c5.75-8.44-10.85-18.14-25.04-18.73c-14.2-0.59-40.62,14.79-30.96,37.86c4.41,10.54,9.56,18.03,19.72,14.591
	c6.94-2.352,8.46-5.011,14.79-8.681c8.78-5.08-0.5,3.579-1.92,5.841c-13.25,12.35-19.3,35.809-36.65,42.988
	c3.05,0.4,6,0.371,9.09,0.381c1.84,0,4.55-0.721,4.09-0.141c2.69-0.66,18.02-21.439,17.81-21.629c-4.84,7.33-9.47,25.33-16.81,29.85
	c10.14,0.08,14.05-16.77,21.11-23.76c-5.11,5.059-4.36,24.129-10.06,29.74c9.33-3.07,10.49-23.381,16.29-30.73
	c0.1,16.141,6.08,32.879,11.86,47.789c5.17,12.9,10.14,29.59,21.82,38.141c5.35,0,16.8,19.189,19.38,23.76
	c7.51,13.311,20.68,39.641,20.9,54.561c0.22,14.98-8,24.91-13.61,38.84c-3.38,8.391-15.22,13.52-21.52,19.939
	c-5.71,5.811-13.21,10.16-18.55,16.15c54.95,0,109.91,0,164.86,0c-3.62-9.23-27.36-21.9-28.57-32.15
	c-2.36-8.42,2.7-50.189,18.34-49.32c40.75,2.25,47.38,9.771,55.51-9.83c0.64-1.539,8.319-19.209,4.09-19.119
	c-11,0.25-31.19-7.311-38.83-9.67c-1.69-0.52-6.49-8.961,4.67-9.08c28.32,3.34,25.05,1.49,32.439-1.91
	c2.41-1.109,1.351-14.26-1.989-15.34c1.859-7.131,24.6-6.4,21.52-16.051C333.35,496.09,315.03,459.54,313.08,451.04z"/>
<path fill="#E5C5A8" d="M334.93,261.5c0.971,1.42,1.94,2.84,2.91,4.26c0.58,0.64,1.17,1.27,1.76,1.91c0.66,0.73,1.33,1.46,1.99,2.2
	l0.03,0.02c2.21,2.11,4.41,4.23,6.62,6.34c1.64,1.48,3.29,2.97,4.93,4.45c0.82,0.63,1.65,1.26,2.47,1.9
	c0.28,0.04,0.62-0.01,0.82,0.14c3.8,2.92,7.88,5.33,12,7.68c2.41,1.36,4.75,2.9,7.26,4.02c1.66,0.74,3.55,0.86,5.339,1.26
	c2.721,1.09,5.441,2.19,8.16,3.28c2.09,0.52,4.182,1.04,6.271,1.56c2.27,0.45,4.529,0.89,6.799,1.34c10.23,0,20.461,0,30.691,0
	c3.289-0.67,6.578-1.35,9.869-2.02c2.26-0.67,4.529-1.35,6.789-2.02c2.281-0.85,4.561-1.7,6.842-2.55c0.59-0.2,1.18-0.41,1.77-0.61
	c1.66-0.79,3.32-1.58,4.98-2.37c2.238-1.18,4.479-2.36,6.729-3.55c0.621-0.41,1.24-0.82,1.861-1.23c0.969-0.77,1.898-1.61,2.91-2.3
	c0.6-0.41,1.328-0.62,2-0.91c4.459-3.65,8.93-7.31,13.389-10.96c2.33-2.48,4.66-4.96,7-7.44c0.971-1.66,3-2.54,3.17-4.8
	c-0.459-0.59-1-1.13-1.369-1.78c-7.4-13.14-17.641-22.77-30.93-28.76c-5.631-2.54-11.461-4.1-17.471-5.04
	c-0.289-0.04-3.74,0.74-4.039,0.75c-0.521-0.04-1.041-0.08-1.561-0.12c-2.871-0.2-5.74-0.41-8.939-0.64c0-4.14,0-8.17,0-12.21
	c-0.102-1.02-0.211-2.04-0.311-3.06c0.311-0.21,0.65-0.39,0.93-0.62c11.439-9.39,20.141-23.24,26.631-34.96
	c2.629-4.76,3.02-5.17,4.119-10.43c1.561-0.51,4.619-0.84,5.471-2.57c0.119,0.02,0.219-0.02,0.299-0.12
	c2.971-1.36,3.801-4.29,3.939-7.18c0.271-5.57,0.221-11.17,0-16.75c-0.1-2.54-1.309-4.81-3.449-6.29v-0.01
	c-1.061-1.91-2.959-2.32-4.721-2.99c0.352-6.84-2.488-13.15-2.439-20c0.051-7.18-0.42-9.54-2.289-16.5
	c-0.08-0.3-0.031-0.63-0.051-0.95c-0.77-2.04-3.65-6.7-4.311-7.91c-0.869-1.16-1.75-2.32-2.619-3.48
	c-1.35-1.29-2.711-2.58-4.061-3.87c-1.52-1.28-3.039-2.55-4.57-3.83c-0.129-0.06-0.279-0.11-0.398-0.2
	c-3.811-2.89-22.432-6.77-25.25-6c-2.691,0.36-21.311,0.48-22.521,0.76c-0.889,0.19-1.779,0.38-2.67,0.57
	c-2.389,0.98-4.789,1.97-7.18,2.95c-1.789,1.11-3.58,2.22-5.369,3.33c-3.031,2.89-6.061,5.77-9.101,8.66
	c-1.239,1.9-2.479,3.8-3.72,5.69c-0.96,2.22-1.92,2.59-2.89,4.81c-0.73,3.74-1.69,2.66-2.29,6.42c-1.26,7.9-2.271,14.39-1.63,22.37
	c0.21,2.59-0.08,4.67,0.34,7.24c-0.811,0.5-1.62,1-2.43,1.49l-0.021,0.02c-0.35,0.3-0.71,0.59-1.06,0.89
	c-0.261,0.15-0.511,0.3-0.771,0.46c-0.7,1-1.399,2-2.1,3c-0.11,0.11-0.15,0.24-0.141,0.4c-0.21,0.33-0.43,0.67-0.64,1
	c-0.2,0.66-0.57,1.31-0.58,1.97c-0.06,5.42-0.149,10.84-0.02,16.26c0.12,4.97,6.159,7.71,10.01,8.41c0.36,4.87,0.38,3.63,1.649,8.13
	c3.391,12.01,19.391,32.87,28.401,39.91c0,0.17-0.01,0.35-0.01,0.52c-0.041,1.88-0.07,3.76-0.111,5.66
	c-0.059,3.17-0.119,6.38-0.189,9.66c-1.359,0-2.33-0.05-3.289,0.01c-1.471,0.09-2.941,0.26-4.41,0.39
	c-0.311-0.04-0.631-0.07-0.941-0.11l0.012,0.01c-0.221,0.07-0.451,0.14-0.672,0.21c-5.889,0.24-13.609,0.72-19.079,2.91
	c-11.58,4.65-21.16,12.23-28.69,22.68"/>
<path fill="#E5C5A8" d="M694.709,257.18c-0.93,1.26-1.859,2.53-2.789,3.79c-0.561,0.57-1.121,1.13-1.689,1.7
	c-0.641,0.65-1.281,1.3-1.91,1.96l-0.031,0.01c-2.119,1.88-4.24,3.77-6.359,5.65c-1.58,1.32-3.16,2.65-4.73,3.97
	c-0.789,0.56-1.58,1.13-2.369,1.69c-0.27,0.04-0.59-0.01-0.791,0.13c-3.65,2.6-7.57,4.75-11.52,6.85
	c-2.311,1.21-4.561,2.59-6.971,3.58c-1.59,0.66-3.408,0.77-5.129,1.13c-2.609,0.98-5.221,1.95-7.84,2.93
	c-2.01,0.46-4.01,0.93-6.02,1.39c-2.172,0.4-4.352,0.8-6.521,1.2c-9.82,0-19.639,0-29.459,0c-3.16-0.6-6.32-1.2-9.48-1.8
	c-2.17-0.6-4.35-1.2-6.52-1.81c-2.191-0.76-4.381-1.52-6.561-2.28c-0.57-0.18-1.131-0.36-1.699-0.54
	c-1.59-0.71-3.182-1.41-4.771-2.12c-2.148-1.05-4.309-2.11-6.459-3.16c-0.6-0.37-1.189-0.73-1.791-1.1
	c-0.93-0.69-1.818-1.43-2.789-2.05c-0.58-0.37-1.279-0.55-1.92-0.81c-4.291-3.26-8.57-6.51-12.859-9.77
	c-2.24-2.21-4.48-4.42-6.711-6.63c-0.939-1.48-2.881-2.26-3.051-4.28c0.441-0.53,0.961-1.01,1.311-1.59
	c7.1-11.72,16.93-20.3,29.689-25.64c5.4-2.26,11-3.66,16.771-4.5c0.279-0.04,0.57,0.03,0.859,0.04c0.5-0.04,1-0.07,1.5-0.11
	c2.75-0.18,5.51-0.37,8.59-0.57c0-3.69,0-7.29,0-10.89c0.1-0.91,0.199-1.82,0.301-2.73c-0.301-0.19-0.57-0.43-0.9-0.55
	c-12.23-4.8-19.951-13.83-24.73-25.66c-1.84-4.55-2.68-9.29-3.16-14.13c-1.5-0.45-3.049-0.81-3.859-2.36
	c-0.121,0.01-0.211-0.02-0.291-0.11c-2.85-1.21-3.648-3.83-3.779-6.4c-0.26-4.97-0.209-9.96,0-14.93c0.1-2.27,1.25-4.29,3.311-5.61
	l0,0c1.02-1.7,2.85-2.07,4.529-2.67c-0.34-6.1-0.9-12.2-0.949-18.3c-0.051-6.4,0.529-12.78,2.32-18.99
	c0.08-0.26,0.029-0.56,0.039-0.84c0.74-1.82,3.5-7.62,4.141-8.7c0.84-1.04,1.68-2.07,2.51-3.1c1.299-1.15,2.6-2.3,3.9-3.45
	c1.459-1.14,2.92-2.28,4.379-3.41c0.131-0.06,0.27-0.1,0.381-0.18c3.66-2.57,24.82-6.89,27.529-6.2c2.58,0.32,22.02,0.01,23.18,0.26
	c0.852,0.17,1.711,0.34,2.561,0.51c2.301,0.88,4.6,1.75,6.9,2.63c1.719,0.99,3.439,1.98,5.15,2.97c2.91,2.57,5.82,5.15,8.729,7.72
	c1.191,1.69,2.381,3.38,3.57,5.08c0.92,1.98,1.85,3.96,2.771,5.94c0.699,3.33,1.5,6.65,2.068,10c1.211,7.04,1.471,14.15,0.861,21.26
	c-0.201,2.31-0.781,4.59-1.191,6.88c0.781,0.44,1.551,0.89,2.33,1.33l0.021,0.02c0.34,0.26,0.68,0.53,1.02,0.79
	c0.25,0.14,0.49,0.27,0.74,0.41c0.67,0.89,1.34,1.79,2.02,2.68c0.1,0.1,0.15,0.22,0.141,0.36c0.209,0.3,0.41,0.6,0.619,0.89
	c0.189,0.59,0.551,1.17,0.561,1.76c0.049,4.83,0.141,9.67,0.02,14.5c-0.109,4.43-4.051,8.35-7.75,8.96
	c-0.34,4.35-1.26,8.53-2.689,12.48c-0.471,1.36-1,2.7-1.611,4.03c-4.238,9.28-10.359,16.71-19.379,21.27
	c-1.621,0.96-3.301,1.83-5.041,2.61c0,0.16,0.012,0.31,0.012,0.46c0.029,1.68,0.068,3.36,0.1,5.04c0.059,2.83,0.119,5.68,0.18,8.61
	c1.311,0,2.24-0.04,3.16,0.01c1.41,0.08,2.82,0.23,4.23,0.35c0.299-0.03,0.6-0.06,0.898-0.1l-0.01,0.01
	c0.211,0.06,0.43,0.12,0.65,0.19c5.66,0.21,11.061,1.62,16.32,3.58c11.119,4.14,20.311,10.9,27.539,20.22 M574.459,111.92
	c0.061-0.02,0.09-0.06,0.08-0.12C574.51,111.84,574.491,111.88,574.459,111.92z"/>
<path fill="#016293" d="M129.86,630.11c6.51-3.99,26.58-36.939,26.65-37.99c8.06,5.471,92.33,37.961,101.06,37.961
	c-0.96,8.449-4.85,19.92,1.48,23.369c13.41,7.311,7.84,5.92,16.55,22.371c0,0,1.39,15,0.62,16.16c0,0-5.15,6.68-7.7,10
	c-1.9,2.328-3.81,4.67-5.71,7c-0.95,1-1.91,1.988-2.86,2.988c-0.32,0.07-0.72-0.02-0.95,0.221c-4.4,4.59-9.13,8.391-13.9,12.08
	c-2.79,2.141-5.5,4.561-8.41,6.32c-1.92,1.16-4.12,1.359-6.19,1.99c-3.15,1.719-6.3,3.449-9.45,5.17
	c-2.42,0.82-4.84,1.639-7.26,2.449c-2.62,0.711-5.25,1.41-7.87,2.109c-11.84,0-23.69,0-35.53,0c-3.81-1.059-7.62-2.119-11.43-3.18
	c-2.62-1.059-5.24-2.129-7.86-3.189c-2.64-1.34-5.28-2.68-7.92-4.02c-0.68-0.32-1.36-0.641-2.05-0.961
	c-1.92-1.24-3.84-2.49-5.76-3.73c-2.6-1.859-5.19-3.719-7.79-5.578c-0.72-0.65-1.44-1.291-2.15-1.941
	c-1.12-1.219-2.2-2.529-3.37-3.619c-0.7-0.65-1.54-0.971-2.32-1.439c-5.17-5.75-10.34-11.5-15.51-17.25
	c-2.7-3.9-5.4-7.811-8.1-11.711c-1.13-2.609-3.47-3.99-3.67-7.551c0.53-0.93,1.16-1.779,1.59-2.799
	C102.62,654.68,114.48,639.53,129.86,630.11z"/>
<path opacity="0.2" enable-background="new    " d="M610.44,176.36c1.18,0.59,5.33,0.55,6.66,0.53c1.34-0.01,4.631,0.01,5.619-0.76
	c0-1.52,0.711-3.33-1-3.38c-0.91-0.03-4.369,0.3-5.08,0.3c-0.709,0-4.309-0.13-5.25-0.13C610.52,172.91,610.44,174.3,610.44,176.36z
	"/>
<path fill="#CEBF59" d="M219.81,463.969c4.22,7.49,16.52,7.32,14.22-0.879c-1.66-2.08-8.33-52.711-2.06-62.99
	c6.27-10.28,66.39-8.51,67.89-11.24c7.291-13.24,3-32.92-5.47-41.66c-8.78-9.06-21.82-19.42-34.8-20.67
	c-30.96-2.97-72.37-12.29-126.14,18.78c-6.47,3.74-25.35,18.66-32.25,21.54c5.75-8.44-10.85-18.14-25.04-18.73
	c-14.2-0.59-40.62,14.79-30.96,37.86c4.41,10.54,9.56,18.03,19.72,14.591c6.94-2.352,8.46-5.011,14.79-8.681
	c8.78-5.08-0.5,3.579-1.92,5.841c-13.25,12.35-19.3,35.809-36.65,42.988c3.05,0.4,6,0.371,9.09,0.381c1.84,0,4.55-0.721,4.09-0.141
	c2.69-0.66,18.02-21.439,17.81-21.629c-4.84,7.33-9.47,25.33-16.81,29.85c10.14,0.08,14.05-16.77,21.11-23.76
	c-5.11,5.059-4.36,24.129-10.06,29.74c9.33-3.07,10.49-23.381,16.29-30.73c0.1,16.141,6.08,32.879,11.86,47.789
	c5.17,12.9,10.14,29.59,21.82,38.141c5.35,0,17.7,23.939,17.93,38.859c0.22,14.98,39.91-32.99,39.78-36.059
	c-0.04-1.041,5.2-71.021,17.78-85.611C200.75,417.19,206.5,440.36,219.81,463.969z"/>
<path fill="#A59D86" d="M219.02,472.04c-1.18,5.23,0.89,76.73,3.55,82.09c2.66,5.361,26.98,29,33.42,29.781
	c6.45,0.779,48.35,6.34,56.79,1.609c8.439-4.73,8.87-20.66,7.88-23.91s-32.95-12.02-40.83-14.42c-7.89-2.391-8.53-10.801-6.25-14.67
	c2.28-3.869,29.25,1.791,43.88-2.02c5.41-1.41,1.39-6.461-0.54-13.51c-6.8-5.32-19.98-3.852-33.21-4.141
	c-13.23-0.301-34.82-18.631-39.85-24.25c-5.03-5.619-7.79-20.109-8.87-23.07c-1.08-2.959-13.01-0.99-14.49,0
	S220.21,466.821,219.02,472.04z"/>
<g>
	<path fill="#514C1F" d="M392.559,211.19c-9.398,2.92-18.79,5.88-28.199,8.73c-0.851,0.26-1.95,0.16-2.771-0.21
		c-6.51-2.97-12.76-6.4-17.3-12.57c-0.34-0.46-0.67-0.93-1.24-1.72c2.17,0,4,0.17,5.79-0.06c1.311-0.16,2.95-0.45,3.75-1.38
		c1.11-1.29,1.561-3.23,2.29-4.9c-1.13-0.11-2.27-0.28-3.399-0.31c-10.54-0.29-15.971-4.97-18.54-16.16
		c-0.091-0.38,0.67-1.37,1.109-1.44c5.391-0.81,10.8-1.48,16.2-2.25c0.6-0.09,1.14-0.59,1.69-1.05c-10.44,4-19.41-0.43-28.54-5.51
		c4.72-0.53,9.199-0.67,13.55-1.58c15.899-3.32,21.01-9.98,22.63-27.7c1.78-19.54,4.36-38.94,13.229-56.53
		c7.38-14.64,18.271-24.08,33.82-26.47c0.34-0.05,0.641-0.39,0.961-0.59c0.379,0,0.75,0,1.129,0c0.381,0,0.75,0,1.131,0
		c3.391,0,6.789,0,10.18,0c0.09,0,0.189,0,0.279,0c0.191,0,0.381,0,0.57,0c0.471,0,0.941,0,1.41,0c0.381,0,0.75,0,1.131,0
		c1.449,0.36,2.879,0.8,4.34,1.06c21.641,3.94,36.699,17.43,44.939,38.99c10.93,28.6,14.531,58.54,9.74,89.29
		c-1.67,10.72-5.9,20.37-13.08,28.22c-0.439,0.48-1.42,0.78-2.02,0.61c-5.93-1.62-11.83-3.33-17.73-5.08
		c-0.51-0.15-0.92-0.7-1.379-1.07c0.109-1,0.369-2.01,0.318-3.01c-0.359-6.85-0.809-13.69-1.129-20.53
		c-0.041-0.76,0.369-1.92,0.92-2.26c5.02-3.21,6.959-8.18,8.049-14.2c2.5-13.85,4.75-27.66,2.211-41.77
		c-3.391-18.84-14.59-30.72-29.859-38.82c-0.352-0.19-1.352,0.4-1.68,0.9c-7.15,10.92-14.24,21.88-21.342,32.83
		c-1.52,2.34-3.039,4.69-4.969,7.68c-0.281-5.93-0.531-11.02-0.791-16.42c-2.25,4.01-4.299,7.74-6.449,11.39
		c-0.201,0.34-1.1,0.44-1.59,0.31c-2.84-0.79-5.66-2.43-8.48-2.4c-5,0.06-7.93,3.09-7.66,6.62c0.84,10.84,1.689,21.67,2.5,32.52
		c0.669,9,1.05,12.54,7.3,22.65c1.389,2.25,3.939,6.12,5.789,8.02c0.35,0.36,0.85,0.91,0.811,1.31
		C391.549,201.98,393.231,205.56,392.559,211.19z"/>
	<path fill="#514C1F" d="M422.28,59.51c-0.471,0-0.939,0-1.41,0C421.331,59.51,421.799,59.51,422.28,59.51z"/>
	<path fill="#514C1F" d="M409.84,59.51c-0.381,0-0.75,0-1.131,0C409.081,59.51,409.459,59.51,409.84,59.51z"/>
	<path fill="#514C1F" d="M420.299,59.51c-0.09,0-0.189,0-0.279,0C420.11,59.51,420.2,59.51,420.299,59.51z"/>
</g>
<path fill="#514C1F" d="M567.481,101.1c0.078-0.26,0.029-0.56,0.039-0.84c0.74-1.82,1.49-3.64,2.23-5.46
	c0.639-1.08,1.27-2.16,1.91-3.24c0.68-0.84,1.35-1.67,2.029-2.51l0,0c0.189-0.23,0.391-0.46,0.59-0.69
	c1.26-1.12,2.529-2.24,3.791-3.35c1.068-0.83,2.148-1.67,3.219-2.5c11.92-7.46,28.85-8.84,38.371-8.97
	c1.27,0.16,2.539,0.31,3.799,0.47c2.201,0.24,4.391,0.48,6.59,0.72c1.16,0.25,2.33,0.5,3.49,0.75c0.85,0.17,1.711,0.34,2.561,0.51
	c2.301,0.88,4.6,1.75,6.9,2.63c1.719,0.99,3.439,1.98,5.15,2.97c2.908,2.57,5.818,5.15,8.729,7.72c1.191,1.69,2.381,3.38,3.57,5.08
	c0.92,1.98,1.85,3.96,2.77,5.94c0.701,3.33,1.5,6.65,2.07,10c1.211,7.04,1.471,14.15,0.861,21.26c-0.201,2.31-0.781,4.59-1.191,6.88
	c-0.139,0.16-0.27,0.32-0.41,0.48c-0.359,0.28-0.709,0.57-1.068,0.85c-0.24-0.51,0.889-1.28-0.32-1.6c-0.17-0.33-0.34-0.67-0.521-1
	c-0.898-8.04-2.299-15.97-5.729-23.41c-0.23-0.5-0.801-1.44-0.801-1.44c-0.301-0.58-0.6-1.15-0.9-1.72l0.031,0.04
	c-0.16-0.29-0.32-0.58-0.48-0.88c0,0-1.451-1.91-2.189-2.87c-0.852-0.75-9.352-9.77-9.352-9.77c-0.6-0.67-1.189-1.34-1.549-1.74
	c-2.781,0-5.25,0-7.721,0c-1.16,0.01-2.33,0.03-3.49,0.04c-5.619,0-11.24,0-16.869,0c-0.871-0.01-1.75-0.03-2.621-0.04
	c-3.289-0.17-6.59-0.28-9.869-0.53c-2.42-0.18-4.83-0.49-7.23-0.82c-2.32-0.32-10.33,7.88-12.789,10.03
	c-0.791,0.69-1.541,1.43-2.301,2.15l0.07,0.16l-0.08-0.15c-0.359,0.48-0.721,0.95-1.08,1.43c-1.049,1.38-2.1,2.76-3.15,4.14
	c-2.389,3.67-3.17,7.84-3.84,12.04c-0.58,3.7-0.99,7.44-1.709,11.11c-0.301,1.53-1.201,2.94-1.83,4.41
	c-0.25,0.01-0.51,0.02-0.76,0.03c-0.102-0.33-0.201-0.66-0.301-0.99c-0.34-6.1-0.9-12.2-0.949-18.3
	C565.11,113.69,565.69,107.31,567.481,101.1z"/>
<g>
	<path fill="none" d="M447.53,222.47c-0.641,0.58-1.51,1.7-2.549,3.21c0.469-0.01,0.92-0.02,1.158,0
		c0.301-0.02,4.08-0.22,4.371-0.18c6.01,0.94,11.85,2.51,17.471,5.04c13.289,5.99,23.529,15.62,30.93,28.76
		c0.369,0.65,0.91,1.19,1.369,1.78c-0.18,2.26-2.199,3.14-3.17,4.8c-2.33,2.48-4.66,4.96-7,7.44c-4.459,3.65-8.93,7.31-13.391,10.96
		c-0.67,0.3-1.398,0.5-2,0.91c-1.01,0.7-1.939,1.53-2.91,2.3c-0.619,0.41-1.238,0.82-1.859,1.23c-2.24,1.18-4.49,2.36-6.73,3.55
		c-1.66,0.79-3.318,1.58-4.979,2.37c-0.59,0.2-1.182,0.41-1.771,0.61c-2.279,0.85-4.559,1.7-6.84,2.55
		c-2.26,0.68-4.529,1.35-6.789,2.02c-3.291,0.67-6.58,1.35-9.871,2.02c-10.229,0-20.459,0-30.689,0c-2.27-0.45-4.529-0.9-6.799-1.34
		c-2.092-0.52-4.182-1.04-6.271-1.56c-2.719-1.09-5.439-2.19-8.16-3.28c-1.789-0.4-3.689-0.53-5.339-1.26
		c-2.51-1.12-4.85-2.66-7.26-4.02c-4.12-2.34-8.2-4.76-12-7.68c-0.2-0.15-0.54-0.1-0.82-0.14c-0.82-0.63-1.649-1.26-2.47-1.9
		c-1.641-1.48-3.29-2.97-4.93-4.45c-2.211-2.11-4.41-4.23-6.62-6.34l-0.03-0.02c-0.66-0.73-1.33-1.46-1.99-2.2
		c-0.58-0.64-1.17-1.27-1.76-1.91c-0.97-1.42-1.94-2.84-2.91-4.26l5.91-9.27c7.52-10.45,17.1-18.04,28.689-22.68
		c5.471-2.2,13.19-2.67,19.081-2.91c0.221-0.07,0.449-0.14,0.67-0.21l-0.01-0.01c0.311,0.04,0.629,0.07,0.939,0.11
		c0.221-0.02,0.439-0.04,0.66-0.06c-0.5-0.89-0.939-1.71-1.32-2.44c-3.309-6.5-91.2,32.84-91.2,41.46
		c0,8.62,112.79,71.46,119.741,71.46c6.949,0,100.41-72.82,100.41-81.43C518.5,250.56,475.5,197.03,447.53,222.47z"/>
	<path fill="#016293" d="M389.27,226.42l0.01,0.01c-0.221,0.07-0.449,0.14-0.67,0.21c-5.891,0.24-13.61,0.72-19.08,2.91
		c-11.58,4.65-21.16,12.23-28.69,22.68l-5.91,9.27c0.971,1.42,1.94,2.84,2.91,4.26c0.58,0.64,1.17,1.27,1.76,1.91
		c0.66,0.73,1.33,1.46,1.99,2.2l0.03,0.02c2.21,2.11,4.41,4.23,6.62,6.34c1.64,1.48,3.29,2.97,4.93,4.45
		c0.82,0.63,1.65,1.26,2.47,1.9c0.28,0.04,0.62-0.01,0.82,0.14c3.8,2.92,7.88,5.33,12,7.68c2.41,1.36,4.75,2.9,7.26,4.02
		c1.66,0.74,3.55,0.86,5.339,1.26c2.721,1.09,5.441,2.19,8.16,3.28c2.09,0.52,4.182,1.04,6.271,1.56
		c2.27,0.45,4.529,0.89,6.799,1.34c10.23,0,20.461,0,30.691,0c3.289-0.67,6.578-1.35,9.869-2.02c2.26-0.67,4.529-1.35,6.789-2.02
		c2.281-0.85,4.561-1.7,6.842-2.55c0.59-0.2,1.18-0.41,1.77-0.61c1.66-0.79,3.32-1.58,4.98-2.37c2.238-1.18,4.479-2.36,6.729-3.55
		c0.621-0.41,1.24-0.82,1.861-1.23c0.969-0.77,1.898-1.61,2.91-2.3c0.6-0.41,1.328-0.62,2-0.91c4.459-3.65,8.93-7.31,13.389-10.96
		c2.33-2.48,4.66-4.96,7-7.44c0.971-1.66,3-2.54,3.17-4.8c-0.459-0.59-1-1.13-1.369-1.78c-7.4-13.14-17.641-22.77-30.93-28.76
		c-5.631-2.54-11.461-4.1-17.471-5.04c-0.289-0.04-4.07,0.16-4.369,0.18c-0.25-0.02-0.701-0.01-1.16,0
		c-6.82,9.98-21.041,37.74-27.361,51.01c-2-12.17-19.859-37.96-26.76-50.22c-0.219,0.02-0.439,0.04-0.66,0.06
		C389.889,226.5,389.581,226.46,389.27,226.42z"/>
</g>
<path opacity="0.2" enable-background="new    " d="M435.981,216.35c-2.602,1.19-16.98,4.1-19.922,4.08
	c-2.949-0.03-15.809-1.6-18.01-3.15c0-3.06,0.16-4.62,0.16-6.46c15.531,6.74,17.201,7.74,37.1-0.57
	C435.581,211.38,435.981,212.21,435.981,216.35z"/>
<line fill="none" x1="431.25" y1="231.28" x2="435.43" y2="239.84"/>
<path fill="#514C1F" d="M384.87,138.68c0,0,0.24-0.23,0.66-0.62c0.211-0.2,0.471-0.43,0.77-0.7c0.301-0.27,0.631-0.57,1-0.9
	c0.73-0.66,1.602-1.41,2.541-2.21s1.969-1.58,2.939-2.48l0.18-0.17h0.01c0.021-0.01-0.029,0.02,0.041-0.03l0.01-0.01l0.02-0.02
	l0.051-0.04l0.1-0.08l0.381-0.31c0.119-0.1,0.27-0.2,0.42-0.3c0.148-0.1,0.299-0.2,0.459-0.3c0.311-0.19,0.621-0.34,0.92-0.5
	c0.32-0.14,0.631-0.27,0.961-0.38c0.65-0.21,1.289-0.36,1.91-0.44c0.619-0.08,1.219-0.11,1.77-0.08c0.549,0.03,1.049,0.11,1.48,0.22
	c0.43,0.1,0.799,0.25,1.09,0.38c0.289,0.14,0.51,0.26,0.65,0.36c0.139,0.09,0.209,0.15,0.209,0.15c0.08,0.06,0.09,0.18,0.029,0.26
	c-0.029,0.03-0.059,0.06-0.1,0.06l0,0c0,0-0.08,0.02-0.24,0.06s-0.379,0.09-0.66,0.17c-0.27,0.07-0.6,0.17-0.959,0.29
	c-0.359,0.11-0.75,0.27-1.17,0.43c-0.42,0.18-0.859,0.35-1.311,0.57c-0.459,0.2-0.93,0.45-1.42,0.69c-0.24,0.12-0.49,0.25-0.74,0.37
	c-0.25,0.13-0.52,0.25-0.77,0.37c-0.119,0.06-0.25,0.12-0.381,0.18l-0.189,0.09l-0.209,0.11l-0.441,0.21l-0.109,0.05l-0.051,0.03
	l-0.029,0.01l-0.01,0.01c0.07-0.05,0.02-0.01,0.029-0.02h-0.01l-0.219,0.1c-1.201,0.55-2.32,1.21-3.422,1.77
	c-1.1,0.56-2.119,1.07-3.01,1.5c-0.439,0.22-0.85,0.41-1.209,0.58s-0.68,0.32-0.939,0.44c-0.531,0.24-0.83,0.37-0.83,0.37
	c-0.08,0.04-0.182,0-0.221-0.08C384.799,138.8,384.821,138.73,384.87,138.68z"/>
<ellipse fill="#02753C" cx="399.831" cy="148.27" rx="5.799" ry="6.18"/>
<path fill="#514C1F" d="M449.459,139.43c0,0-0.209-0.33-0.619-0.87c-0.211-0.27-0.461-0.6-0.75-0.96
	c-0.301-0.37-0.65-0.76-1.031-1.19c-0.779-0.84-1.738-1.77-2.85-2.6c-0.559-0.41-1.15-0.79-1.76-1.12s-1.27-0.6-1.9-0.77
	c-0.369-0.1-0.779-0.23-1.1-0.27c-0.33-0.06-0.67-0.11-1.029-0.14c-0.701-0.08-1.391-0.11-2.051-0.19
	c-0.33-0.03-0.66-0.06-0.98-0.11c-0.318-0.03-0.639-0.08-0.949-0.11c-0.619-0.07-1.209-0.13-1.77-0.19
	c-0.57-0.06-1.09-0.11-1.551-0.16c-0.469-0.04-0.889-0.1-1.24-0.13c-0.35-0.03-0.629-0.07-0.83-0.1
	c-0.189-0.03-0.299-0.05-0.299-0.05l0,0c-0.1-0.02-0.17-0.12-0.15-0.22c0.01-0.04,0.029-0.08,0.061-0.1c0,0,0.08-0.07,0.24-0.2
	c0.158-0.13,0.398-0.29,0.709-0.49c0.32-0.19,0.711-0.41,1.18-0.62c0.471-0.21,1.01-0.41,1.621-0.58c0.609-0.18,1.279-0.3,2.01-0.39
	c0.359-0.04,0.74-0.06,1.119-0.08c0.381,0.01,0.781,0.01,1.17,0.06c0.4,0.05,0.801,0.1,1.201,0.21c0.199,0.05,0.398,0.1,0.6,0.15
	c0.199,0.06,0.4,0.13,0.6,0.2c0.201,0.07,0.4,0.13,0.6,0.21l0.621,0.25c0.209,0.08,0.41,0.17,0.58,0.25l0.529,0.24
	c0.84,0.37,1.57,0.82,2.26,1.33c0.68,0.5,1.281,1.06,1.811,1.63c1.07,1.13,1.879,2.31,2.5,3.34c0.311,0.52,0.57,1,0.789,1.44
	c0.221,0.43,0.4,0.82,0.531,1.14c0.27,0.64,0.4,1.02,0.4,1.02c0.029,0.09-0.021,0.18-0.102,0.21
	C449.581,139.52,449.5,139.49,449.459,139.43z"/>
<path fill="#4A322D" d="M401.911,185.24c-0.141-0.33-0.271-0.67-0.41-1c-0.221-1.07-0.441-2.14-0.66-3.21
	c-0.531-2.66,0.029-3.39,2.609-3.43c0.221,0,0.439,0.03,0.66,0.04c5.551-0.05,22.211-0.01,27.939,0.01
	c0.16-0.05,0.32-0.11,0.48-0.16c2.029,0.6,2.471,1.19,1.9,3.3c-0.6,2.24-1.471,4.41-2.221,6.61c-0.24,0.39-0.949,1.69-1.18,2.07
	c-0.971,0.87-1.379,2.1-2.07,2.1c-3.5,5.58-17.289,4.03-22.66-0.43C404.84,189.18,403.379,187.21,401.911,185.24z"/>
<path fill="#EB536F" d="M425.75,193.96c-0.301,0.15-0.6,0.3-0.9,0.46c-3.66,1.2-7.391,2.27-11.17,0.95
	c-2.381-0.83-4.6-2.18-6.891-3.3l-0.02-0.02c-0.16-0.3-0.311-0.59-0.471-0.89c2.881-2.78,6.182-3.54,9.941-2.47
	c0.939,0.27,2.059,0.29,3,0.02c3.6-1.07,6.719-0.42,9.369,2.46c-0.061,0.44-0.129,0.87-0.189,1.31l0.01-0.01
	C427.54,192.95,426.639,193.45,425.75,193.96z"/>
<path fill="#FEFFFF" d="M432.059,177.65c-0.449,3.22-1.949,4.72-4.869,4.73c-6.08,0.02-12.15,0.02-18.23,0
	c-2.939-0.01-4.369-1.44-4.85-4.74c0.141-0.02,0.291-0.04,0.43-0.07C413.719,177.6,422.889,177.63,432.059,177.65z"/>
<ellipse fill="#02753C" cx="435.69" cy="148.27" rx="5.801" ry="6.18"/>
<path opacity="0.2" enable-background="new    " d="M636.09,216.95c-2.939,1.19-18.359,3.81-21.701,3.79
	c-3.34-0.03-17-2.05-19.488-3.61c0-3.06,0.1-4.46,0.09-6.31c17.6,6.74,18.67,8.04,41.219-0.27
	C636.02,212.44,636.09,212.81,636.09,216.95z"/>
<path fill="none" stroke="#847E6A" stroke-width="7" stroke-linecap="round" stroke-miterlimit="10" d="M273.98,442.959
	c4.61-3.309,6.28-4.219,18.01-7.959c8.15-2.6,14.71-4.52,18.01-3.701"/>
<ellipse transform="matrix(-0.1346 0.9909 -0.9909 -0.1346 792.6458 221.9471)" fill="#016293" cx="299.406" cy="457.097" rx="10.459" ry="10.58"/>
<path fill="#EB536F" d="M296.56,549.35c2.45,0.43,2.92,1.09,7.03,1.59c4.01-1.369,4.601-2.02,4.83-3.33
	c-5.25-3.5-24.3-6.619-29.83-3.75C278.71,544.54,296.05,549.12,296.56,549.35z"/>
<g>
	<path fill="none" d="M637.93,222.94c-0.33,0.6-0.689,1.17-1.08,1.71c1-0.01,1.801-0.03,2.57,0.01c1.41,0.08,2.82,0.23,4.23,0.35
		c0.299-0.03,0.6-0.06,0.898-0.1l-0.01,0.01c0.211,0.06,0.43,0.12,0.65,0.19c5.66,0.21,11.061,1.62,16.32,3.58
		c11.119,4.14,20.311,10.9,27.539,20.22l5.682,8.27c-0.932,1.26-1.861,2.53-2.791,3.79c-0.561,0.57-1.119,1.13-1.689,1.7
		c-0.641,0.65-1.281,1.3-1.91,1.96l-0.031,0.01c-2.119,1.88-4.238,3.77-6.359,5.65c-1.58,1.32-3.16,2.65-4.73,3.97
		c-0.789,0.56-1.58,1.13-2.369,1.69c-0.27,0.04-0.59-0.01-0.789,0.13c-3.65,2.6-7.57,4.75-11.521,6.85
		c-2.309,1.21-4.559,2.59-6.969,3.58c-1.59,0.66-3.41,0.77-5.131,1.13c-2.609,0.98-5.221,1.95-7.84,2.93
		c-2.01,0.46-4.01,0.93-6.02,1.39c-2.17,0.4-4.35,0.8-6.521,1.2c-9.818,0-19.639,0-29.459,0c-3.16-0.6-6.32-1.2-9.48-1.8
		c-2.17-0.6-4.35-1.2-6.52-1.81c-2.189-0.76-4.381-1.52-6.561-2.28c-0.57-0.18-1.129-0.36-1.699-0.54
		c-1.59-0.71-3.18-1.41-4.77-2.12c-2.15-1.05-4.311-2.11-6.461-3.16c-0.6-0.37-1.189-0.73-1.789-1.1
		c-0.932-0.69-1.82-1.43-2.791-2.05c-0.58-0.37-1.279-0.55-1.92-0.81c-4.289-3.26-8.57-6.51-12.859-9.77
		c-2.24-2.21-4.48-4.42-6.711-6.63c-0.939-1.48-2.879-2.26-3.049-4.28c0.439-0.53,0.959-1.01,1.309-1.59
		c7.102-11.72,16.932-20.3,29.691-25.64c5.398-2.26,11-3.66,16.77-4.5c0.279-0.04,0.57,0.03,0.859,0.04c0.5-0.04,1-0.07,1.5-0.11
		c2.701-0.18,5.4-0.36,8.4-0.56c-0.98-0.71-1.859-1.36-2.551-1.95c-26.85-22.69-73.459,24.92-73.459,29.34
		c0,7.68,89.721,72.61,96.391,72.61s114.939-56.04,114.939-63.72C729.821,253.04,641.11,217.15,637.93,222.94z"/>
	<path fill="#016293" d="M584.61,225.12c-0.289-0.02-0.58-0.08-0.859-0.04c-5.77,0.84-11.371,2.24-16.77,4.5
		c-12.75,5.34-22.592,13.92-29.691,25.64c-0.35,0.58-0.869,1.06-1.309,1.59c0.17,2.02,2.109,2.8,3.049,4.28
		c2.24,2.21,4.48,4.42,6.711,6.63c4.289,3.26,8.568,6.51,12.859,9.77c0.65,0.26,1.35,0.44,1.92,0.81
		c0.971,0.62,1.869,1.36,2.789,2.05c0.602,0.37,1.191,0.73,1.791,1.1c2.15,1.05,4.311,2.11,6.459,3.16
		c1.592,0.71,3.182,1.41,4.771,2.12c0.57,0.18,1.129,0.36,1.699,0.54c2.189,0.76,4.381,1.52,6.561,2.28c2.17,0.6,4.35,1.2,6.52,1.81
		c3.16,0.6,6.32,1.2,9.48,1.8c9.82,0,19.641,0,29.459,0c2.17-0.4,4.352-0.8,6.521-1.2c2.01-0.46,4.01-0.93,6.02-1.39
		c2.609-0.98,5.219-1.95,7.84-2.93c1.721-0.36,3.539-0.47,5.131-1.13c2.408-0.99,4.648-2.37,6.969-3.58
		c3.961-2.09,7.881-4.25,11.52-6.85c0.191-0.14,0.521-0.09,0.791-0.13c0.789-0.56,1.58-1.13,2.369-1.69
		c1.58-1.32,3.16-2.65,4.73-3.97c2.119-1.88,4.24-3.77,6.359-5.65l0.031-0.01c0.639-0.65,1.279-1.3,1.91-1.96
		c0.559-0.57,1.119-1.13,1.689-1.7c0.93-1.26,1.859-2.53,2.789-3.79l-5.68-8.27c-7.219-9.32-16.42-16.08-27.539-20.22
		c-5.25-1.96-10.66-3.36-16.32-3.58c-0.211-0.06-0.43-0.12-0.65-0.19l0.01-0.01c-0.299,0.03-0.6,0.07-0.9,0.1
		c-1.408-0.12-2.818-0.26-4.229-0.35c-0.771-0.04-1.57-0.02-2.57-0.01c-6.01,8.31-19.1,10.92-21.031,21.84
		c-5.949-11.6-15.658-17.96-21.309-22.04c-3,0.2-5.711,0.38-8.4,0.56C585.61,225.04,585.11,225.08,584.61,225.12z"/>
</g>
<polygon fill="#016293" points="641.85,225.17 635.62,217.98 626.19,235.29 629.799,237.15 "/>
<polygon fill="#016293" points="592.991,226.38 594.75,218.52 604.79,234.19 597.93,236.61 "/>
<line fill="none" x1="602.25" y1="230.23" x2="598.241" y2="237.86"/>
<polygon opacity="0.2" enable-background="new    " points="634.95,236.33 641.85,224.85 634.95,235.61 "/>
<polygon opacity="0.2" enable-background="new    " points="598.51,237.34 593.459,224.6 598.241,237.86 "/>
<path fill="#514C1F" d="M650.28,139.79c-0.67,0-1.33-0.31-1.76-0.89c-0.641-0.86-3.34-2.86-8.189-4.81
	c-3.17-1.28-8.93-0.4-10.881,0.05c-1.18,0.27-2.35-0.47-2.619-1.65c-0.271-1.18,0.469-2.35,1.65-2.62
	c0.859-0.2,8.5-1.85,13.488,0.16c4.861,1.96,8.621,4.3,10.08,6.28c0.721,0.97,0.512,2.34-0.469,3.06
	C651.18,139.65,650.731,139.79,650.28,139.79z"/>
<ellipse fill="#3D3616" cx="637.77" cy="147.79" rx="6" ry="5.54"/>
<ellipse fill="#3D3616" cx="595.95" cy="147.79" rx="6" ry="5.54"/>
<path fill="#514C1F" d="M580.331,139.49c-0.561,0-1.121-0.21-1.541-0.63c-0.859-0.85-0.859-2.24-0.01-3.09
	c0.211-0.21,5.189-5.16,11.211-6.02c5.309-0.76,10.35-0.41,12.85,0.88c1.07,0.56,1.49,1.88,0.939,2.95
	c-0.561,1.07-1.879,1.49-2.949,0.93c-1.111-0.57-4.861-1.2-10.211-0.43c-3.811,0.54-7.59,3.63-8.73,4.78
	C581.459,139.28,580.901,139.49,580.331,139.49z"/>
<path fill="#4A322D" d="M630.411,186.87c0.129-0.3,0.26-0.59,0.389-0.89c0.211-0.95,0.432-1.91,0.631-2.86
	c0.51-2.37-0.029-3.02-2.5-3.06c-0.211,0-0.42,0.02-0.631,0.04c-5.33-0.05-21.318-0.01-26.83,0.01c-0.148-0.05-0.299-0.1-0.459-0.14
	c-1.951,0.54-2.371,1.06-1.83,2.94c0.58,2,1.41,3.93,2.129,5.89c0.23,0.34,0.91,1.5,1.141,1.85c0.93,0.77,1.32,1.87,1.99,1.87
	c3.359,4.98,16.59,3.6,21.75-0.38C627.6,190.38,629.01,188.62,630.411,186.87z"/>
<path fill="#EB536F" d="M607.53,194.64c0.291,0.14,0.58,0.27,0.871,0.41c3.51,1.07,7.09,2.03,10.719,0.84
	c2.281-0.74,4.41-1.95,6.611-2.94l0.02-0.02c0.15-0.26,0.299-0.53,0.449-0.79c-2.77-2.48-5.93-3.16-9.539-2.2
	c-0.9,0.24-1.98,0.26-2.881,0.01c-3.449-0.95-6.449-0.37-8.99,2.19c0.061,0.39,0.121,0.78,0.18,1.17l-0.01-0.01
	C605.809,193.75,606.67,194.19,607.53,194.64z"/>
<path fill="#707071" d="M706.43,322.33H525.209v-68.81c0-3.45,3.451-6.24,7.711-6.24h165.799c4.262,0,7.711,2.79,7.711,6.24V322.33
	L706.43,322.33z"/>
<circle fill="#FFFFFF" cx="615.821" cy="300.73" r="12.48"/>
<path fill="#C9C9C9" d="M509.469,322.33H328.25v-68.81c0-3.45,3.45-6.24,7.71-6.24h165.8c4.26,0,7.709,2.79,7.709,6.24V322.33z"/>
<circle fill="#FFFFFF" cx="418.86" cy="300.73" r="12.48"/>
<path fill="#FEFFFF" d="M601.469,180.1c0.432,2.87,1.871,4.21,4.682,4.22c5.83,0.02,11.67,0.02,17.5,0
	c2.83-0.01,4.189-1.29,4.648-4.22c-0.139-0.02-0.279-0.04-0.42-0.06C619.081,180.06,610.27,180.08,601.469,180.1z"/>
<path fill="#016293" d="M654.745,513.859c0,55.553-55.438,100.589-123.821,100.589c-56.333,0-103.883-30.564-118.896-72.395
	c-1.728-4.826-54.521,4.957-55.346-0.145c-0.706-4.35,50.418-23.542,50.418-28.05c0-55.554,55.438-100.591,123.823-100.591
	C599.307,413.268,654.745,458.305,654.745,513.859z"/>
<text transform="matrix(1 0 0 1 439.1685 525.686)" fill="#FFFFFF" font-family="'Verdana'" font-size="47">Training</text>
<g opacity="0.66">
	<path fill="#FEFFFF" d="M470.144,216.158c6.699-7.685,10.688-17.008,12.296-27.328c4.791-30.75,1.189-60.69-9.74-89.29
		c-8.24-21.56-23.299-35.05-44.939-38.99c-1.461-0.26-2.891-0.7-4.34-1.06c-0.381,0-0.75,0-1.131,0c-0.469,0-0.939,0-1.41,0
		c-0.189,0-0.379,0-0.57,0c-0.09,0-0.189,0-0.279,0c-3.391,0-6.789,0-10.18,0c-0.381,0-0.75,0-1.131,0c-0.379,0-0.75,0-1.129,0
		c-0.32,0.2-0.621,0.54-0.961,0.59c-15.549,2.39-26.439,11.83-33.82,26.47c-0.301,0.597-0.577,1.201-0.863,1.801
		c-0.829,1.54-1.659,2.082-2.496,3.999c-0.73,3.74-1.69,2.66-2.29,6.42c-0.173,1.083-0.339,2.137-0.499,3.175
		c-3.079,9.916-4.808,20.212-6.012,30.639c-0.387,0.552-0.773,1.104-1.16,1.657c-0.11,0.11-0.15,0.24-0.141,0.4
		c-0.21,0.33-0.43,0.67-0.64,1c-0.2,0.66-0.57,1.31-0.58,1.97c-0.055,4.992-0.127,9.983-0.039,14.975
		c-2.663,10.781-8.479,15.55-21.141,18.194c-4.351,0.91-8.83,1.05-13.55,1.58c9.13,5.08,18.1,9.51,28.54,5.51
		c-0.551,0.46-1.091,0.96-1.69,1.05c-5.4,0.77-10.81,1.44-16.2,2.25c-0.439,0.07-1.2,1.06-1.109,1.44
		c2.569,11.19,8,15.87,18.54,16.16c1.13,0.03,2.27,0.2,3.399,0.31c-0.729,1.67-1.18,3.61-2.29,4.9c-0.8,0.93-2.439,1.22-3.75,1.38
		c-1.79,0.23-3.62,0.06-5.79,0.06c0.57,0.79,0.9,1.26,1.24,1.72c4.54,6.17,10.79,9.6,17.3,12.57c0.82,0.37,1.92,0.47,2.771,0.21
		c9.409-2.85,18.8-5.81,28.199-8.73c0.272-2.282,0.155-4.225-0.035-6.108c2.04,2.129,3.965,3.925,5.646,5.238
		c0,0.17-0.01,0.35-0.01,0.52c-0.041,1.88-0.07,3.76-0.111,5.66c-0.059,3.17-0.119,6.38-0.189,9.66c-1.359,0-2.33-0.05-3.289,0.01
		c-1.233,0.076-2.467,0.206-3.7,0.323c0-0.001-0.001-0.002-0.001-0.002c-0.219,0.02-0.439,0.04-0.66,0.06
		c-0.32-0.05-0.629-0.09-0.939-0.13l0.01,0.01c-0.221,0.07-0.449,0.14-0.67,0.21c-5.891,0.24-13.61,0.72-19.08,2.91
		c-3.619,1.454-7.043,3.193-10.27,5.217c-5.396,3.377-10.238,7.556-14.528,12.513h-0.008c6.846-7.936,15.117-13.875,24.794-17.75
		c5.471-2.2,13.19-2.67,19.081-2.91c0.221-0.07,0.449-0.14,0.67-0.21l-0.01-0.01c0.311,0.04,0.629,0.07,0.939,0.11
		c0.221-0.02,0.439-0.04,0.66-0.06c-0.5-0.89-0.939-1.71-1.32-2.44c-3.309-6.5-91.2,32.84-91.2,41.46
		c0,2.896,12.739,11.915,29.91,22.612v34.248h59.422c15.954,8.573,28.256,14.6,30.408,14.6c1.982,0,11.009-5.93,22.893-14.6h68.496
		v-55.781c5.588-5.394,9.021-9.4,9.021-11.049C518.499,251.781,494.126,220.524,470.144,216.158z M490.492,247.28h-0.008
		c-6.196-7.149-13.669-12.742-22.493-16.72c-5.631-2.54-11.461-4.1-17.471-5.04c-0.289-0.04-4.07,0.16-4.369,0.18
		c-0.25-0.02-0.701-0.01-1.16,0c-0.094,0.137-0.194,0.291-0.291,0.434c-2.798-0.195-5.602-0.4-8.719-0.624c0-4.14,0-8.17,0-12.21
		c-0.102-1.02-0.211-2.04-0.311-3.06c0.311-0.21,0.65-0.39,0.93-0.62c4.138-3.396,7.911-7.38,11.357-11.631
		c0.201,3.502,0.408,7.005,0.592,10.511c0.051,1-0.209,2.01-0.318,3.01c0.459,0.37,0.869,0.92,1.379,1.07
		c3.825,1.134,7.654,2.24,11.487,3.328c-4.733,0.67-9.323,2.703-13.567,6.563c-0.641,0.58-1.51,1.7-2.549,3.21
		c0.469-0.01,0.92-0.02,1.158,0c0.301-0.02,4.08-0.22,4.371-0.18c6.01,0.94,11.85,2.51,17.471,5.04
		C476.814,234.521,484.292,240.121,490.492,247.28z"/>
	<path fill="#FEFFFF" d="M729.84,260.73c-0.019-7.229-78.402-39.373-90.445-38.394l-3.272-3.776
		c-0.011-0.537-0.022-1.075-0.033-1.61l0.001,0c0-4.14-0.07-4.51,0.119-6.4c-0.085,0.031-0.164,0.06-0.248,0.091
		c-0.001-0.024-0.002-0.046-0.002-0.07c1.74-0.78,3.42-1.65,5.041-2.61c9.02-4.56,15.141-11.99,19.379-21.27
		c0.611-1.33,1.141-2.67,1.611-4.03c1.43-3.95,2.35-8.13,2.689-12.48c3.699-0.61,7.641-4.53,7.75-8.96
		c0.121-4.83,0.029-9.67-0.02-14.5c-0.01-0.59-0.371-1.17-0.561-1.76c-0.209-0.29-0.41-0.59-0.619-0.89
		c0.01-0.14-0.041-0.26-0.141-0.36c-0.68-0.89-1.35-1.79-2.02-2.68c-0.25-0.14-0.49-0.27-0.74-0.41c-0.34-0.26-0.68-0.53-1.02-0.79
		l-0.021-0.02c-0.779-0.44-1.549-0.89-2.33-1.33c0.41-2.29,0.99-4.57,1.191-6.88c0.229-2.667,0.335-5.334,0.314-7.998
		c-0.033-4.44-0.419-8.87-1.176-13.272c-0.57-3.35-1.369-6.67-2.07-10c-0.92-1.98-1.85-3.96-2.77-5.94
		c-1.189-1.7-2.379-3.39-3.57-5.08c-2.91-2.57-5.82-5.15-8.729-7.72c-1.711-0.99-3.432-1.98-5.15-2.97
		c-2.301-0.88-4.6-1.75-6.9-2.63c-0.85-0.17-1.711-0.34-2.561-0.51c-1.16-0.25-2.33-0.5-3.49-0.75c-2.199-0.24-4.389-0.48-6.59-0.72
		c-1.26-0.16-2.529-0.31-3.799-0.47c-8.394,0.115-22.541,1.207-33.942,6.573c-1.302,0.465-2.312,0.913-2.888,1.317
		c-0.111,0.08-0.25,0.12-0.381,0.18c-0.381,0.295-0.762,0.594-1.143,0.89c-0.006,0.003-0.012,0.007-0.018,0.01
		c-1.07,0.83-2.15,1.67-3.219,2.5c-1.262,1.11-2.531,2.23-3.791,3.35c-0.016,0.019-0.031,0.037-0.048,0.056
		c-0.021,0.019-0.041,0.037-0.062,0.055c-0.089,0.11-0.18,0.221-0.269,0.332c-0.07,0.083-0.144,0.166-0.212,0.248
		c-0.68,0.84-1.35,1.67-2.029,2.51c-0.641,1.08-1.271,2.16-1.91,3.24c-0.74,1.82-1.49,3.64-2.23,5.46c0,0.003,0,0.007,0,0.01
		c0,0,0,0,0,0c-0.001,0.028,0.001,0.057,0.001,0.085c0.001,0.252,0.029,0.514-0.04,0.745c-1.791,6.21-2.371,12.59-2.33,19.02
		c0.049,6.095,0.608,12.189,0.948,18.284c-1.677,0.598-3.501,0.97-4.519,2.667c-2.061,1.32-3.211,3.34-3.311,5.61
		c-0.209,4.97-0.26,9.96,0,14.93c0.131,2.57,0.93,5.19,3.779,6.4c0.08,0.09,0.17,0.12,0.291,0.11c0.811,1.55,2.359,1.91,3.859,2.36
		c0.48,4.84,1.32,9.58,3.16,14.13c4.779,11.83,12.5,20.86,24.73,25.66c0.33,0.12,0.6,0.36,0.9,0.55
		c-0.102,0.91-0.201,1.82-0.301,2.73c0,1.743,0,3.487,0,5.241l-1.112,4.969c-0.601-0.445-1.148-0.867-1.608-1.259
		c-26.85-22.69-73.459,24.92-73.459,29.34c0,1.281,2.507,4.162,6.699,8.063v62.427h84.84c2.439,1.36,4.132,2.12,4.852,2.12
		c0.776,0,2.942-0.767,6.14-2.12h85.39v-44.543C720.167,269.641,729.84,263.025,729.84,260.73z M584.606,225.12
		c-0.033-0.002-0.066-0.006-0.1-0.01c0.035,0.003,0.069,0.008,0.104,0.009C584.609,225.12,584.608,225.12,584.606,225.12z
		 M645.19,225.11c5.66,0.21,11.061,1.62,16.32,3.58c10.459,3.895,19.212,10.108,26.23,18.59h-0.008
		c-7.012-8.481-15.773-14.695-26.232-18.59c-5.25-1.96-10.66-3.36-16.32-3.58c-0.211-0.06-0.43-0.12-0.65-0.19l0.009-0.008
		c0.003-0.001,0.007-0.001,0.011-0.001l-0.01,0.01C644.75,224.98,644.969,225.04,645.19,225.11z M643.644,225.009
		c-0.001,0-0.003,0-0.005,0c-0.597-0.051-1.193-0.105-1.79-0.158l0.001-0.002l-0.001,0.002c-0.1-0.009-0.198-0.018-0.297-0.026
		l-0.004-0.005C642.247,224.883,642.946,224.95,643.644,225.009z M574.495,111.896c0.015-0.022,0.025-0.045,0.04-0.067
		C574.532,111.857,574.518,111.879,574.495,111.896z"/>
</g>
<rect id="_x3C_Slice_x3E__3_" x="2.43" y="-0.57" display="none" fill="none" width="749" height="755"/>
</svg>
