<svg xmlns="http://www.w3.org/2000/svg" baseProfile="tiny" width="430" height="287"  xmlns:v="https://vecta.io/nano"><style><![CDATA[.B{stroke-linejoin:round}.C{stroke-width:3}.D{stroke-miterlimit:10}.E{stroke:#016294}.F{stroke-linecap:round}.G{fill:#016294}]]></style><g fill="none" class="B C D"><g stroke="#6d6e71"><path d="M254.972 337h-9.8l-6.1-1.244c-2.152-.4-9.088-5.068-10.52-6.74-2.626-3.07-2.52-5.577.5-8.426 1.793-1.687 3.36-3.966 4.17-6.28 2.102-5.995 3.565-12.2 5.588-18.235 1.964-5.855 1.652-7.27-3.698-9.786-1.18-.556-2.808-.095-4.073-.543-4.725-1.674-9.918-2.666-11.446-8.774-.658-2.63-2.27-4.392-5.737-3.047-3.372 1.307-6.987 2.175-10.573 2.7-3.346.48-7.198 1.217-7.964-4.094-.12-.845-2.06-1.38-3.085-2.155-1.302-.982-2.983-1.82-3.697-3.148-1.873-3.5-5.54-6.54-3.12-11.417.35-.706-1.243-2.95-2.424-3.605-.628-.35-2.752.88-3.423 1.906-3.036 4.642-6.906 6.102-12.37 4.822-3.1-.728-7.735.626-2.6-4.608.787-.8-.02-3.167-.088-4.8-1.63.126-3.663-.3-4.8.503-2.034 1.46-3.42 3.788-5.275 5.542-3.045 2.878-9.584 1.596-10.73-2.316-.794-2.716-2.043-2.54-4.1-1.973-5.317 1.468-6.5 3.47-4.302 9.227 1.505 3.922-.938 5.547-3.327 4.5-8.568-3.753-18.718-2.836-26.364-9.16-2.568-2.124-4.947-3.218-7.24.942-2.903 5.27-5.702 5.47-11.325 3.04-4.055-1.754-6.853-6.4-12.432-4.978-2.7.687-12.37-7.583-12.913-10.23-.462-2.25 5.542-7.22 10.185-8.428.225-.06.48-.2.676-.13 5.253 1.6 7.3-2.6 10.05-5.533-1.137 4.043.25 6.034 4.47 4.84 4.627-1.3 6.98.745 9.858 4.227 4.555 5.508 12.13 7.88 16.138 14.37.396.643 4.026-.7 6.154-1.14-.756-1.702-1.125-3.805-2.37-4.998-1.407-1.352-3.798-1.623-5.403-2.835-2.882-2.177-5.496-4.707-8.222-7.1l6.74-3.938c.434-.265.698-.8 1.043-1.223-.668-.074-1.464-.422-1.98-.178-4.885 2.3-9.64 2.233-13.563-1.608-6.476-6.34-6.344-6.474-12.944-.317-4.23-8.88-4.195-8.793 5.724-12.87 1.782-.732 4.275-2.356 4.482-3.843 1.005-7.14 6.557-7.492 11.414-7.378 3.947.092 4.102-.667 2.68-3.63-.793-1.653-2.208-3.32-2.2-4.974.014-2.762.765-7.86 1.52-7.918 8.538-.663 10.723-8.433 15.38-13.185 12.7-12.97 20.507-28.86 24.458-46.362 4.136-18.3 7.06-36.895 10.76-55.3.432-2.15 2.415-3.987 3.68-5.97 1.396 1.536 3.03 2.917 4.137 4.637 2.42 3.757 5.505 4.322 9.462 2.1 2.92-1.632 6.244-2.54 9.387-3.77.658 2.185 1.395 4.35 1.956 6.56.898 3.536 2 7.063 2.427 10.663.473 4.083.418 7.3 6.448 5.885 4.862-1.132 8.2 2.982 6.642 6.876-2.37 5.96-8.232 9.366-14.695 8.538-4.178-.535-5.603 1.033-4.597 5.24.32 1.345 1.068 2.583 1.508 3.9 2.503 7.542 4.173 14.98-2.6 21.435-.712.68-1.002 1.8-1.486 2.718 2.423.654 4.823 1.48 7.292 1.82.5.068 1.28-1.694 1.885-2.643 1.044-1.638 1.692-3.76 3.13-4.876l32.753-25c.787-.608 1.416-2.678 1-3.414-4.578-7.903-2.8-15.154 1.73-22.3.508-.802.545-2.114.305-3.064-.087-.342-2.004-.762-2.457-.387-5.292 4.4-10.144-.767-15.225-.787-2.06-.007-4.804-2.395-3.148-5.694 3.922-7.82 2.915-15.225-1.63-22.4 1.314-2.2 3.647-4.326 3.762-6.576.443-8.665 5.794-14.022 11.903-18.757 3.595-2.785 7.936-4.595 11.9-6.927 13.684-8.068 28.37-11.037 44.124-8.92 1.286.173 2.694-.475 4.033-.796l25.712-6.118c2.412-.518 5.056-.032 7.588.097 3.952.202 6.194 1.604 6.602 6.264.365 4.2 1.133 8.8 5.908 11.175 3.998 1.98 9.7 1.774 10.837 7.87.098.522 1.563 1 2.45 1.125 4.415.675 6.3 3.447 6.58 7.63v1.4c-3.268 2.68-2.752 6.156-1.987 9.65 2.158 9.86-.077 18.57-5.16 27.345-3 5.182-3.54 11.85-4.852 17.92-.582 2.696-.2 5.584-.5 8.363-.294 2.93-1.573 4.618-5.05 4.162-4.8-.628-9.673-.865-14.52-1.145-4.436-.256-6.07 2.35-5.037 6.198.637 2.37 1.012 3.65-.92 5.9-2.844 3.324-.8 8.958 3.364 9.143 5.114.225 9.813 5.46 15.3 1.372.357-.266 2.144.625 2.6 1.38 3.175 5.258 7.533 10.287 3.104 17.096-.82 1.263-.76 3.745-.092 5.2 1.457 3.18.655 4.646-2.513 5.67-1.18.382-1.932 1.93-3.078 2.605-4.985 2.94-6.725 9.74-13.686 10.7-2.264.3-4.063 4.02-6.075 6.177l4.802 4.435c.344.315.828.532 1.055.9 1.104 1.843 3.503 4.575 2.96 5.44-2 3.183-5.172 8.27-7.528 8.074-6.7-.552-11.508 2.545-16.874 5.147-3.04 1.473-6.7 3.483-9.645 2.917-5.038-.972-9.712-3.8-14.57-5.768-.507-.205-1.23.125-1.853.207 2.6 6.74-1.913 4.123-5.135 4.324-2.595.163-5.36 1.56-7.483 3.16-.75.566.144 3.36.343 5.128.6 5.324 3.662 9.365 7 13.25.727.848 2.364 1.82 2.217 2.37-1.583 5.892 3.37 8.78 5.76 12.735 4.134 6.84 3.764 19.52-.83 26.173-2.614 3.788-4.925 7.83-6.938 11.967-1.04 2.134-1.4 4.818 2.73 4.282 1.147-.15 2.376.335 3.565.53-.646 1.56-.884 3.576-2.018 4.593-2.744 2.46-5.76 4.707-8.942 6.566-2.972 1.736-3.247 8.12-8.9 5.26-.315.775-1.107 2-.87 2.25 1.424 1.504 3.062 3.886 4.67 3.917 3.9.077 4.472 2.173 5.837 5.122 1.212 2.62 5.17 3.904 4.36 7.877-.18.885-.183 2.262-.726 2.55-5.582 2.95-4.428 8.36-5.006 13.14zm-199-74.273c8.606-5.9 17.022-3.55 25.403.578 7.47 3.68 14.45 4.85 20.242-3.162.505-.7 4.06-.374 4.955.6 2.77 3.04 5.57 3.677 9.346 2.28 1.253-.463 3.945-.144 4.234.547.596 1.43.66 3.833-.2 4.966-2.08 2.733-4.4 5.82-7.37 7.228-6.473 3.08-12.325 8.514-20.37 6.948-1.44-.28-3.837-1.077-3.95-1.888-.732-5.36-5.488-5.2-8.828-6.7-4.106-1.84-8.26-3.396-10.98 2.76-.516 1.165-5.323 1.226-7.76.494-1.9-.567-3.17-3.164-4.722-4.858v-9.8z"/><path d="M82.567 230.624c6.6-6.157 6.47-6.022 12.944.317 3.923 3.84 8.678 3.907 13.563 1.608.517-.244 1.313.104 1.98.178-.345.415-.6.958-1.043 1.223-2.224 1.352-4.5 2.632-6.74 3.938 2.726 2.382 5.34 4.912 8.222 7.1 1.605 1.213 3.996 1.484 5.403 2.835 1.244 1.193 1.613 3.296 2.37 4.998-2.128.428-5.758 1.782-6.154 1.14-4-6.5-11.583-8.862-16.138-14.37-2.88-3.482-5.23-5.536-9.858-4.227-4.22 1.194-5.605-.796-4.47-4.84l-.08.112zm72.917-169.95l10.784-17.167c.276-.414 2.973.024 3.737.83 3.362 3.555 2.926 8.016.788 11.663-2.036 3.475-5.267 6.32-8.28 9.1-.946.875-3.236 1.33-4.284.78-1.102-.577-1.456-2.587-2.746-5.215zm65.16-51.442c-1.44 1.532-1.914 2.448-2.642 2.745L192.9 21.862c-.3.117-2.227-2.63-2.04-2.84 1.492-1.682 3.08-3.75 5.073-4.43 6.37-2.175 12.906-3.875 19.427-5.58 1.32-.345 2.847.1 5.275.22zm8.23-1.933l18.064-.9c.926-.03 1.88.752 2.818 1.16-.724.473-1.394 1.212-2.182 1.376-6.127 1.275-12.247 2.67-18.44 3.443-1.232.154-2.776-2.198-4.178-3.395l3.037-3.24.882 1.566zm44.723-5.788l4.62.662c-1.773 1.208-3.42 2.723-5.358 3.536-1.876.786-4.04.96-6.104 1.2-1.324.147-2.7-.1-4.037-.157 1.055-1.585 1.774-3.827 3.253-4.583 1.704-.87 4.08-.43 7.627-.648zm-88.013 25.73c-.408.853-.5 1.358-.784 1.586-3.398 2.625-6.726 5.367-10.313 7.7-1.1.725-2.946.334-4.45.454.76-1 1.345-2.23 2.308-2.962 3.268-2.48 6.6-4.875 10.066-7.077.67-.427 1.984.153 3.173.3z"/></g><g class="E F"><path d="M148.157 203.388l12.32-27.33 12.32 27.667"/><path d="M150.792 197.542l16.353-6.505-11.466-4.337"/></g></g><circle cx="160.476" cy="171.682" r="5.722" class="G"/><path d="M168.48 178.563a10.52 10.52 0 0 0 2.566-6.903c0-2.672-.993-5.113-2.628-6.975m-16.083.235a10.53 10.53 0 0 0-2.43 6.74c0 2.64.967 5.05 2.566 6.903m21.133 4.443a17.27 17.27 0 0 0 4.208-11.323c0-4.383-1.627-8.387-4.3-11.44m-26.39.382a17.26 17.26 0 0 0-3.983 11.058c0 4.328 1.585 8.286 4.207 11.323m105.553 17.83l12.32-27.33 12.32 27.667M255.534 195l16.355-6.506-11.468-4.336" fill="none" class="B C D E F"/><circle cx="265.218" cy="169.13" r="5.722" class="G"/><g fill="none" class="B C D E F"><path d="M273.22 176.012a10.52 10.52 0 0 0 2.566-6.903 10.53 10.53 0 0 0-2.628-6.975m-16.08.234a10.53 10.53 0 0 0 .137 13.644m21.133 4.443a17.27 17.27 0 0 0 4.207-11.323 17.26 17.26 0 0 0-4.31-11.439m-26.38.38c-2.488 3-3.983 6.855-3.983 11.058a17.27 17.27 0 0 0 4.208 11.323m-6.72-84.648l12.32-27.33L270 96.144"/><path d="M248.004 89.96l16.353-6.505-11.466-4.337"/></g><circle cx="257.688" cy="64.101" r="5.722" class="G"/><g fill="none" class="B"><path d="M265.7 70.982a10.52 10.52 0 0 0 2.566-6.903c0-2.672-.992-5.113-2.628-6.974m-16.09.235a10.53 10.53 0 0 0 .137 13.644m21.132 4.44a17.27 17.27 0 0 0-.103-22.762m-26.378.382c-2.488 3-3.983 6.855-3.983 11.057a17.27 17.27 0 0 0 4.208 11.323" class="C D E F"/><g stroke="#fbcb21"><circle stroke-width="4" cx="166.714" cy="184.743" r="67.234"/><circle cx="267.468" cy="182.7" r="67.234" class="C"/><circle stroke-width="4" cx="256.181" cy="75.426" r="67.234"/></g></g></svg>