<?xml version="1.0" encoding="utf-8"?>
<!-- Generator: Adobe Illustrator 16.0.0, SVG Export Plug-In . SVG Version: 6.00 Build 0)  -->
<!DOCTYPE svg PUBLIC "-//W3C//DTD SVG 1.1 Basic//EN" "http://www.w3.org/Graphics/SVG/1.1/DTD/svg11-basic.dtd">
<svg version="1.1" baseProfile="basic" xmlns="http://www.w3.org/2000/svg" xmlns:xlink="http://www.w3.org/1999/xlink" x="0px"
	 y="0px" width="750px" height="750px" viewBox="0 0 750 750" xml:space="preserve">
<g id="Layer_1">
</g>
<g id="Layer_2">
	<path fill-rule="evenodd" clip-rule="evenodd" fill="#E8BD9A" d="M117.03,627.25c3.1,4.26,6.2,8.53,9.3,12.79
		c1.87,1.91,3.74,3.82,5.62,5.73c2.13,2.2,4.25,4.4,6.38,6.6l0.1,0.05c7.06,6.35,14.12,12.71,21.19,19.06
		c5.26,4.46,10.52,8.92,15.78,13.38c2.63,1.9,5.27,3.8,7.91,5.7c0.88,0.13,1.98-0.04,2.62,0.42c12.16,8.77,25.22,16.03,38.41,23.08
		c7.72,4.09,15.21,8.72,23.23,12.07c5.3,2.22,11.37,2.6,17.1,3.8c8.71,3.29,17.41,6.58,26.12,9.88c6.69,1.56,13.37,3.13,20.06,4.69
		c7.25,1.34,14.5,2.69,21.75,4.03c32.73,0,65.47,0,98.2,0c10.53-2.03,21.06-4.05,31.59-6.07c7.25-2.03,14.49-4.06,21.74-6.08
		c7.29-2.56,14.59-5.12,21.88-7.68c1.89-0.61,3.77-1.22,5.66-1.83c5.3-2.38,10.61-4.76,15.92-7.13c7.18-3.55,14.35-7.11,21.53-10.66
		c1.99-1.23,3.97-2.47,5.96-3.7c3.09-2.33,6.07-4.82,9.31-6.92c1.92-1.24,4.26-1.85,6.41-2.74c14.29-10.98,28.57-21.96,42.85-32.94
		c7.46-7.46,14.92-14.91,22.39-22.37c3.12-4.99,9.59-7.63,10.16-14.42c-1.47-1.78-3.21-3.4-4.38-5.36
		c-23.66-39.5-56.45-68.44-98.96-86.45c-18-7.62-36.67-12.33-55.91-15.16c-0.93-0.13-1.9,0.09-2.85,0.14
		c-1.67-0.12-3.33-0.25-5-0.37c-9.18-0.61-18.36-1.23-28.62-1.91c0-12.44,0-24.57,0-36.71c-0.33-3.07-0.66-6.14-0.99-9.21
		c0.99-0.63,1.91-1.44,2.99-1.87c40.77-16.18,66.49-46.64,82.44-86.51c6.13-15.33,8.93-31.33,10.52-47.63
		c4.99-1.52,10.16-2.74,12.88-7.94c0.39,0.05,0.71-0.07,0.96-0.36c9.5-4.08,12.16-12.9,12.61-21.58c0.87-16.74,0.71-33.58,0-50.34
		c-0.32-7.64-4.18-14.46-11.03-18.92l0.01-0.02c-3.4-5.74-9.49-6.97-15.1-9c1.12-20.56,2.99-41.12,3.16-61.7
		c0.17-21.57-1.78-43.09-7.75-64.02c-0.25-0.89-0.11-1.89-0.15-2.84c-2.48-6.14-11.66-25.7-13.79-29.34
		c-2.79-3.49-5.59-6.98-8.38-10.46c-4.33-3.88-8.67-7.76-13-11.65c-4.87-3.84-9.74-7.67-14.61-11.51c-0.43-0.2-0.89-0.33-1.27-0.59
		c-12.21-8.67-82.73-23.21-91.76-20.89c-8.61,1.07-73.4,0.02-77.27,0.87c-2.85,0.57-5.7,1.15-8.55,1.72
		c-7.66,2.96-15.32,5.91-22.99,8.87c-5.73,3.33-11.46,6.67-17.18,10c-9.7,8.68-19.4,17.36-29.11,26.03
		c-3.96,5.7-7.93,11.41-11.89,17.11c-3.08,6.67-6.15,13.35-9.23,20.02c-2.33,11.24-4.99,22.42-6.91,33.73
		c-4.03,23.75-4.91,47.69-2.87,71.68c0.66,7.79,2.61,15.47,3.97,23.19c-2.59,1.5-5.18,2.99-7.77,4.49l-0.05,0.05
		c-1.13,0.89-2.26,1.78-3.4,2.67c-0.82,0.46-1.64,0.91-2.45,1.37c-2.24,3.01-4.48,6.02-6.72,9.03c-0.34,0.33-0.49,0.73-0.45,1.2
		c-0.69,1-1.37,2.01-2.05,3.01c-0.65,1.98-1.84,3.95-1.86,5.93c-0.18,16.29-0.47,32.6-0.07,48.88c0.37,14.95,13.5,28.14,25.82,30.22
		c1.14,14.65,4.21,28.75,8.96,42.06c1.56,4.58,3.34,9.11,5.36,13.58c14.15,31.29,34.53,56.34,64.61,71.71
		c5.4,3.24,11.01,6.18,16.79,8.79c-0.32,15.65-0.64,31.3-0.98,47.6c-4.37,0-7.46-0.14-10.54,0.03c-4.71,0.28-9.41,0.77-14.11,1.17
		c-1-0.11-2.01-0.22-3.01-0.32l0.04,0.02c-0.72,0.21-1.43,0.42-2.15,0.63c-18.86,0.72-36.87,5.46-54.39,12.06
		c-37.06,13.96-67.72,36.76-91.79,68.18 M517.89,137.55c-0.21-0.08-0.31-0.21-0.25-0.41C517.73,137.27,517.81,137.41,517.89,137.55z
		"/>
</g>
<g id="Shirt">
	<g>
		<path fill="none" d="M486.33,515.44c-1.19,1.01-2.65,2.22-4.35,3.57c0.7,0.05,1.39,0.1,2.09,0.15c0.95-0.05,1.93-0.27,2.85-0.14
			c19.24,2.83,37.91,7.53,55.91,15.16c42.51,18,75.3,46.94,98.96,86.45c1.17,1.96,2.91,3.58,4.38,5.36
			c-0.56,6.8-7.04,9.43-10.16,14.42c-7.46,7.46-14.92,14.91-22.39,22.37c-14.28,10.98-28.57,21.96-42.85,32.94
			c-2.15,0.89-4.49,1.5-6.41,2.74c-3.24,2.1-6.22,4.6-9.31,6.92c-1.99,1.24-3.97,2.47-5.96,3.7c-7.18,3.55-14.35,7.11-21.53,10.66
			c-5.31,2.38-10.61,4.75-15.92,7.13c-1.89,0.61-3.78,1.22-5.66,1.83c-7.29,2.56-14.59,5.12-21.88,7.68
			c-7.25,2.03-14.49,4.05-21.74,6.08c-10.53,2.03-21.06,4.05-31.59,6.07c-32.73,0-65.47,0-98.2,0c-7.25-1.35-14.5-2.69-21.75-4.03
			c-6.69-1.56-13.37-3.13-20.06-4.69c-8.71-3.29-17.41-6.58-26.12-9.88c-5.73-1.2-11.8-1.58-17.1-3.8
			c-8.02-3.35-15.51-7.98-23.23-12.07c-13.19-7.05-26.25-14.32-38.41-23.08c-0.64-0.46-1.74-0.3-2.62-0.42
			c-2.64-1.9-5.27-3.8-7.91-5.7c-5.26-4.46-10.52-8.92-15.78-13.38c-7.06-6.35-14.12-12.71-21.19-19.06l-0.1-0.05
			c-2.13-2.2-4.25-4.4-6.38-6.6c-1.87-1.91-3.75-3.82-5.62-5.73c-3.1-4.26-6.2-8.53-9.3-12.79l18.93-27.88
			c24.07-31.43,54.73-54.22,91.79-68.18c17.51-6.6,35.53-11.34,54.39-12.06c0.72-0.21,1.43-0.42,2.15-0.63l-0.04-0.02
			c1,0.11,2.01,0.22,3.01,0.32c0.87-0.07,1.74-0.15,2.62-0.23c-2.87-3.62-5.34-7.28-7.32-10.92C271.96,488.13,0,613.32,0,639.23
			c0,25.91,360.92,214.83,383.15,214.83c22.23,0,321.3-218.9,321.3-244.81C704.45,594.36,575.83,438.95,486.33,515.44z"/>
		<path fill="#016293" d="M284.25,518.49l0.04,0.02c-0.72,0.21-1.43,0.42-2.15,0.63c-18.86,0.72-36.87,5.46-54.39,12.06
			c-37.06,13.96-67.72,36.76-91.79,68.18l-18.93,27.88c3.1,4.26,6.2,8.53,9.3,12.79c1.87,1.91,3.74,3.82,5.62,5.73
			c2.13,2.2,4.25,4.4,6.38,6.6l0.1,0.05c7.06,6.35,14.12,12.71,21.19,19.06c5.26,4.46,10.52,8.92,15.78,13.38
			c2.63,1.9,5.27,3.8,7.91,5.7c0.88,0.13,1.98-0.04,2.62,0.42c12.16,8.77,25.22,16.03,38.41,23.08c7.72,4.09,15.21,8.72,23.23,12.07
			c5.3,2.22,11.37,2.6,17.1,3.8c8.71,3.29,17.41,6.58,26.12,9.88c6.69,1.56,13.37,3.13,20.06,4.69c7.25,1.34,14.5,2.69,21.75,4.03
			c32.73,0,65.47,0,98.2,0c10.53-2.03,21.06-4.05,31.59-6.07c7.25-2.03,14.49-4.06,21.74-6.08c7.29-2.56,14.59-5.12,21.88-7.68
			c1.89-0.61,3.77-1.22,5.66-1.83c5.3-2.38,10.61-4.76,15.92-7.13c7.18-3.55,14.35-7.11,21.53-10.66c1.99-1.23,3.97-2.47,5.96-3.7
			c3.09-2.33,6.07-4.82,9.31-6.92c1.92-1.24,4.26-1.85,6.41-2.74c14.29-10.98,28.57-21.96,42.85-32.94
			c7.46-7.46,14.92-14.91,22.39-22.37c3.12-4.99,9.59-7.63,10.16-14.42c-1.47-1.78-3.21-3.4-4.38-5.36
			c-23.66-39.5-56.45-68.44-98.96-86.45c-18-7.62-36.67-12.33-55.91-15.16c-0.93-0.13-1.9,0.09-2.85,0.14
			c-0.7-0.05-1.39-0.1-2.09-0.15c-20.58,16.42-75.9,55.27-98.84,55.27c-22.07,0-70.34-26.75-93.27-55.7
			c-0.87,0.08-1.74,0.16-2.62,0.23C286.25,518.71,285.25,518.6,284.25,518.49z"/>
	</g>
</g>
<g id="Beard__x26__hair">
	<path fill-rule="evenodd" clip-rule="evenodd" fill="#816551" d="M279.01,385.3c13.11,2.11,14.84,1.14,19.28-10.81
		c1.17-3.14,2.45-6.26,3.49-9.44c2.89-8.88,8.84-15.21,16.52-20.13c0.99-0.66,1.98-1.32,2.97-1.97l-0.09,0.11
		c1-0.51,1.99-1.01,2.99-1.52l-0.08,0.11c1-0.49,1.99-0.98,2.98-1.46l0.01,0.1c10.75-2.85,21.61-4.81,32.8-4.04
		c7.46,1.23,18.41,3.57,23.43,3.87c5.02,0.3,6.41-2.54,10.33-2.67c8.06-0.27,16.15,0.37,24.23,0.63c6.07-2.1,11.52,1.16,17.26,1.99
		l0.32,0.17l0.29-0.21c3.1,1.51,6.19,3.01,9.29,4.52l-0.06-0.16c0.55,0.47,1.09,0.94,1.64,1.41l-0.07-0.05
		c2.78,2.03,5.55,4.06,8.33,6.09l0.04-0.13c0.59,0.91,1.18,1.83,1.77,2.75l-0.05-0.04c3.36,8.11,6.7,16.23,10.1,24.32
		c1.62,3.85,3.58,7.29,8.56,7.4c10.2,0.23,19.08-2.89,26.42-10.09l-0.08,0.06c6.4-1.71,11.4-5.33,14.89-11l0.22-0.21
		c2.87-4,5.74-8,8.61-12c0.3-0.87,0.6-1.74,0.9-2.61c1.85-5.37,4.25-10.61,5.46-16.12c4.16-18.95,4.41-38.25,4.66-57.55
		c0.12-9.3,0.53-18.64,1.6-27.88c0.73-6.31,2.8-12.47,4.28-18.7c0.84,0.03,1.69,0.06,2.53,0.09c0.53,6.1,1.5,12.19,1.5,18.29
		c0,11.69-0.55,23.38-0.87,35.07c-0.02,15.85-0.05,31.71-0.07,47.56c0.03,1.3,0.07,2.61,0.1,3.91c-1.59,16.3-4.39,32.3-10.52,47.63
		c-15.95,39.87-41.67,70.33-82.44,86.51c-1.07,0.43-1.99,1.23-2.99,1.87c-4.87,1.18-9.72,2.53-14.63,3.51
		c-16.8,3.36-33.52,7.43-50.49,9.59c-13.61,1.73-26.83-3.36-40.07-6.18c-10.22-2.18-20.27-5.15-30.4-7.77
		c-0.32-0.16-0.65-0.2-0.99-0.12c-1.27-1.01-2.39-2.43-3.84-2.99c-37.32-14.37-61.47-41.9-77.56-77.49
		c-7.98-17.64-12.27-36.2-13.39-55.5c-0.03-3.36-0.06-6.73-0.09-10.09c0.05-17.69,0.18-35.37,0.11-53.06
		c-0.06-14.08-0.37-28.16-0.57-42.23c1.19,0.96,2.37,1.91,3.56,2.87c0.6,1.51,1.52,2.97,1.76,4.53c1.51,9.55,2.87,19.12,4.27,28.69
		c0.03,1,0.05,1.99,0.08,2.99c-0.03,12.67-0.57,25.38,0.09,38.02c0.43,8.18,2.61,16.27,4,24.39c0.17,1.35,0.33,2.7,0.5,4.05
		c0.29,0.55,0.57,1.1,0.86,1.65l-0.17,0.05c1.61,8.92,4.2,17.43,10.3,24.46l-0.1,0.02c0.89,1.03,1.79,2.05,2.68,3.08l0.05-0.04
		c6.56,10.46,17.44,14.82,27.91,19.76c0.23,0.28,0.52,0.36,0.87,0.23C275.82,384.01,277.41,384.65,279.01,385.3z M441.17,423.83
		l-0.08,0.01c3.35-6.39,7.12-12.6,9.85-19.24c1.17-2.84,0.16-6.57,0.14-9.89c-0.06-0.49-0.13-0.98-0.19-1.48
		c-1.27-4.38-2.53-8.77-3.79-13.16c-0.56-0.9-1.12-1.81-1.68-2.71c-3.09-10.06-12.1-16.28-23.36-16.01
		c-11.6,0.27-23.24,1.16-34.56-2.43c-1.87-0.96-3.74-1.92-4.44-2.28c-7,1.61-12.88,2.97-18.76,4.33
		c-6.22-0.15-12.45-0.67-18.64-0.34c-8.11,0.42-16.33,1-22.35,7.78c-14.09,15.88-17.8,36.64-1.02,55.43l-0.08-0.01
		c2.49,2.8,4.99,5.6,7.48,8.4c5.37,3.26,10.43,7.37,16.22,9.54c5.11,1.92,11.01,1.63,14.09-4.72c0.83-0.45,1.73-0.79,2.47-1.35
		c12.86-9.69,28.25-9.12,40.27,1.5c1.04,0.92,2.18,1.73,3.27,2.6l-0.01-0.07c2.02,0.88,4.01,2.42,6.07,2.51
		c7.94,0.35,14.64-2.67,20-8.57c0.54-0.48,1.07-0.97,1.61-1.46C436.18,429.42,438.67,426.62,441.17,423.83z"/>
	<path fill-rule="evenodd" clip-rule="evenodd" fill="#93846D" d="M541.16,101.07c-0.25-0.89-0.11-1.89-0.15-2.84
		c-2.48-6.14-4.95-12.28-7.43-18.42c-2.12-3.64-4.24-7.28-6.36-10.92c-2.26-2.82-4.52-5.64-6.77-8.46c0,0-0.01-0.01-0.01-0.01
		c-0.64-0.79-1.3-1.56-1.97-2.33c-4.21-3.77-8.42-7.54-12.63-11.31c-3.58-2.82-7.15-5.63-10.73-8.45
		C455.38,13.17,398.95,8.52,367.2,8.1c-4.23,0.53-8.45,1.06-12.68,1.59c-7.32,0.81-14.64,1.62-21.96,2.43
		c-3.88,0.85-7.75,1.69-11.63,2.54c-2.85,0.57-5.7,1.15-8.55,1.72c-7.66,2.96-15.32,5.91-22.99,8.87c-5.73,3.33-11.46,6.67-17.18,10
		c-9.7,8.68-19.4,17.36-29.11,26.03c-3.96,5.7-7.93,11.41-11.89,17.11c-3.08,6.67-6.15,13.35-9.23,20.02
		c-2.33,11.24-4.99,22.42-6.91,33.73c-4.03,23.75-4.91,47.69-2.87,71.68c0.66,7.79,2.61,15.47,3.97,23.19
		c0.46,0.54,0.92,1.08,1.38,1.61c1.19,0.96,2.37,1.91,3.56,2.87c0.79-1.71-2.97-4.32,1.07-5.38c0.57-1.13,1.15-2.25,1.72-3.38
		c3-27.12,7.67-53.84,19.1-78.92c0.78-1.7,2.67-4.87,2.67-4.87c1-1.94,2.01-3.87,3.01-5.81l-0.09,0.13
		c0.53-0.98,1.06-1.97,1.59-2.95c0,0,4.84-6.44,7.29-9.67c2.83-2.55,31.18-32.94,31.18-32.94c1.99-2.26,3.97-4.51,5.17-5.87
		c9.28,0,17.51,0,25.74,0c3.88,0.05,7.76,0.1,11.65,0.15c18.74,0,37.48-0.01,56.22-0.01c2.91-0.04,5.82-0.09,8.73-0.13
		c10.97-0.57,21.96-0.95,32.91-1.78c8.06-0.61,16.09-1.66,24.09-2.77c7.75-1.08,34.45,26.55,42.65,33.82
		c2.63,2.33,5.12,4.83,7.67,7.25l-0.22,0.54l0.27-0.52c1.2,1.6,2.4,3.21,3.6,4.81c3.5,4.65,7,9.29,10.49,13.94
		c7.95,12.36,10.58,26.42,12.79,40.58c1.95,12.48,3.31,25.07,5.71,37.46c1,5.16,4,9.92,6.09,14.87c0.84,0.03,1.69,0.06,2.53,0.09
		c0.33-1.11,0.66-2.23,0.99-3.34c1.12-20.56,2.99-41.12,3.16-61.7C549.08,143.52,547.12,122,541.16,101.07z"/>
</g>
<g id="Eyes__x26__brows">
	
		<path fill-rule="evenodd" clip-rule="evenodd" fill="none" stroke="#816551" stroke-width="12" stroke-linecap="round" stroke-miterlimit="10" d="
		M332.61,206.05c0,0-25.63-5.92-40.62,0.18c-14.99,6.11-26.63,13.46-30.44,18.69"/>
	<path fill-rule="evenodd" clip-rule="evenodd" fill="#428DCB" d="M469.74,255.85c9.64,3.36,16.46,10.89,16.6,19.66
		c-13.13-7.8-29.41-12.06-41.24-7.05c-11.82,5.01-13.49,6.41-21.48,10.21c0.58-2.58,1.33-10.35,9.31-17.63
		C440.91,253.76,456.71,252.24,469.74,255.85z"/>
	<circle fill-rule="evenodd" clip-rule="evenodd" fill="#428DCB" cx="306.26" cy="266.38" r="17.76"/>
	
		<path fill-rule="evenodd" clip-rule="evenodd" fill="none" stroke="#816551" stroke-width="12" stroke-linecap="round" stroke-miterlimit="10" d="
		M498.75,222.4c0,0-15.34-15.61-33.24-18.2c-17.9-2.59-32.44-0.93-38.44,2.22"/>
</g>
<g id="Mouth">
	<path fill-rule="evenodd" clip-rule="evenodd" fill="#4A322D" d="M331.38,390.21c-0.43-1-0.87-2-1.3-3
		c-0.7-3.21-1.42-6.42-2.1-9.65c-1.69-7.98,0.11-10.2,8.35-10.3c0.7-0.01,1.41,0.08,2.12,0.13c17.76-0.16,71.06-0.03,89.42,0.02
		c0.51-0.16,1.01-0.32,1.52-0.48c6.48,1.81,7.9,3.56,6.08,9.93c-1.92,6.75-4.69,13.26-7.09,19.87c-0.76,1.16-3.03,5.07-3.79,6.23
		c-3.1,2.6-4.4,6.31-6.63,6.31c-11.2,16.77-55.31,12.13-72.52-1.29C340.75,402.05,336.07,396.13,331.38,390.21z"/>
</g>
<g id="Tong">
	<path fill-rule="evenodd" clip-rule="evenodd" fill="#EB536F" d="M407.67,416.41c-0.96,0.46-1.93,0.92-2.89,1.37
		c-11.71,3.6-23.64,6.83-35.74,2.84c-7.61-2.51-14.71-6.56-22.04-9.93l-0.07-0.06c-0.5-0.89-1-1.78-1.49-2.67
		c9.22-8.36,19.76-10.64,31.79-7.43c3.01,0.8,6.61,0.88,9.59,0.05c11.51-3.21,21.51-1.26,29.98,7.39c-0.2,1.31-0.41,2.63-0.61,3.94
		l0.03-0.04C413.38,413.4,410.52,414.91,407.67,416.41z"/>
</g>
<g id="tooth">
	<path fill-rule="evenodd" clip-rule="evenodd" fill="#FEFFFF" d="M427.86,367.4c-1.43,9.69-6.24,14.19-15.58,14.22
		c-19.44,0.07-38.89,0.08-58.33,0c-9.42-0.04-13.97-4.34-15.5-14.24c0.46-0.06,0.92-0.13,1.38-0.21
		C369.17,367.25,398.52,367.33,427.86,367.4z"/>
</g>
</svg>
